<svg width="74" height="74" viewBox="0 0 74 74" fill="none" xmlns="http://www.w3.org/2000/svg">
<rect x="0.321899" y="0.839844" width="73.3238" height="72.5519" rx="36.276" fill="black"/>
<rect x="1.09373" y="1.61167" width="71.7801" height="71.0083" rx="35.5041" stroke="url(#paint0_linear_209_6749)" stroke-opacity="0.3" stroke-width="1.54366"/>
<path d="M52.0726 26.6196C52.0726 25.5372 51.187 24.6514 50.1044 24.6514H45.512H24.0266C22.9772 24.6514 21.8948 25.4385 21.8948 26.6196V47.6128C21.8948 48.6952 22.7804 49.581 23.863 49.581H50.1046C51.187 49.581 52.0728 48.6954 52.0728 47.6128V39.0844L52.0725 35.1482L52.0726 26.6196ZM44.8561 33.8361C43.0519 33.8361 41.5758 35.3122 41.5758 37.1164C41.5758 38.9206 43.0519 40.3967 44.8561 40.3967H49.4484V46.3011C49.4484 46.662 49.1531 46.9573 48.7923 46.9573L25.1752 46.9568C24.8143 46.9568 24.5191 46.5959 24.5191 46.2353V28.5879C24.5519 27.243 25.6015 27.2759 25.8311 27.2759H48.7925C49.1534 27.2759 49.4487 27.5711 49.4487 27.932V33.8365L44.8561 33.8361ZM46.8241 37.1164C46.8241 38.1988 45.9385 39.0846 44.8559 39.0846C43.7735 39.0846 42.8877 38.199 42.8877 37.1164C42.8877 36.034 43.7733 35.1482 44.8559 35.1482C45.9385 35.1482 46.8241 36.0338 46.8241 37.1164Z" fill="white"/>
<defs>
<linearGradient id="paint0_linear_209_6749" x1="0.321899" y1="3.5044" x2="85.2319" y2="25.8357" gradientUnits="userSpaceOnUse">
<stop stop-color="white"/>
<stop offset="0.325893" stop-color="white" stop-opacity="0.256139"/>
<stop offset="0.695684" stop-color="white" stop-opacity="0.735087"/>
<stop offset="1" stop-color="white" stop-opacity="0.07"/>
</linearGradient>
</defs>
</svg>
