<svg width="75" height="74" viewBox="0 0 75 74" fill="none" xmlns="http://www.w3.org/2000/svg">
<rect x="0.85968" y="0.488281" width="73.3238" height="72.5519" rx="36.276" fill="black"/>
<rect x="1.63151" y="1.26011" width="71.7801" height="71.0083" rx="35.5041" stroke="url(#paint0_linear_209_6771)" stroke-opacity="0.3" stroke-width="1.54366"/>
<path d="M43.5347 39.2224C44.854 38.6067 45.6106 37.8231 45.6106 37.0722V34.0361C45.2221 34.3223 44.7717 34.5866 44.2615 34.8246C42.4787 35.6567 40.0847 36.1147 37.5214 36.1147C34.9576 36.1147 32.5641 35.6563 30.7813 34.8246C30.271 34.5866 29.8207 34.3223 29.4321 34.0361V37.0722C29.4321 37.8228 30.1888 38.6067 31.508 39.2224C33.0679 39.9506 35.2037 40.3513 37.5215 40.3513C39.8392 40.3513 41.9746 39.9502 43.5349 39.2224H43.5347ZM42.6852 36.5506C43.1985 36.5506 43.6151 36.9801 43.6151 37.51C43.6151 38.04 43.1988 38.4691 42.6852 38.4691C42.1719 38.4691 41.7553 38.0396 41.7553 37.51C41.7553 36.9801 42.1715 36.5506 42.6852 36.5506Z" fill="white"/>
<path d="M25.556 45.2441C24.7455 45.2441 24.0859 45.9079 24.0859 46.7241C24.0859 47.5403 24.7452 48.204 25.556 48.204C26.3665 48.204 27.026 47.5403 27.026 46.7241C27.026 45.9083 26.3664 45.2441 25.556 45.2441Z" fill="white"/>
<path d="M31.5087 33.2673C33.0686 33.9955 35.2044 34.3962 37.5221 34.3962C39.8399 34.3962 41.9757 33.9951 43.5356 33.2673C44.8548 32.6516 45.6115 31.8681 45.6115 31.1171V28.0791C45.2225 28.3653 44.7722 28.6299 44.2616 28.8684C42.4764 29.702 40.0833 30.1614 37.5222 30.1614C34.9612 30.1614 32.5679 29.7023 30.7829 28.8684C30.2723 28.6299 29.8215 28.3653 29.433 28.0791V31.1171C29.433 31.8681 30.1893 32.6516 31.5089 33.2673H31.5087ZM42.6864 30.5955C43.1997 30.5955 43.6163 31.025 43.6163 31.5546C43.6163 32.0845 43.2001 32.514 42.6864 32.514C42.1731 32.514 41.7565 32.0845 41.7565 31.5546C41.7565 31.025 42.1728 30.5955 42.6864 30.5955Z" fill="white"/>
<path d="M37.5216 28.4416C42.289 28.4416 45.6109 26.7137 45.6109 25.1625C45.6109 23.6117 42.2886 21.8838 37.5216 21.8838C32.7546 21.8838 29.4324 23.6117 29.4324 25.1629C29.4324 26.7137 32.7542 28.4416 37.5216 28.4416Z" fill="white"/>
<path d="M49.4874 45.2441C48.6769 45.2441 48.0173 45.9079 48.0173 46.7241C48.0173 47.5403 48.6766 48.204 49.4874 48.204C50.2979 48.204 50.9574 47.5403 50.9574 46.7241C50.9571 45.9083 50.2978 45.2441 49.4874 45.2441Z" fill="white"/>
<path d="M37.5215 14.5137C43.4524 14.5137 49.0279 16.8177 53.2276 21.0029V21.0039L53.2559 21.0312C57.4585 25.2339 59.7725 30.8225 59.7725 36.7656C59.7725 42.7085 57.4582 48.2956 53.2559 52.498C49.0523 56.7009 43.4656 59.0156 37.5215 59.0156C31.5777 59.0156 25.9906 56.7013 21.7881 52.499C17.5853 48.2954 15.2706 42.7087 15.2706 36.7646C15.2706 30.8206 17.5853 25.2337 21.7881 21.0312C25.9908 16.8284 31.5775 14.5137 37.5215 14.5137ZM37.5225 20.0703C34.9516 20.0703 32.5432 20.5311 30.7422 21.3721C28.7487 22.3032 27.6194 23.6446 27.6192 25.1631V37.0723C27.6193 38.5936 28.7484 39.9352 30.7413 40.8652V40.8662C31.0732 41.0211 31.4268 41.1608 31.7969 41.2891V45.7695H28.6973C28.2883 44.4179 27.0369 43.4297 25.5567 43.4297C23.7459 43.4299 22.2735 44.9076 22.2735 46.7236C22.2735 48.5397 23.7459 50.0174 25.5567 50.0176C27.0369 50.0176 28.2884 49.0295 28.6973 47.6777H32.751C33.2782 47.6777 33.7061 47.2508 33.7061 46.7236V41.8018C34.6038 41.9814 35.5627 42.0965 36.5567 42.1416V47.0146C35.2099 47.4256 34.2266 48.6806 34.2266 50.1641C34.2268 51.9801 35.6999 53.458 37.5108 53.458C39.3216 53.4579 40.7948 51.98 40.795 50.1641C40.795 48.6807 39.8112 47.4261 38.4649 47.0146V42.1426C39.4673 42.0981 40.4341 41.9819 41.3389 41.8008V46.7236C41.339 47.2507 41.766 47.6777 42.293 47.6777H46.3477C46.7538 49.0191 47.9886 50.001 49.4542 50.0156L49.4561 50.0176H49.4874C51.2982 50.0176 52.7713 48.5396 52.7715 46.7236C52.7715 44.9075 51.2983 43.4297 49.4874 43.4297C48.0075 43.4298 46.7569 44.4172 46.3477 45.7686H43.2481V41.2891C43.6177 41.1609 43.9712 41.021 44.3028 40.8662C46.2959 39.9358 47.4248 38.5937 47.4249 37.0723V25.1631C47.4247 23.6446 46.2954 22.3031 44.3018 21.3721C42.5011 20.5308 40.0933 20.0704 37.5225 20.0703Z" stroke="white" stroke-width="0.190176"/>
<path d="M36.0398 50.1626C36.0398 50.9787 36.699 51.6425 37.5098 51.6425C38.3203 51.6425 38.9799 50.9787 38.9799 50.1626C38.9799 49.3464 38.3207 48.6826 37.5098 48.6826C36.699 48.683 36.0398 49.3468 36.0398 50.1626Z" fill="white"/>
<defs>
<linearGradient id="paint0_linear_209_6771" x1="0.85968" y1="3.15283" x2="85.7697" y2="25.4842" gradientUnits="userSpaceOnUse">
<stop stop-color="white"/>
<stop offset="0.325893" stop-color="white" stop-opacity="0.256139"/>
<stop offset="0.695684" stop-color="white" stop-opacity="0.735087"/>
<stop offset="1" stop-color="white" stop-opacity="0.07"/>
</linearGradient>
</defs>
</svg>
