<svg width="74" height="73" viewBox="0 0 74 73" fill="none" xmlns="http://www.w3.org/2000/svg">
<rect x="0.365234" y="0.201172" width="73.3238" height="72.5519" rx="36.276" fill="black"/>
<rect x="1.13706" y="0.973001" width="71.7801" height="71.0083" rx="35.5041" stroke="url(#paint0_linear_209_6715)" stroke-opacity="0.3" stroke-width="1.54366"/>
<path d="M28.3329 45.5155H45.7214C46.195 45.5155 46.5394 45.1281 46.5394 44.6976L46.539 29.8053C46.539 29.3317 46.1516 28.9874 45.7211 28.9874H43.8703V25.6732C43.8706 21.8859 40.8145 18.8301 37.0271 18.8301C33.2395 18.8301 30.1837 21.8859 30.1837 25.6735V28.9876H28.3329C27.8594 28.9876 27.515 29.3751 27.515 29.8055V44.6543C27.515 45.1709 27.8594 45.5149 28.3329 45.5149L28.3329 45.5155ZM32.2924 25.6742C32.2924 23.0489 34.4015 20.9398 37.0268 20.9398C39.6521 20.9398 41.7612 23.0919 41.7612 25.6742V28.9883H32.2921L32.2924 25.6742ZM29.3657 32.4747C29.3657 31.571 30.0975 30.8822 30.9582 30.8822H43.0526C43.9563 30.8822 44.6452 31.614 44.6452 32.4747V42.0728C44.6452 42.9338 43.9133 43.6653 43.0526 43.6653H31.0009C30.0973 43.6653 29.4084 42.9335 29.4084 42.0728V32.4747H29.3657Z" fill="white"/>
<path d="M31.0009 43.2347H43.0526C43.6983 43.2347 44.2576 42.7181 44.2576 42.0727V32.4745C44.2576 31.8288 43.741 31.2695 43.0526 31.2695H31.0009C30.3552 31.2695 29.7959 31.7861 29.7959 32.4745V42.0727C29.7959 42.6754 30.3552 43.235 31.0009 43.235V43.2347ZM35.7353 34.9706C35.7353 34.2388 36.2949 33.6795 37.0264 33.6795C37.7582 33.6795 38.3175 34.2392 38.3175 34.9706C38.3175 35.4011 38.1023 35.7455 37.8009 36.0035L38.3606 40.824L37.4569 40.8243H35.6926L36.2522 36.0038C35.9505 35.7886 35.7353 35.4012 35.7353 34.9706Z" fill="white"/>
<path d="M45.4199 47.2363H28.6344C26.7406 47.2363 25.1912 48.7858 25.1912 50.6796C25.1912 52.5734 26.7406 54.1229 28.6344 54.1229H45.4199C47.3137 54.1229 48.8632 52.5734 48.8632 50.6796C48.8632 48.7861 47.3137 47.2363 45.4199 47.2363ZM45.4199 53.3483H28.6344C27.1711 53.3483 25.9661 52.1433 25.9661 50.68C25.9661 49.2166 27.1711 48.0116 28.6344 48.0116H45.4199C46.8832 48.0116 48.0882 49.2166 48.0882 50.68C48.0882 52.1433 46.8832 53.3483 45.4199 53.3483Z" fill="white"/>
<path d="M31.0872 49.0447L30.0113 48.4424L29.4086 49.8627L28.8059 48.4424L27.73 49.0447L28.6768 50.2501L27.2565 50.0779V51.2829L28.6768 51.1107L27.73 52.316L28.7629 52.9184L29.4086 51.4981L30.0113 52.9184L31.0872 52.273L30.1405 51.1107L31.6038 51.2829V50.0779L30.1405 50.2931L31.0872 49.0447Z" fill="white"/>
<path d="M46.3238 49.0447L45.2479 48.4424L44.6452 49.8627L44.0428 48.4424L42.9666 49.0447L43.9136 50.2931L42.45 50.0779V51.2829L43.9136 51.1107L42.9666 52.273L44.0428 52.9184L44.6452 51.4981L45.2909 52.9184L46.3238 52.316L45.377 51.1107L46.7973 51.2829V50.0779L45.377 50.2501L46.3238 49.0447Z" fill="white"/>
<path d="M38.6623 49.0447L37.6291 48.4424L37.0267 49.8627L36.381 48.4424L35.3481 49.0447L36.2518 50.2501L34.8315 50.0779V51.2829L36.2949 51.1107L35.3481 52.316L36.3379 52.9184L36.9837 51.4981L37.586 52.9184L38.7053 52.273L37.7583 51.1107L39.2216 51.2829V50.0779L37.7152 50.2931L38.6623 49.0447Z" fill="white"/>
<defs>
<linearGradient id="paint0_linear_209_6715" x1="0.365234" y1="2.86572" x2="85.2752" y2="25.1971" gradientUnits="userSpaceOnUse">
<stop stop-color="white"/>
<stop offset="0.325893" stop-color="white" stop-opacity="0.256139"/>
<stop offset="0.695684" stop-color="white" stop-opacity="0.735087"/>
<stop offset="1" stop-color="white" stop-opacity="0.07"/>
</linearGradient>
</defs>
</svg>
