<svg width="75" height="74" viewBox="0 0 75 74" fill="none" xmlns="http://www.w3.org/2000/svg">
<rect x="0.937134" y="0.678711" width="73.6152" height="72.8403" rx="36.4201" fill="black"/>
<rect x="1.71203" y="1.45361" width="72.0654" height="71.2905" rx="35.6452" stroke="url(#paint0_linear_209_6673)" stroke-opacity="0.3" stroke-width="1.54979"/>
<path d="M42.2869 35.4656C42.8559 34.8473 42.8159 33.8848 42.1977 33.316C41.5794 32.747 40.6169 32.787 40.0479 33.4052L36.7171 37.0247L35.9038 35.9758C35.3893 35.3116 34.4337 35.1906 33.7695 35.7051C33.1053 36.2197 32.9842 37.1755 33.4988 37.8397L35.139 39.9559C35.8599 40.8866 37.2442 40.945 38.0416 40.0791L42.2869 35.4656Z" fill="white"/>
<path d="M49.5356 18.5566C51.3737 18.5567 52.8638 20.0467 52.8638 21.8848C52.8637 23.7227 51.3736 25.2129 49.5356 25.2129C49.2314 25.2129 48.9375 25.1717 48.6587 25.0957L48.3521 25.0127L48.1577 25.2637L45.8062 28.3037L45.4458 28.7686L45.9761 29.0234L46.73 29.3848C47.2242 29.6221 47.5386 30.1225 47.5386 30.6709V34.2363C47.5386 34.7989 47.5097 35.3566 47.4526 35.9082L47.3979 36.4326H49.7827L49.9077 36.1475C50.4216 34.9713 51.5948 34.1505 52.9585 34.1504C54.7965 34.1504 56.2864 35.641 56.2866 37.4785C56.2866 39.3166 54.7965 40.8066 52.9585 40.8066C51.5947 40.8066 50.4215 39.9867 49.9077 38.8105L49.7827 38.5254H46.9653L46.8638 38.8643C46.3649 40.5364 45.6008 42.1114 44.6079 43.5293L44.4067 43.8154L44.6216 44.0928L48.3325 48.8906L48.5171 49.1289L48.811 49.0635C49.044 49.0118 49.2867 48.9844 49.5356 48.9844C51.3737 48.9844 52.8637 50.4745 52.8638 52.3125C52.8638 54.1505 51.3736 55.6406 49.5356 55.6406C47.6976 55.6406 46.2075 54.1505 46.2075 52.3125C46.2075 51.7 46.3726 51.127 46.6606 50.6348L46.8228 50.3584L46.6265 50.1045L43.3599 45.8809L43.0327 45.459L42.6509 45.8311C41.3855 47.0658 39.9072 48.1043 38.2534 48.8848C37.9314 49.0368 37.5579 49.0368 37.2358 48.8848C35.582 48.1043 34.1028 47.0658 32.8374 45.8311L32.4565 45.459L32.1294 45.8809L28.8628 50.1045L28.6665 50.3584L28.8286 50.6348C29.1166 51.127 29.2817 51.7 29.2817 52.3125C29.2817 54.1506 27.7917 55.6406 25.9536 55.6406C24.1156 55.6406 22.6255 54.1505 22.6255 52.3125C22.6256 50.4746 24.1157 48.9844 25.9536 48.9844C26.2028 48.9844 26.4449 49.0119 26.6772 49.0635L26.9722 49.1289L27.1567 48.8906L30.8687 44.0928L31.0825 43.8154L30.8813 43.5293C29.8884 42.1114 29.1243 40.5364 28.6255 38.8643L28.5239 38.5254H25.7065L25.5815 38.8105C25.0677 39.9866 23.8945 40.8066 22.5308 40.8066C20.6926 40.8066 19.2026 39.3166 19.2026 37.4785C19.2028 35.6409 20.6929 34.1504 22.5308 34.1504C23.8944 34.1505 25.0677 34.9714 25.5815 36.1475L25.7065 36.4326H28.0913L28.0366 35.9082C27.9796 35.3566 27.9507 34.7989 27.9507 34.2363V30.6709C27.9507 30.1223 28.2655 29.622 28.7603 29.3848L29.5132 29.0234L30.0425 28.7686L29.6831 28.3037L27.3315 25.2637L27.1372 25.0127L26.8306 25.0957C26.5518 25.1717 26.2579 25.2129 25.9536 25.2129C24.1156 25.2129 22.6256 23.7227 22.6255 21.8848C22.6255 20.0468 24.1156 18.5567 25.9536 18.5566C27.7917 18.5566 29.2817 20.0467 29.2817 21.8848C29.2817 22.4418 29.1456 22.9658 28.9048 23.4258L28.7632 23.6953L28.9497 23.9365L31.7368 27.54L31.9722 27.8438L32.3188 27.6777L37.1274 25.3701C37.5177 25.1829 37.9721 25.1831 38.3618 25.3701L43.1714 27.6777L43.5171 27.8438L43.7524 27.54L46.5396 23.9365L46.7261 23.6953L46.5854 23.4258C46.3445 22.9656 46.2075 22.4415 46.2075 21.8848C46.2075 20.0466 47.6976 18.5566 49.5356 18.5566ZM25.9536 51.0771C25.2713 51.0771 24.7173 51.6305 24.7173 52.3135C24.7174 52.9965 25.2712 53.5498 25.9536 53.5498C26.6359 53.5496 27.1898 52.9964 27.1899 52.3135C27.1899 51.6307 26.6358 51.0773 25.9536 51.0771ZM49.5347 51.0771C48.8522 51.0774 48.2993 51.631 48.2993 52.3135C48.2994 52.9961 48.8522 53.5496 49.5347 53.5498C50.2171 53.5498 50.7709 52.9965 50.771 52.3135C50.771 51.6306 50.217 51.0771 49.5347 51.0771ZM22.5298 36.2432C21.8478 36.2434 21.2937 36.7959 21.2935 37.4785C21.2935 38.1615 21.8474 38.7147 22.5298 38.7148C23.2126 38.7148 23.7661 38.1614 23.7661 37.4785C23.7659 36.7961 23.2123 36.2432 22.5298 36.2432ZM52.9585 36.2432C52.276 36.2432 51.7224 36.7961 51.7222 37.4785C51.7222 38.1614 52.2757 38.7148 52.9585 38.7148C53.6414 38.7147 54.1948 38.1614 54.1948 37.4785C54.1946 36.796 53.6411 36.2433 52.9585 36.2432ZM25.9536 20.6484C25.271 20.6485 24.7173 21.2022 24.7173 21.8848C24.7174 22.5676 25.2714 23.1201 25.9536 23.1201C26.6359 23.1201 27.1899 22.5676 27.1899 21.8848C27.1899 21.2021 26.6363 20.6484 25.9536 20.6484ZM49.5356 20.6484C48.8527 20.6484 48.2993 21.2024 48.2993 21.8848C48.2994 22.5673 48.8531 23.1201 49.5356 23.1201C50.2179 23.1201 50.7719 22.5676 50.772 21.8848C50.772 21.2022 50.2182 20.6485 49.5356 20.6484ZM45.4468 31.0898L45.1763 30.96L37.9497 27.4932L37.7446 27.3945L37.5386 27.4932L30.312 30.96L30.0425 31.0898V34.2363C30.0426 39.4681 32.9347 44.249 37.521 46.6885L37.7446 46.8076L37.9673 46.6885C42.5533 44.249 45.4467 39.4678 45.4468 34.2363V31.0898Z" stroke="white" stroke-width="0.950881"/>
<defs>
<linearGradient id="paint0_linear_209_6673" x1="0.937134" y1="3.35385" x2="86.1846" y2="25.7739" gradientUnits="userSpaceOnUse">
<stop stop-color="white"/>
<stop offset="0.325893" stop-color="white" stop-opacity="0.256139"/>
<stop offset="0.695684" stop-color="white" stop-opacity="0.735087"/>
<stop offset="1" stop-color="white" stop-opacity="0.07"/>
</linearGradient>
</defs>
</svg>
