<svg width="23" height="23" viewBox="0 0 23 23" fill="none" xmlns="http://www.w3.org/2000/svg">
<path d="M11.5 2.15625C6.348 2.15625 2.15625 6.348 2.15625 11.5C2.15625 16.652 6.348 20.8438 11.5 20.8438C16.652 20.8438 20.8438 16.652 20.8438 11.5C20.8438 6.348 16.652 2.15625 11.5 2.15625ZM11.5 3.59375C15.875 3.59375 19.4062 7.12497 19.4062 11.5C19.4062 15.875 15.875 19.4062 11.5 19.4062C7.12497 19.4062 3.59375 15.875 3.59375 11.5C3.59375 7.12497 7.12497 3.59375 11.5 3.59375ZM10.7812 7.1875V10.7812H7.1875V12.2188H10.7812V15.8125H12.2188V12.2188H15.8125V10.7812H12.2188V7.1875H10.7812Z" fill="white"/>
</svg>