<svg width="146" height="160" viewBox="0 0 146 160" fill="none" xmlns="http://www.w3.org/2000/svg">
<path d="M73.1554 0.003317C72.5678 -0.0219259 71.9844 0.097277 71.4529 0.348306L2.71983 32.9076C1.45628 33.505 0.651302 34.7755 0.649902 36.1724C0.649902 100.615 31.3035 142.415 71.634 158.897C72.5105 159.255 73.4907 159.255 74.3658 158.897C114.697 142.415 145.35 100.615 145.35 36.1724C145.348 34.7756 144.542 33.505 143.28 32.9076L74.5469 0.348306C74.1108 0.140753 73.6367 0.0243552 73.1529 0.003317H73.1554ZM73.0025 7.61834L137.987 38.398C137.283 98.4357 109.431 135.978 73.0025 151.516C36.5771 135.976 8.72124 98.4357 8.01757 38.398L73.0025 7.61834ZM72.9506 39.7403C71.99 39.7529 71.0756 40.1484 70.4067 40.8356C69.7378 41.5242 69.3689 42.4497 69.3829 43.4104V48.5066C64.3356 48.9666 59.7499 50.3704 56.0589 52.5778C51.5027 55.3012 48.0486 59.5409 48.0486 64.6988C48.0486 69.7867 51.333 74.012 55.7351 76.9867C60.1373 79.9612 65.8955 82.0158 72.38 83.146C78.0876 84.1416 83.0003 86.0026 86.2174 88.1765C89.4359 90.3516 90.722 92.5083 90.722 94.4664C90.722 96.354 89.3967 98.4927 86.2314 100.384C83.0648 102.278 78.3109 103.611 73.0025 103.611C64.9107 103.611 58.2578 100.285 56.1892 97.1953C55.6675 96.3679 54.8345 95.7873 53.8781 95.584C52.9216 95.382 51.9245 95.5741 51.1126 96.1183C50.3006 96.6624 49.7438 97.5123 49.5685 98.4729C49.3932 99.435 49.6134 100.426 50.1814 101.223C53.8795 106.747 61.0318 109.971 69.3828 110.688V115.759C69.3828 117.757 71.0026 119.377 73.0009 119.377C74.9993 119.377 76.6191 117.757 76.6191 115.759V110.665C81.6675 110.205 86.2521 108.801 89.9431 106.594C94.4994 103.87 97.9577 99.624 97.9577 94.466C97.9577 89.3781 94.6733 85.1568 90.2713 82.1824C85.869 79.2079 80.108 77.1534 73.622 76.0217C67.9144 75.0275 63.0031 73.1651 59.7846 70.9912C56.5675 68.8175 55.2801 66.6565 55.2801 64.6988C55.2801 62.8112 56.6053 60.6797 59.772 58.7877C62.9372 56.8945 67.6954 55.5608 73.0024 55.5608C81.0956 55.5608 87.7442 58.8858 89.8142 61.9767C90.3345 62.8041 91.1689 63.3847 92.124 63.588C93.0804 63.79 94.0775 63.5979 94.8895 63.0537C95.7015 62.5096 96.2596 61.6598 96.4349 60.6977C96.6102 59.7371 96.3887 58.7456 95.8221 57.949C92.1225 52.4249 84.9716 49.1966 76.6192 48.4801V43.4104C76.6332 42.4329 76.2518 41.4905 75.5604 40.7992C74.869 40.1078 73.9281 39.7263 72.9506 39.7403Z" fill="url(#paint0_linear_386_1607)"/>
<defs>
<linearGradient id="paint0_linear_386_1607" x1="1" y1="12" x2="99.5" y2="159" gradientUnits="userSpaceOnUse">
<stop stop-color="#E9E9E9"/>
<stop offset="0.3125" stop-color="#535353"/>
<stop offset="0.519231" stop-color="white"/>
<stop offset="0.653846" stop-color="#2A2A2A"/>
<stop offset="1" stop-color="white"/>
</linearGradient>
</defs>
</svg>
