<svg width="26" height="27" viewBox="0 0 26 27" fill="none" xmlns="http://www.w3.org/2000/svg">
<path d="M9.75 23.9305C10.14 23.9305 11.5808 23.2729 13.0542 21.9567M13.0542 21.9567C14.3087 20.8343 15.5848 19.2332 16.25 17.1542C17.6941 12.6367 9.02742 17.1542 11.9167 20.9188C12.272 21.3825 12.6544 21.7205 13.0542 21.9567ZM13.0542 21.9567C14.7897 22.9837 16.8253 22.0607 18.2043 20.999C18.6268 20.6751 18.837 20.5126 18.9627 20.5635C19.0883 20.6144 19.162 20.9037 19.3093 21.4843C19.7795 23.3422 21.1694 24.8416 22.75 22.4247" stroke="#959595" stroke-width="1.625" stroke-linecap="round" stroke-linejoin="round"/>
<path d="M21.6667 14.1805V8.64466C21.6667 6.78782 21.6667 5.86049 21.3763 5.11841C20.9105 3.92566 19.9225 2.98424 18.6713 2.54007C17.8934 2.26382 16.9184 2.26382 14.9695 2.26382C11.5592 2.26382 9.854 2.26382 8.49117 2.74807C6.30283 3.52591 4.57492 5.17149 3.757 7.25907C3.25 8.55691 3.25 10.1819 3.25 13.4319V16.2237C3.25 19.5907 3.25 21.2731 4.16867 22.442C4.433 22.7793 4.74175 23.0739 5.09492 23.326C5.4925 23.6087 5.9475 23.8005 6.5 23.9305" stroke="#959595" stroke-width="1.625" stroke-linecap="round" stroke-linejoin="round"/>
<path d="M3.25 13.0972C3.25 12.1395 3.63042 11.2211 4.30756 10.544C4.98471 9.86683 5.90312 9.48641 6.86075 9.48641C7.58225 9.48641 8.43267 9.61207 9.13358 9.42466C9.43985 9.34223 9.71907 9.18075 9.94324 8.95638C10.1674 8.73202 10.3287 8.45266 10.4108 8.14632C10.5982 7.44541 10.4726 6.59499 10.4726 5.87349C10.4729 4.91605 10.8534 3.99792 11.5305 3.32101C12.2076 2.64409 13.1259 2.26382 14.0833 2.26382" stroke="#959595" stroke-width="1.625" stroke-linecap="round" stroke-linejoin="round"/>
</svg>
