<svg width="26" height="25" viewBox="0 0 26 25" fill="none" xmlns="http://www.w3.org/2000/svg">
<path d="M22.0608 19.1417H4.87327C4.29797 19.1417 3.8316 19.608 3.8316 20.1833V21.225C3.8316 21.8003 4.29797 22.2667 4.87327 22.2667H22.0608C22.6361 22.2667 23.1024 21.8003 23.1024 21.225V20.1833C23.1024 19.608 22.6361 19.1417 22.0608 19.1417Z" stroke="#2563EB" stroke-width="1.625" stroke-linecap="round" stroke-linejoin="round"/>
<path d="M6.43577 10.2854V19.15M20.4983 10.2854V19.15M16.0712 10.2854V19.15M10.8629 10.2854V19.15M12.467 3.28125L4.37327 7.70833C4.20935 7.79802 4.07257 7.93016 3.97727 8.09089C3.88197 8.25161 3.83165 8.43502 3.8316 8.62187V9.66042C3.8316 9.82618 3.89745 9.98515 4.01466 10.1024C4.13187 10.2196 4.29084 10.2854 4.4566 10.2854H22.4774C22.6432 10.2854 22.8022 10.2196 22.9194 10.1024C23.0366 9.98515 23.1024 9.82618 23.1024 9.66042V8.62187C23.1024 8.43502 23.0521 8.25161 22.9568 8.09089C22.8615 7.93016 22.7247 7.79802 22.5608 7.70833L14.467 3.28125C14.1604 3.11349 13.8165 3.02556 13.467 3.02556C13.1175 3.02556 12.7736 3.11349 12.467 3.28125Z" stroke="#2563EB" stroke-width="1.625" stroke-linecap="round" stroke-linejoin="round"/>
</svg>
