<svg width="27" height="28" viewBox="0 0 27 28" fill="none" xmlns="http://www.w3.org/2000/svg">
<path d="M22.9163 19.8893L20.6719 16.2105V10.9961C20.7517 9.6097 20.4375 8.22897 19.7656 7.01359C19.0937 5.79821 18.0916 4.7978 16.875 4.12802C16.8913 3.91458 16.8913 3.70021 16.875 3.48677C16.8619 3.05679 16.7642 2.63361 16.5875 2.24141C16.4107 1.84921 16.1584 1.4957 15.845 1.20106C15.5316 0.906428 15.1631 0.676458 14.7608 0.524296C14.3584 0.372135 13.93 0.300766 13.5 0.31427C13.07 0.300766 12.6416 0.372135 12.2393 0.524296C11.8369 0.676458 11.4685 0.906428 11.155 1.20106C10.8416 1.4957 10.5893 1.84921 10.4126 2.24141C10.2358 2.63361 10.1381 3.05679 10.125 3.48677C10.0995 3.69976 10.0995 3.91503 10.125 4.12802C8.90846 4.7978 7.90631 5.79821 7.23442 7.01359C6.56252 8.22897 6.24832 9.6097 6.32814 10.9961V16.2105L4.08377 19.8893C3.88962 20.2082 3.78359 20.5729 3.7765 20.9461C3.76941 21.3194 3.86152 21.6878 4.04341 22.0139C4.22529 22.3399 4.49045 22.6118 4.81181 22.8019C5.13316 22.9919 5.49919 23.0932 5.87252 23.0955H8.85939C8.93746 24.2622 9.4644 25.3534 10.3296 26.14C11.1949 26.9265 12.3312 27.3474 13.5 27.3143C14.6689 27.3474 15.8052 26.9265 16.6704 26.14C17.5356 25.3534 18.0626 24.2622 18.1406 23.0955H21.1275C21.5008 23.0932 21.8669 22.9919 22.1882 22.8019C22.5096 22.6118 22.7747 22.3399 22.9566 22.0139C23.1385 21.6878 23.2306 21.3194 23.2235 20.9461C23.2164 20.5729 23.1104 20.2082 22.9163 19.8893ZM12.2344 3.48677C12.2644 3.17924 12.4137 2.89571 12.6503 2.69698C12.8869 2.49824 13.1919 2.40011 13.5 2.42364C13.8081 2.40011 14.1131 2.49824 14.3497 2.69698C14.5863 2.89571 14.7356 3.17924 14.7656 3.48677C14.3442 3.46038 13.9215 3.46038 13.5 3.48677C13.0786 3.46038 12.6559 3.46038 12.2344 3.48677ZM13.5 25.2049C12.8903 25.2356 12.2913 25.0356 11.8223 24.6447C11.3533 24.2539 11.0486 23.7008 10.9688 23.0955H16.0313C15.9515 23.7008 15.6468 24.2539 15.1778 24.6447C14.7087 25.0356 14.1098 25.2356 13.5 25.2049ZM5.87252 20.9861L8.13377 17.3243L8.43752 16.8011V10.9961C8.43346 9.73237 8.78427 8.49285 9.45002 7.41864C9.90939 6.78907 10.5237 6.2889 11.2332 5.96662C11.9428 5.64435 12.7237 5.51092 13.5 5.57927C14.2764 5.51092 15.0572 5.64435 15.7668 5.96662C16.4764 6.2889 17.0906 6.78907 17.55 7.41864C18.2158 8.49285 18.5666 9.73237 18.5625 10.9961V16.8011L18.8663 17.3243L21.1275 20.9861H5.87252Z" fill="white"/>
</svg>
