<svg width="16" height="15" viewBox="0 0 16 15" fill="none" xmlns="http://www.w3.org/2000/svg">
<path d="M4.72119 6.87494C4.72119 5.10744 4.72119 4.22306 5.27057 3.67431C5.81932 3.12494 6.70369 3.12494 8.47119 3.12494H10.3462C12.1137 3.12494 12.9981 3.12494 13.5468 3.67431C14.0962 4.22306 14.0962 5.10744 14.0962 6.87494V9.99994C14.0962 11.7674 14.0962 12.6518 13.5468 13.2006C12.9981 13.7499 12.1137 13.7499 10.3462 13.7499H8.47119C6.70369 13.7499 5.81932 13.7499 5.27057 13.2006C4.72119 12.6518 4.72119 11.7674 4.72119 9.99994V6.87494Z" stroke="white" stroke-opacity="0.7" stroke-width="1.25"/>
<path d="M4.72119 11.8749C4.22391 11.8749 3.747 11.6774 3.39537 11.3258C3.04374 10.9741 2.84619 10.4972 2.84619 9.99994V6.24994C2.84619 3.89306 2.84619 2.71431 3.57869 1.98244C4.31119 1.25056 5.48932 1.24994 7.84619 1.24994H10.3462C10.8435 1.24994 11.3204 1.44748 11.672 1.79911C12.0236 2.15074 12.2212 2.62766 12.2212 3.12494" stroke="white" stroke-opacity="0.7" stroke-width="1.25"/>
</svg>
