<svg width="555" height="860" viewBox="0 0 555 860" fill="none" xmlns="http://www.w3.org/2000/svg">
<g opacity="0.74" filter="url(#filter0_f_230_2134)">
<g filter="url(#filter1_f_230_2134)">
<ellipse cx="410.297" cy="115.464" rx="410.297" ry="115.464" transform="matrix(-1 0 0 1 449.595 523.404)" fill="#D9D1FF" fill-opacity="0.4"/>
</g>
<g filter="url(#filter2_f_230_2134)">
<path d="M37.5023 793.603C35.9052 794.474 33.9749 794.474 32.3777 793.603L-260.619 633.786H330.499L37.5023 793.603Z" fill="black" fill-opacity="0.47"/>
<path d="M37.5023 473.969C35.9052 473.098 33.9749 473.098 32.3777 473.969L-260.619 633.786H330.499L37.5023 473.969Z" fill="black" fill-opacity="0.47"/>
</g>
<g filter="url(#filter3_f_230_2134)">
<ellipse cx="218.583" cy="217.857" rx="218.583" ry="217.857" transform="matrix(-1 0 0 1 266.594 167.571)" fill="url(#paint0_linear_230_2134)"/>
</g>
<path d="M-61.7808 634.857L34.4097 690.394V579.321L-61.7808 523.786V634.857ZM37.9946 579.321V690.393L134.186 634.857V523.785L37.9946 579.321ZM136.516 523.157V634.229L232.707 578.693V467.622L136.516 523.157ZM-160.301 577.438L-64.1108 632.975V521.903L-160.301 466.367V577.438ZM-258.823 520.334L-162.632 575.87V464.798L-258.823 409.263V520.334ZM235.038 464.798V575.869L331.228 520.334V409.262L235.038 464.798ZM37.9946 464.17V575.242L134.186 519.706V408.635L37.9946 464.17ZM-61.7808 519.706L34.4097 575.241V464.17L-61.7808 408.634V519.706ZM136.516 408.007V519.079L232.707 463.543V352.472L136.516 408.007ZM-160.301 462.288L-64.1108 517.823V406.752L-160.301 351.216V462.288ZM235.038 349.648V460.72L331.228 405.184V294.112L235.038 349.648ZM-258.823 405.184L-162.632 460.72V349.647L-258.823 294.112V405.184ZM37.9946 349.02V460.092L134.186 404.556V293.484L37.9946 349.02ZM-61.7808 404.556L34.4097 460.091V349.02L-61.7808 293.483V404.556ZM136.516 292.856V403.928L232.707 348.393V237.321L136.516 292.856ZM-160.301 347.138L-64.1108 402.674V291.602L-160.301 236.066V347.138ZM-59.4507 290.347L36.7407 345.883L132.931 290.347L36.7407 234.811L-59.4507 290.347ZM235.038 234.497V345.568L331.228 290.033V178.961L235.038 234.497ZM-258.823 290.032L-162.632 345.568V234.497L-258.823 178.961V290.032ZM39.9653 232.615L136.157 288.15L232.347 232.615L136.157 177.079L39.9653 232.615ZM-159.855 231.986L-63.6636 287.522L32.5269 231.986L-63.6636 176.451L-159.855 231.986ZM138.846 174.255L235.038 229.79L331.228 174.255L235.038 118.719L138.846 174.255ZM-60.438 174.255L35.7534 229.79L131.944 174.255L35.7534 118.719L-60.438 174.255ZM-258.375 173.628L-162.185 229.163L-65.9937 173.628L-162.185 118.092L-258.375 173.628ZM38.4429 115.896L134.633 171.432L230.825 115.896L134.633 60.3594L38.4429 115.896ZM-158.959 115.896L-62.7681 171.432L33.4224 115.896L-62.7681 60.3594L-158.959 115.896ZM-60.0786 57.5352L36.1128 113.071L132.303 57.5352L36.1128 2L-60.0786 57.5352Z" fill="white" fill-opacity="0.08"/>
<g style="mix-blend-mode:color-dodge" opacity="0.5">
<path d="M132.005 525.392C132.005 524.505 131.382 524.146 130.614 524.589L37.2039 578.52C36.4363 578.963 35.8134 580.041 35.8133 580.927V688.789C35.8133 689.675 36.4362 690.034 37.2039 689.591L130.614 635.661C131.382 635.217 132.005 634.139 132.005 633.252V525.392ZM-62.5715 524.588C-63.3391 524.145 -63.9619 524.505 -63.9621 525.391V633.252C-63.9621 634.139 -63.3393 635.217 -62.5715 635.661L30.8387 689.591C31.6063 690.034 32.2282 689.675 32.2283 688.789V580.927C32.2283 580.041 31.6064 578.962 30.8387 578.519L-62.5715 524.588ZM230.527 469.227C230.527 468.341 229.904 467.982 229.137 468.425L135.726 522.355C134.959 522.798 134.336 523.877 134.336 524.763V632.624C134.336 633.511 134.959 633.87 135.726 633.427L229.137 579.497C229.904 579.053 230.527 577.975 230.527 577.088V469.227ZM-161.093 467.17C-161.861 466.727 -162.484 467.087 -162.484 467.973V575.833C-162.484 576.72 -161.861 577.798 -161.093 578.242L-67.6828 632.172C-66.9151 632.615 -66.2932 632.256 -66.2932 631.37V523.508C-66.2933 522.622 -66.9153 521.544 -67.6828 521.101L-161.093 467.17ZM-259.614 410.066C-260.382 409.623 -261.004 409.982 -261.004 410.869V518.73C-261.004 519.616 -260.382 520.694 -259.614 521.137L-166.203 575.068C-165.436 575.511 -164.814 575.152 -164.814 574.265V466.405C-164.814 465.518 -165.436 464.44 -166.203 463.997L-259.614 410.066ZM329.047 410.869C329.047 409.982 328.425 409.623 327.657 410.066L234.246 463.997C233.478 464.44 232.856 465.517 232.856 466.404V574.265C232.856 575.152 233.478 575.511 234.246 575.068L327.657 521.137C328.425 520.694 329.046 519.616 329.047 518.73V410.869ZM132.005 410.24C132.004 409.353 131.382 408.995 130.614 409.438L37.2039 463.368C36.4362 463.811 35.8134 464.889 35.8133 465.776V573.637C35.8134 574.524 36.4362 574.883 37.2039 574.44L130.614 520.509C131.382 520.066 132.005 518.988 132.005 518.101V410.24ZM-62.5715 409.438C-63.3393 408.995 -63.9621 409.354 -63.9621 410.241V518.101C-63.9621 518.988 -63.3393 520.066 -62.5715 520.509L30.8387 574.44C31.6064 574.883 32.2283 574.524 32.2283 573.637V465.776C32.2281 464.889 31.6063 463.812 30.8387 463.369L-62.5715 409.438ZM230.527 354.077C230.527 353.19 229.904 352.831 229.137 353.274L135.726 407.205C134.959 407.648 134.336 408.726 134.336 409.613V517.474C134.336 518.36 134.959 518.72 135.726 518.277L229.137 464.346C229.904 463.903 230.527 462.824 230.527 461.938V354.077ZM-161.093 352.02C-161.861 351.577 -162.484 351.936 -162.484 352.823V460.683C-162.484 461.57 -161.861 462.648 -161.093 463.091L-67.6828 517.022C-66.9151 517.465 -66.2932 517.106 -66.2932 516.219V408.358C-66.2933 407.471 -66.9153 406.394 -67.6828 405.951L-161.093 352.02ZM329.047 295.717C329.047 294.831 328.425 294.472 327.657 294.914L234.246 348.845C233.478 349.288 232.856 350.367 232.856 351.253V459.115C232.856 460.001 233.478 460.36 234.246 459.916L327.657 405.987C328.425 405.543 329.047 404.465 329.047 403.579V295.717ZM-259.614 294.914C-260.382 294.471 -261.004 294.831 -261.004 295.717V403.579C-261.004 404.465 -260.382 405.542 -259.614 405.986L-166.203 459.916C-165.436 460.359 -164.814 460 -164.814 459.114V351.253C-164.814 350.367 -165.436 349.289 -166.203 348.845L-259.614 294.914ZM132.005 295.089C132.005 294.203 131.382 293.844 130.614 294.288L37.2039 348.217C36.4362 348.66 35.8133 349.739 35.8133 350.625V458.487C35.8134 459.373 36.4362 459.733 37.2039 459.289L130.614 405.359C131.382 404.916 132.005 403.837 132.005 402.951V295.089ZM-62.5715 294.288C-63.3393 293.844 -63.9621 294.204 -63.9621 295.09V402.951C-63.9621 403.837 -63.3393 404.916 -62.5715 405.359L30.8387 459.289C31.6064 459.733 32.2283 459.373 32.2283 458.487V350.625C32.2282 349.739 31.6063 348.662 30.8387 348.218L-62.5715 294.288ZM230.527 238.927C230.527 238.041 229.904 237.681 229.137 238.124L135.726 292.055C134.959 292.498 134.336 293.577 134.336 294.463V402.324C134.336 403.21 134.959 403.57 135.726 403.126L229.137 349.196C229.904 348.753 230.527 347.675 230.527 346.789V238.927ZM-161.093 236.87C-161.861 236.426 -162.484 236.786 -162.484 237.672V345.534C-162.484 346.42 -161.861 347.499 -161.093 347.942L-67.6828 401.872C-66.9151 402.315 -66.2934 401.956 -66.2932 401.07V293.208C-66.2932 292.322 -66.915 291.244 -67.6828 290.8L-161.093 236.87ZM35.95 235.614C35.1822 235.17 33.9366 235.17 33.1688 235.614L-60.2414 289.544C-61.0091 289.988 -61.0091 290.707 -60.2414 291.15L33.1688 345.081C33.9366 345.524 35.1822 345.524 35.95 345.081L129.36 291.15C130.128 290.707 130.128 289.988 129.36 289.544L35.95 235.614ZM329.047 180.567C329.047 179.68 328.425 179.321 327.657 179.764L234.246 233.695C233.478 234.138 232.856 235.216 232.856 236.103V343.964C232.856 344.85 233.478 345.209 234.246 344.766L327.657 290.836C328.425 290.393 329.047 289.315 329.047 288.428V180.567ZM-259.614 179.764C-260.382 179.321 -261.004 179.68 -261.004 180.567V288.428C-261.004 289.315 -260.382 290.392 -259.614 290.835L-166.203 344.766C-165.436 345.209 -164.814 344.85 -164.814 343.963V236.102C-164.814 235.216 -165.436 234.138 -166.203 233.695L-259.614 179.764ZM135.365 177.882C134.597 177.439 133.353 177.439 132.585 177.882L39.1746 231.813C38.4069 232.256 38.4069 232.974 39.1746 233.417L132.585 287.348C133.353 287.791 134.597 287.791 135.365 287.348L228.776 233.417C229.543 232.974 229.543 232.256 228.776 231.813L135.365 177.882ZM-64.4543 177.255C-65.2221 176.812 -66.4668 176.812 -67.2346 177.255L-160.645 231.185C-161.413 231.628 -161.413 232.347 -160.645 232.79L-67.2346 286.721C-66.4668 287.164 -65.2221 287.164 -64.4543 286.721L28.9559 232.79C29.7237 232.347 29.7237 231.628 28.9559 231.185L-64.4543 177.255ZM234.246 119.522C233.478 119.079 232.233 119.079 231.466 119.522L138.055 173.453C137.288 173.896 137.288 174.615 138.055 175.058L231.466 228.989C232.233 229.432 233.478 229.432 234.246 228.989L327.657 175.058C328.425 174.615 328.424 173.896 327.657 173.453L234.246 119.522ZM34.9627 119.522C34.1949 119.079 32.9492 119.079 32.1815 119.522L-61.2287 173.453C-61.9963 173.896 -61.9964 174.615 -61.2287 175.058L32.1815 228.989C32.9492 229.432 34.1949 229.432 34.9627 228.989L128.373 175.058C129.141 174.615 129.141 173.896 128.373 173.453L34.9627 119.522ZM-162.976 118.895C-163.744 118.452 -164.988 118.452 -165.756 118.895L-259.166 172.826C-259.934 173.269 -259.934 173.987 -259.166 174.43L-165.756 228.361C-164.988 228.804 -163.744 228.804 -162.976 228.361L-69.5656 174.43C-68.7978 173.987 -68.7978 173.269 -69.5656 172.826L-162.976 118.895ZM133.843 61.1625C133.075 60.7193 131.83 60.7193 131.062 61.1625L37.6512 115.093C36.884 115.536 36.8841 116.254 37.6512 116.698L131.062 170.628C131.83 171.072 133.075 171.072 133.843 170.628L227.253 116.698C228.02 116.254 228.02 115.536 227.253 115.093L133.843 61.1625ZM-63.5588 61.1625C-64.3266 60.7193 -65.5713 60.7193 -66.3391 61.1625L-159.749 115.093C-160.517 115.536 -160.517 116.254 -159.749 116.698L-66.3391 170.628C-65.5713 171.072 -64.3266 171.072 -63.5588 170.628L29.8524 116.698C30.6195 116.254 30.6196 115.536 29.8524 115.093L-63.5588 61.1625ZM35.3221 2.80316C34.5543 2.35988 33.3086 2.35988 32.5408 2.80316L-60.8693 56.7338C-61.637 57.1771 -61.637 57.896 -60.8693 58.3393L32.5408 112.27C33.3086 112.713 34.5543 112.713 35.3221 112.27L128.732 58.3393C129.5 57.896 129.5 57.1771 128.732 56.7338L35.3221 2.80316Z" fill="white" fill-opacity="0.08"/>
</g>
</g>
<defs>
<filter id="filter0_f_230_2134" x="-372.582" y="0.418519" width="823.758" height="796.163" filterUnits="userSpaceOnUse" color-interpolation-filters="sRGB">
<feFlood flood-opacity="0" result="BackgroundImageFix"/>
<feBlend mode="normal" in="SourceGraphic" in2="BackgroundImageFix" result="shape"/>
<feGaussianBlur stdDeviation="0.79074" result="effect1_foregroundBlur_230_2134"/>
</filter>
<filter id="filter1_f_230_2134" x="-476.412" y="417.992" width="1031.42" height="441.753" filterUnits="userSpaceOnUse" color-interpolation-filters="sRGB">
<feFlood flood-opacity="0" result="BackgroundImageFix"/>
<feBlend mode="normal" in="SourceGraphic" in2="BackgroundImageFix" result="shape"/>
<feGaussianBlur stdDeviation="52.7061" result="effect1_foregroundBlur_230_2134"/>
</filter>
<filter id="filter2_f_230_2134" x="-267.789" y="466.146" width="605.459" height="335.28" filterUnits="userSpaceOnUse" color-interpolation-filters="sRGB">
<feFlood flood-opacity="0" result="BackgroundImageFix"/>
<feBlend mode="normal" in="SourceGraphic" in2="BackgroundImageFix" result="shape"/>
<feGaussianBlur stdDeviation="3.58509" result="effect1_foregroundBlur_230_2134"/>
</filter>
<filter id="filter3_f_230_2134" x="-333.774" y="4.36963" width="763.57" height="762.117" filterUnits="userSpaceOnUse" color-interpolation-filters="sRGB">
<feFlood flood-opacity="0" result="BackgroundImageFix"/>
<feBlend mode="normal" in="SourceGraphic" in2="BackgroundImageFix" result="shape"/>
<feGaussianBlur stdDeviation="81.6008" result="effect1_foregroundBlur_230_2134"/>
</filter>
<linearGradient id="paint0_linear_230_2134" x1="109.292" y1="38.0594" x2="354.398" y2="404.971" gradientUnits="userSpaceOnUse">
<stop stop-color="#838383" stop-opacity="0.7"/>
<stop offset="0.701923" stop-color="#383838" stop-opacity="0.7"/>
<stop offset="1" stop-opacity="0.7"/>
</linearGradient>
</defs>
</svg>
