<svg width="19" height="19" viewBox="0 0 19 19" fill="none" xmlns="http://www.w3.org/2000/svg">
<path d="M11.021 9.716C11.021 9.93851 10.955 10.156 10.8314 10.341C10.7078 10.526 10.5321 10.6702 10.3265 10.7554C10.1209 10.8405 9.89475 10.8628 9.67652 10.8194C9.45829 10.776 9.25784 10.6688 9.1005 10.5115C8.94317 10.3542 8.83602 10.1537 8.79261 9.93548C8.7492 9.71725 8.77148 9.49105 8.85663 9.28548C8.94178 9.07992 9.08598 8.90422 9.27098 8.7806C9.45599 8.65698 9.67349 8.591 9.896 8.591C10.1944 8.591 10.4805 8.70953 10.6915 8.92051C10.9025 9.13149 11.021 9.41763 11.021 9.716ZM5.11475 8.591C4.89224 8.591 4.67474 8.65698 4.48973 8.7806C4.30472 8.90422 4.16053 9.07992 4.07538 9.28548C3.99023 9.49105 3.96795 9.71725 4.01136 9.93548C4.05477 10.1537 4.16192 10.3542 4.31925 10.5115C4.47659 10.6688 4.67704 10.776 4.89527 10.8194C5.1135 10.8628 5.3397 10.8405 5.54527 10.7554C5.75083 10.6702 5.92653 10.526 6.05015 10.341C6.17377 10.156 6.23975 9.93851 6.23975 9.716C6.23975 9.41763 6.12122 9.13149 5.91024 8.92051C5.69926 8.70953 5.41312 8.591 5.11475 8.591ZM14.6772 8.591C14.4547 8.591 14.2372 8.65698 14.0522 8.7806C13.8672 8.90422 13.723 9.07992 13.6379 9.28548C13.5527 9.49105 13.5305 9.71725 13.5739 9.93548C13.6173 10.1537 13.7244 10.3542 13.8818 10.5115C14.0391 10.6688 14.2395 10.776 14.4578 10.8194C14.676 10.8628 14.9022 10.8405 15.1078 10.7554C15.3133 10.6702 15.489 10.526 15.6126 10.341C15.7363 10.156 15.8022 9.93851 15.8022 9.716C15.8022 9.41763 15.6837 9.13149 15.4727 8.92051C15.2618 8.70953 14.9756 8.591 14.6772 8.591Z" fill="white" fill-opacity="0.7"/>
</svg>
