<svg width="16" height="15" viewBox="0 0 16 15" fill="none" xmlns="http://www.w3.org/2000/svg">
<path d="M10.271 7.5C10.271 7.99728 10.0735 8.47419 9.72182 8.82583C9.37019 9.17746 8.89328 9.375 8.396 9.375C7.89872 9.375 7.4218 9.17746 7.07017 8.82583C6.71854 8.47419 6.521 7.99728 6.521 7.5C6.521 7.00272 6.71854 6.52581 7.07017 6.17417C7.4218 5.82254 7.89872 5.625 8.396 5.625C8.89328 5.625 9.37019 5.82254 9.72182 6.17417C10.0735 6.52581 10.271 7.00272 10.271 7.5Z" stroke="white" stroke-opacity="0.7" stroke-width="1.25" stroke-linecap="round" stroke-linejoin="round"/>
<path d="M2.146 7.5C3.146 4.93937 5.481 3.125 8.396 3.125C11.311 3.125 13.646 4.93937 14.646 7.5C13.646 10.0606 11.311 11.875 8.396 11.875C5.481 11.875 3.146 10.0606 2.146 7.5Z" stroke="white" stroke-opacity="0.7" stroke-width="1.25" stroke-linecap="round" stroke-linejoin="round"/>
</svg>
