<svg width="26" height="25" viewBox="0 0 26 25" fill="none" xmlns="http://www.w3.org/2000/svg">
<path d="M2.61743 21.125L12.6174 11.125L11.1591 9.64584L10.4091 10.3854C10.3127 10.482 10.1983 10.5586 10.0722 10.6109C9.94623 10.6631 9.81115 10.69 9.67472 10.69C9.5383 10.69 9.40321 10.6631 9.2772 10.6109C9.15118 10.5586 9.03672 10.482 8.94035 10.3854L8.20077 9.64584C8.1042 9.54947 8.02759 9.435 7.97531 9.30899C7.92304 9.18297 7.89614 9.04789 7.89614 8.91146C7.89614 8.77504 7.92304 8.63995 7.97531 8.51394C8.02759 8.38792 8.1042 8.27346 8.20077 8.17709L14.0966 2.28125C14.193 2.18469 14.3074 2.10807 14.4334 2.0558C14.5595 2.00353 14.6945 1.97662 14.831 1.97662C14.9674 1.97662 15.1025 2.00353 15.2285 2.0558C15.3545 2.10807 15.469 2.18469 15.5653 2.28125L16.3049 3.02084C16.7112 3.42709 16.7112 4.08334 16.3049 4.48959L15.5653 5.20834L17.0445 6.69792C17.1409 6.60135 17.2554 6.52474 17.3814 6.47247C17.5074 6.4202 17.6425 6.39329 17.7789 6.39329C17.9153 6.39329 18.0504 6.4202 18.1764 6.47247C18.3024 6.52474 18.4169 6.60135 18.5133 6.69792C18.9195 7.10417 18.9195 7.77084 18.5133 8.17709L19.982 9.64584L20.7216 8.90625C21.1278 8.5 21.7945 8.5 22.2008 8.90625L22.9299 9.64584C23.3362 10.0521 23.3362 10.7188 22.9299 11.125L17.0445 17.0104C16.6383 17.4167 15.9716 17.4167 15.5653 17.0104L14.8362 16.2813C14.7373 16.1851 14.6586 16.0702 14.605 15.9431C14.5513 15.8161 14.5236 15.6796 14.5236 15.5417C14.5236 15.4038 14.5513 15.2672 14.605 15.1402C14.6586 15.0132 14.7373 14.8982 14.8362 14.8021L15.5653 14.0625L14.0966 12.5938L4.08618 22.6042C3.98981 22.7007 3.87535 22.7773 3.74933 22.8296C3.62332 22.8819 3.48823 22.9088 3.35181 22.9088C3.21538 22.9088 3.0803 22.8819 2.95428 22.8296C2.82827 22.7773 2.7138 22.7007 2.61743 22.6042C2.21118 22.1979 2.21118 21.5313 2.61743 21.125ZM21.0549 19.7917C21.6075 19.7917 22.1374 20.0112 22.5281 20.4019C22.9188 20.7926 23.1383 21.3225 23.1383 21.875V22.9167H12.7216V21.875C12.7216 21.3225 12.9411 20.7926 13.3318 20.4019C13.7225 20.0112 14.2524 19.7917 14.8049 19.7917H21.0549Z" fill="#FE0C10"/>
</svg>
