<svg width="26" height="26" viewBox="0 0 26 26" fill="none" xmlns="http://www.w3.org/2000/svg">
<path fill-rule="evenodd" clip-rule="evenodd" d="M16.3694 4.7066H8.96942C8.59442 4.7066 8.40692 4.99035 8.43442 5.2316C8.57692 6.47285 8.84442 7.89785 9.29192 8.8091C9.88817 10.0254 11.3269 11.3916 12.4132 12.2954C12.4839 12.3578 12.5751 12.3922 12.6694 12.3922C12.7638 12.3922 12.8549 12.3578 12.9257 12.2954C14.0132 11.3916 15.4507 10.0254 16.0469 8.80785C16.4944 7.89785 16.7619 6.47285 16.9057 5.2316C16.9332 4.99035 16.7444 4.7066 16.3707 4.7066M8.96942 3.4566C7.91442 3.4566 7.07067 4.3266 7.19192 5.3741C7.33692 6.63035 7.62067 8.2416 8.16942 9.3591C8.89567 10.8391 10.5294 12.3541 11.6144 13.2566C12.2319 13.7691 13.1069 13.7691 13.7244 13.2566C14.8094 12.3541 16.4432 10.8391 17.1694 9.3591C17.7182 8.2416 18.0019 6.63035 18.1469 5.3741C18.2682 4.3266 17.4244 3.4566 16.3694 3.4566H8.96942Z" fill="#F0A327"/>
<path fill-rule="evenodd" clip-rule="evenodd" d="M8.96943 22.2066H16.3694C16.7444 22.2066 16.9319 21.9229 16.9044 21.6816C16.7619 20.4404 16.4944 19.0154 16.0469 18.1054C15.4507 16.8879 14.0119 15.5216 12.9257 14.6179C12.8549 14.5555 12.7638 14.521 12.6694 14.521C12.5751 14.521 12.484 14.5555 12.4132 14.6179C11.3257 15.5216 9.88818 16.8879 9.29193 18.1054C8.84443 19.0154 8.57693 20.4404 8.43318 21.6829C8.40568 21.9229 8.59568 22.2066 8.96943 22.2066ZM16.3682 23.4566C17.4232 23.4566 18.2669 22.5866 18.1457 21.5391C18.0007 20.2816 17.7169 18.6716 17.1682 17.5541C16.4419 16.0741 14.8082 14.5591 13.7232 13.6566C13.4279 13.4079 13.0543 13.2715 12.6682 13.2715C12.2821 13.2715 11.9085 13.4079 11.6132 13.6566C10.5282 14.5591 8.89443 16.0741 8.16818 17.5541C7.61943 18.6716 7.33568 20.2816 7.19068 21.5391C7.07068 22.5866 7.91443 23.4566 8.96943 23.4566H16.3682ZM5.16943 4.0816C5.16943 3.91584 5.23528 3.75687 5.35249 3.63966C5.4697 3.52245 5.62867 3.4566 5.79443 3.4566H19.5444C19.7102 3.4566 19.8692 3.52245 19.9864 3.63966C20.1036 3.75687 20.1694 3.91584 20.1694 4.0816C20.1694 4.24736 20.1036 4.40634 19.9864 4.52355C19.8692 4.64076 19.7102 4.7066 19.5444 4.7066H5.79443C5.62867 4.7066 5.4697 4.64076 5.35249 4.52355C5.23528 4.40634 5.16943 4.24736 5.16943 4.0816Z" fill="#F0A327"/>
<path fill-rule="evenodd" clip-rule="evenodd" d="M5.16943 22.8316C5.16943 22.6658 5.23528 22.5069 5.35249 22.3897C5.4697 22.2725 5.62867 22.2066 5.79443 22.2066H19.5444C19.7102 22.2066 19.8692 22.2725 19.9864 22.3897C20.1036 22.5069 20.1694 22.6658 20.1694 22.8316C20.1694 22.9974 20.1036 23.1563 19.9864 23.2735C19.8692 23.3908 19.7102 23.4566 19.5444 23.4566H5.79443C5.62867 23.4566 5.4697 23.3908 5.35249 23.2735C5.23528 23.1563 5.16943 22.9974 5.16943 22.8316Z" fill="#F0A327"/>
</svg>
