<svg width="146" height="145" viewBox="0 0 146 145" fill="none" xmlns="http://www.w3.org/2000/svg">
<path d="M132.699 0H103.467C90.7459 0 91.5953 15.2364 83.3254 15.2364H31.757C25.0624 15.2364 19.6083 20.5172 19.3489 27.1549H110.882C117.519 27.1549 123.492 31.3387 125.772 37.5433L145.135 87.4379L145.134 12.468C145.135 5.60004 139.566 0.00178607 132.696 0.00178607L132.699 0Z" fill="url(#paint0_linear_386_836)"/>
<path d="M120.35 39.5355C118.908 35.5823 115.098 32.927 110.886 32.927L10.9239 32.9282C7.69168 32.9282 4.7484 34.429 2.81451 37.0259C0.909958 39.6227 0.361961 42.8839 1.34276 46.0297L19.4075 100.252C20.7059 104.465 24.6594 107.379 29.0165 107.379H70.1366V119.557C65.5201 120.625 61.8831 124.261 60.8162 128.878H20.1875C18.6006 128.878 17.3022 130.176 17.3022 131.763C17.3022 133.35 18.6006 134.648 20.1875 134.648H60.8192C62.1165 140.161 67.1088 144.287 73.0248 144.287C78.9409 144.287 83.9041 140.161 85.2027 134.649H125.831C127.418 134.649 128.717 133.351 128.717 131.764C128.717 130.177 127.418 128.879 125.831 128.879L85.2027 128.878C84.1347 124.26 80.4989 120.653 75.9115 119.557V107.379H132.01C135.646 107.379 138.763 105.908 140.58 103.34C142.369 100.743 142.716 97.3086 141.446 93.817L120.35 39.5355Z" fill="url(#paint1_linear_386_836)"/>
<defs>
<linearGradient id="paint0_linear_386_836" x1="19.9025" y1="-2.1343e-06" x2="93.8519" y2="113.194" gradientUnits="userSpaceOnUse">
<stop offset="0.00744247" stop-color="#E9E9E9"/>
<stop offset="0.337863" stop-color="#C7C7C7"/>
<stop offset="0.68233" stop-color="#545454"/>
<stop offset="1" stop-color="#A9A9A9"/>
</linearGradient>
<linearGradient id="paint1_linear_386_836" x1="1.48711" y1="32.927" x2="99.8588" y2="165.777" gradientUnits="userSpaceOnUse">
<stop offset="0.00744247" stop-color="#E9E9E9"/>
<stop offset="0.337863" stop-color="#C7C7C7"/>
<stop offset="0.68233" stop-color="#545454"/>
<stop offset="1" stop-color="#A9A9A9"/>
</linearGradient>
</defs>
</svg>
