<svg width="87" height="76" viewBox="0 0 87 76" fill="none" xmlns="http://www.w3.org/2000/svg">
<g clip-path="url(#clip0_60_1636)" filter="url(#filter0_i_60_1636)">
<mask id="mask0_60_1636" style="mask-type:luminance" maskUnits="userSpaceOnUse" x="0" y="0" width="87" height="76">
<path d="M83.2101 0L0 4.38998L3.74676 75.4082L86.9568 71.0182L83.2101 0Z" fill="white"/>
</mask>
<g mask="url(#mask0_60_1636)">
<path d="M92.4931 98.3788C92.508 98.6628 92.2899 98.9052 92.0059 98.9202L2.06081 103.665C1.7768 103.68 1.53441 103.462 1.51942 103.178L-5.25021 -25.137C-5.2652 -25.421 -5.0471 -25.6634 -4.76309 -25.6783L85.182 -30.4237C85.466 -30.4386 85.7084 -30.2205 85.7234 -29.9365L92.4931 98.3788ZM86.2012 90.4648C86.1531 90.4428 86.0941 90.4546 86.0704 90.502C86.0321 90.5785 86.0224 90.663 86.004 90.7544C85.9993 90.7779 85.9947 90.8021 85.9893 90.8264C85.8817 91.3341 85.583 91.7877 85.2508 92.1684C84.9518 92.5016 84.6111 92.7785 84.2071 92.9563C84.1897 92.9639 84.1787 92.9815 84.1797 93.0005C84.2638 93.0148 84.348 93.0297 84.4339 93.0452C84.4488 93.0478 84.4641 93.0449 84.4771 93.0372C84.4815 93.0346 84.4851 93.0324 84.4889 93.0302C84.5052 93.0207 84.5255 93.0228 84.5392 93.0357C84.5598 93.0551 84.5937 93.0505 84.6078 93.026C84.6102 93.0219 84.6126 93.0177 84.615 93.0136C84.6275 92.9918 84.6533 92.9813 84.6775 92.9882C84.6831 92.9898 84.6883 92.9914 84.6945 92.9932C84.7165 92.9995 84.7402 92.9958 84.7592 92.983C84.811 92.9482 84.8632 92.9136 84.9163 92.8782C84.9281 92.8703 84.9349 92.8567 84.9342 92.8425L84.9337 92.8327C84.9328 92.8158 84.9458 92.8014 84.9627 92.8005C84.9795 92.7997 84.9939 92.8125 84.9948 92.8293C84.9957 92.847 85.0116 92.8602 85.0291 92.8577C85.062 92.8531 85.0946 92.8482 85.1277 92.8433C85.1636 92.8386 85.1636 92.8379 85.2002 92.8331C85.2718 92.8202 85.2773 92.8192 85.3415 92.7617C85.3511 92.7531 85.3563 92.7405 85.3556 92.7276L85.355 92.7153C85.3541 92.6984 85.3671 92.684 85.384 92.6831C85.4008 92.6822 85.4138 92.6678 85.4129 92.6509L85.4128 92.6491C85.4119 92.6324 85.4247 92.6182 85.4414 92.6173C85.4581 92.6165 85.4723 92.6293 85.4732 92.6459L85.4753 92.6854C85.476 92.6989 85.4876 92.7094 85.5012 92.7087C85.5241 92.7075 85.5361 92.7355 85.5192 92.7511C85.4944 92.7742 85.4694 92.7972 85.4438 92.8205C85.4306 92.8327 85.4234 92.8501 85.4244 92.8681C85.4255 92.8897 85.4381 92.9091 85.4576 92.9184C85.5118 92.9442 85.5492 92.9559 85.6107 92.956C85.6282 92.956 85.6431 92.9692 85.644 92.9867C85.6449 93.0042 85.6315 93.0191 85.6141 93.02L85.516 93.0252C85.5015 93.0259 85.4875 93.0206 85.4769 93.0107C85.4671 93.0015 85.461 92.9888 85.4603 92.9754L85.4602 92.9744C85.459 92.95 85.4415 92.9296 85.4176 92.9246C85.3789 92.9167 85.3435 92.9507 85.3522 92.9892C85.3652 93.0468 85.3799 93.1026 85.3996 93.1592C85.4064 93.1788 85.4104 93.1993 85.4099 93.2201C85.4083 93.2904 85.4013 93.3599 85.3946 93.4307C85.3939 93.438 85.388 93.4437 85.3806 93.4441C85.3715 93.4446 85.3641 93.4368 85.3651 93.4277C85.3694 93.388 85.3735 93.3481 85.3777 93.3079C85.3806 93.2794 85.3575 93.2549 85.3289 93.2565C85.3073 93.2576 85.2894 93.2734 85.2855 93.2947C85.2839 93.3038 85.2825 93.3112 85.2812 93.3185C85.2741 93.3572 85.2388 93.3842 85.1995 93.3812C85.1475 93.3771 85.0951 93.3731 85.0416 93.3691C85.0318 93.3684 85.0236 93.3764 85.0241 93.3862L85.0251 93.405C85.0259 93.4203 85.0039 93.4251 84.9984 93.4107C84.9962 93.405 84.9905 93.4015 84.9844 93.402C84.9605 93.4044 84.9359 93.4064 84.9109 93.4089C84.8223 93.4099 84.7838 93.397 84.7141 93.3662C84.6959 93.3581 84.6761 93.3537 84.6561 93.3537C84.6018 93.3535 84.5854 93.3541 84.5417 93.359C84.5212 93.3613 84.5029 93.346 84.5018 93.3255C84.501 93.3103 84.4907 93.2973 84.4761 93.2933C84.4247 93.2795 84.3743 93.2692 84.3226 93.2605C84.2818 93.2535 84.2414 93.2745 84.2226 93.3114C84.2157 93.325 84.2087 93.3386 84.2018 93.3522C84.1857 93.3839 84.2021 93.422 84.2358 93.4333C84.4765 93.5165 84.692 93.6264 84.9136 93.7536C84.9783 93.7896 85.0418 93.823 85.1082 93.8533C85.1283 93.8624 85.1418 93.8817 85.143 93.9037C85.1439 93.9206 85.1522 93.9363 85.1658 93.9464C85.1733 93.952 85.1807 93.9576 85.1882 93.9633C85.7121 94.3743 86.0384 94.864 86.2949 95.4851C86.3156 95.5371 86.3357 95.5891 86.3549 95.6411C86.3622 95.6609 86.3759 95.6777 86.3939 95.6888C86.3991 95.692 86.4036 95.6949 86.408 95.6975C86.4384 95.7164 86.4779 95.7104 86.5013 95.6834C86.5124 95.6706 86.5189 95.6545 86.5195 95.6376C86.523 95.5501 86.527 95.462 86.5315 95.3725C86.5322 95.3576 86.5441 95.3457 86.559 95.3449C86.5769 95.344 86.5897 95.3272 86.5859 95.3097C86.5791 95.2781 86.5724 95.2464 86.5656 95.2144C86.5617 95.196 86.537 95.1937 86.5298 95.2111C86.5275 95.2165 86.5227 95.2206 86.517 95.2222C86.5056 95.2252 86.4942 95.2282 86.4827 95.2312C86.4269 95.246 86.3717 95.2056 86.3687 95.1479L86.3643 95.0636C86.3635 95.0495 86.3514 95.0386 86.3373 95.0393C86.3198 95.0403 86.3066 95.0238 86.3112 95.0069C86.3135 94.9985 86.3158 94.99 86.3182 94.9814C86.3238 94.9606 86.3135 94.9387 86.2939 94.9297C86.2914 94.9286 86.2889 94.9275 86.2865 94.9264C86.2728 94.9203 86.262 94.909 86.2571 94.8948C86.2361 94.8338 86.2281 94.7902 86.2376 94.7203C86.2404 94.7099 86.2431 94.6994 86.2457 94.6889C86.2498 94.6728 86.2473 94.6558 86.2393 94.6412C86.2379 94.6386 86.2365 94.6361 86.2352 94.6336C86.2248 94.6147 86.2045 94.6036 86.183 94.6047C86.152 94.6063 86.1255 94.5825 86.1238 94.5514L86.122 94.5173C86.1208 94.4941 86.1107 94.4721 86.0937 94.4562C86.0902 94.4529 86.0869 94.4499 86.0834 94.4466C86.0654 94.4299 86.0525 94.4082 86.0466 94.3843C86.0194 94.275 86.0145 94.2556 85.986 94.1412C85.9818 94.1243 85.994 94.1077 86.0114 94.1068L86.0136 94.1066C86.0277 94.1059 86.0384 94.0939 86.0377 94.0799C86.0367 94.0619 86.0177 94.0506 86.0014 94.0583C85.9881 94.0646 85.9779 94.0695 85.9681 94.0742C85.9326 94.0911 85.8922 94.0626 85.8965 94.0234C85.8984 94.0067 85.9002 93.9899 85.902 93.9729C85.9054 93.9419 85.9268 93.9159 85.9565 93.9065C85.9759 93.9004 85.9902 93.8958 86.0273 93.8838L86.024 93.8202C86.0231 93.8033 86.036 93.7889 86.0529 93.788C86.0698 93.7871 86.0828 93.7727 86.0819 93.7558L86.0809 93.7371C86.0796 93.7119 86.0989 93.6904 86.1241 93.689L86.1381 93.6883C86.1556 93.6874 86.1705 93.7008 86.1714 93.7183C86.1724 93.7357 86.1873 93.7492 86.2048 93.7482L86.2211 93.7474C86.2291 93.747 86.2367 93.7496 86.2426 93.7549C86.2628 93.7732 86.2954 93.7584 86.294 93.7312L86.2927 93.7068C86.2918 93.6907 86.3007 93.6757 86.3153 93.6688C86.3532 93.6507 86.3909 93.6329 86.4297 93.6143C86.4369 93.6109 86.4423 93.6044 86.4443 93.5966C86.4457 93.5913 86.4469 93.5867 86.4479 93.5825C86.4535 93.561 86.4837 93.5592 86.4917 93.5799C86.4967 93.5932 86.5127 93.599 86.5248 93.5918C86.5471 93.5786 86.5696 93.5656 86.5925 93.5523C86.6105 93.5418 86.6242 93.5252 86.631 93.5054C86.6541 93.4375 86.6685 93.3843 86.6683 93.3116C86.6683 93.2947 86.6812 93.2803 86.698 93.2794C86.7149 93.2785 86.7279 93.2641 86.727 93.2472L86.7261 93.2303C86.7247 93.2041 86.7448 93.1818 86.7711 93.1804L86.9307 93.1719C86.9541 93.1707 86.9759 93.1599 86.9912 93.1422C86.9925 93.1406 86.9938 93.1391 86.9951 93.1376C87.0132 93.1167 87.0181 93.0875 87.0084 93.0616C87.0058 93.0548 87.0033 93.048 87.0007 93.0411C86.9939 93.0227 86.9759 93.0109 86.9562 93.0119C86.939 93.0129 86.9238 93.0235 86.9173 93.0395C86.9139 93.0476 86.9106 93.0558 86.9072 93.0639C86.9034 93.0731 86.8919 93.082 86.8826 93.0857C86.8529 93.0976 86.8268 93.068 86.8368 93.0377C86.8439 93.0164 86.8509 92.9951 86.858 92.9735C86.8621 92.961 86.8705 92.9504 86.8818 92.9436C86.9053 92.9295 86.9155 92.9002 86.9043 92.8753C86.8752 92.8104 86.8433 92.7541 86.8022 92.699C86.7749 92.6625 86.7632 92.6161 86.7747 92.572C86.7807 92.5492 86.7867 92.5263 86.7928 92.5032C86.8007 92.4732 86.7847 92.4421 86.7555 92.4316C86.7109 92.4156 86.6665 92.4553 86.6779 92.5013C86.68 92.51 86.6822 92.5186 86.6843 92.5274C86.6882 92.543 86.6869 92.5595 86.6806 92.5743C86.6679 92.6042 86.6623 92.617 86.6518 92.642C86.642 92.6655 86.6196 92.6814 86.5941 92.6827C86.5526 92.6849 86.5194 92.6489 86.5253 92.6078C86.5258 92.6051 86.5262 92.6021 86.5266 92.5989C86.5329 92.5152 86.5314 92.4664 86.5066 92.3953C86.5015 92.3808 86.4873 92.3718 86.472 92.3726L86.4634 92.373C86.4485 92.3738 86.4372 92.3865 86.4379 92.4013C86.4394 92.4287 86.4037 92.4403 86.3888 92.4173C86.3773 92.3996 86.3659 92.3819 86.3543 92.3641C86.3475 92.3536 86.3365 92.3465 86.3241 92.3446C86.2887 92.3392 86.2537 92.3337 86.2177 92.3282C86.2013 92.3258 86.1888 92.3121 86.188 92.2955L86.1877 92.2913C86.1868 92.2744 86.1724 92.2615 86.1556 92.2624C86.1387 92.2632 86.1257 92.2777 86.1266 92.2945L86.1271 92.3035C86.1279 92.3181 86.1205 92.332 86.1079 92.3395C86.0731 92.3604 86.064 92.3657 86.0243 92.3887C86.0157 92.3938 86.0105 92.4032 86.011 92.4133C86.0121 92.434 85.9902 92.448 85.9719 92.4383C85.9493 92.4264 85.9267 92.4144 85.9041 92.4025C85.9289 92.4012 85.948 92.3801 85.9467 92.3552L85.9445 92.3145C85.9442 92.3088 85.9472 92.3034 85.9521 92.3006C85.9658 92.2927 85.9597 92.2727 85.944 92.2735L85.9277 92.2744C85.9186 92.2749 85.9111 92.2816 85.9095 92.2905C85.9031 92.3251 85.8955 92.3595 85.889 92.3949C85.8858 92.3933 85.8826 92.3916 85.8795 92.39C85.8366 92.3677 85.7847 92.3931 85.7758 92.4406C85.7756 92.4417 85.7754 92.4428 85.7752 92.4439C85.7718 92.4624 85.7604 92.4785 85.7441 92.4881C85.74 92.4904 85.7362 92.4927 85.7316 92.4954C85.7185 92.5031 85.7108 92.5175 85.7116 92.5327C85.7136 92.5694 85.6677 92.5913 85.6471 92.5608C85.6419 92.5531 85.6367 92.5444 85.6304 92.5331C85.6234 92.5207 85.61 92.5132 85.5958 92.514C85.5753 92.5151 85.5595 92.5326 85.5606 92.5531L85.5638 92.6143C85.5646 92.6295 85.5529 92.6425 85.5377 92.6433C85.5203 92.6442 85.5065 92.629 85.5088 92.6118C85.5137 92.577 85.5183 92.542 85.5232 92.5066C85.5249 92.494 85.5338 92.4835 85.5459 92.4798C85.556 92.4766 85.564 92.4741 85.5711 92.4719C85.5942 92.4647 85.594 92.4325 85.5708 92.4259C85.5607 92.423 85.5532 92.414 85.5527 92.4034L85.5517 92.3847C85.5508 92.3679 85.5584 92.3517 85.5718 92.3414C85.5813 92.3341 85.5909 92.3267 85.6005 92.3192C85.6234 92.3014 85.6332 92.2713 85.6242 92.2439C85.6236 92.242 85.623 92.2403 85.6224 92.2385C85.6044 92.186 85.6147 92.1165 85.6685 92.1025C85.6692 92.1024 85.6698 92.1022 85.6705 92.102C85.6823 92.0989 85.693 92.0924 85.701 92.0833C85.7022 92.0819 85.7035 92.0805 85.7047 92.0791C85.7131 92.0695 85.7251 92.0637 85.7379 92.063C85.7612 92.0618 85.7802 92.0439 85.7828 92.0207C85.7864 91.9879 85.79 91.9549 85.7936 91.9215C85.7973 91.8876 85.8113 91.8556 85.8337 91.8299C85.8534 91.8073 85.873 91.7847 85.8928 91.7617C85.9065 91.7459 85.9135 91.7255 85.9124 91.7047C85.9104 91.6679 85.9337 91.6346 85.9688 91.6234C85.9813 91.6194 85.9939 91.6154 86.0153 91.6085C86.0233 91.6059 86.0286 91.5983 86.0281 91.5899L86.0276 91.5788C86.0267 91.5619 86.0493 91.5551 86.0575 91.5699C86.0658 91.5847 86.0888 91.5785 86.0879 91.5616L86.0816 91.4417C86.0807 91.4234 86.0915 91.4065 86.1085 91.3996C86.1348 91.3891 86.1611 91.3785 86.1875 91.3678C86.2272 91.3517 86.2722 91.3709 86.2882 91.4106C86.3221 91.4928 86.3221 91.4928 86.376 91.535C86.436 91.5939 86.4534 91.6445 86.4805 91.7248C86.5118 91.8174 86.5171 91.8331 86.5623 91.885C86.5841 91.9099 86.6005 91.9391 86.6101 91.9707C86.6157 91.989 86.6198 92.0022 86.6284 92.0306C86.6316 92.0415 86.6309 92.0532 86.6263 92.0636C86.6247 92.0672 86.6234 92.0703 86.6221 92.0732C86.6128 92.094 86.6248 92.1178 86.6467 92.1241C86.6554 92.1266 86.6634 92.1289 86.6753 92.1324C86.6868 92.1357 86.6982 92.1267 86.6975 92.1148C86.6967 92.0998 86.7141 92.0909 86.7258 92.1003C86.7859 92.1484 86.8466 92.1967 86.9088 92.2458C86.9154 92.251 86.9236 92.2536 86.932 92.2531C86.9554 92.2519 86.9732 92.2739 86.9673 92.2965C86.963 92.3132 86.9587 92.33 86.9542 92.3471C86.9682 92.3666 86.9825 92.3863 86.997 92.4064C87.012 92.4272 87.0183 92.453 87.0146 92.4784C87.0113 92.5016 87.008 92.5249 87.0047 92.5484C87.001 92.5741 87.0218 92.5967 87.0477 92.5953C87.0705 92.5941 87.088 92.5747 87.0868 92.5519L87.0865 92.5461C87.0852 92.52 87.1051 92.4978 87.1312 92.4965L87.1565 92.4951C87.181 92.4938 87.1996 92.5164 87.1932 92.5401C87.1869 92.5636 87.2053 92.587 87.2297 92.5857L87.2425 92.5851C87.2602 92.5841 87.2769 92.5937 87.2856 92.6092C87.2867 92.6111 87.2877 92.613 87.2888 92.615C87.2993 92.6334 87.3194 92.6445 87.3406 92.6433L87.3657 92.642C87.4033 92.64 87.4389 92.66 87.4574 92.6928C87.4588 92.6953 87.4603 92.6979 87.4617 92.7004C87.4788 92.703 87.4959 92.705 87.513 92.7076C87.5848 92.7257 87.5849 92.7257 87.658 92.769C87.7543 92.8187 87.835 92.8249 87.9388 92.8318C87.9507 92.8326 87.9626 92.8346 87.974 92.838C88.044 92.8583 88.0529 92.863 88.1009 92.907C88.1083 92.9137 88.1195 92.9134 88.126 92.9059C88.1342 92.8965 88.1491 92.8978 88.1551 92.9087C88.1587 92.9154 88.1623 92.922 88.1659 92.9287C88.1722 92.9403 88.1845 92.9471 88.1977 92.9464L88.2937 92.9414C88.311 92.9405 88.3242 92.9566 88.3198 92.9734C88.3105 93.0086 88.301 93.0438 88.2915 93.0796C88.289 93.089 88.2752 93.0876 88.2747 93.0778C88.2744 93.0731 88.2704 93.0695 88.2657 93.0698L88.232 93.0716C88.2204 93.0722 88.2096 93.0776 88.2019 93.0864C88.1955 93.0938 88.189 93.1011 88.1825 93.1086C88.1653 93.1281 88.1419 93.1414 88.1162 93.1457C88.0324 93.1598 88.0112 93.1634 87.927 93.1778C87.9 93.1824 87.8773 93.1998 87.867 93.2251C87.8606 93.241 87.849 93.2549 87.8344 93.2639C87.7627 93.3082 87.7456 93.3173 87.7086 93.3209C87.6915 93.3225 87.6784 93.3368 87.6793 93.3539C87.6802 93.3709 87.6671 93.3855 87.65 93.3864L87.5737 93.3904C87.5449 93.392 87.5179 93.4054 87.4989 93.4272C87.4963 93.4301 87.4938 93.4331 87.4912 93.436C87.4781 93.451 87.4713 93.4705 87.4723 93.4904C87.4743 93.5273 87.4494 93.5603 87.4133 93.5686C87.3887 93.5742 87.3639 93.5799 87.339 93.5855C87.3156 93.5909 87.3021 93.6155 87.3107 93.638C87.3122 93.642 87.3137 93.6461 87.3153 93.6501C87.3225 93.6693 87.309 93.69 87.2886 93.6911C87.277 93.6917 87.2667 93.6989 87.2622 93.7096C87.2433 93.7547 87.2244 93.7998 87.2052 93.8455C87.1948 93.8703 87.1712 93.8869 87.1444 93.8883C87.1158 93.8899 87.0909 93.9087 87.082 93.936C87.0749 93.9575 87.0679 93.9792 87.0608 94.001C87.0501 94.0341 86.9939 94.083 86.9637 94.1002C86.9058 94.1332 86.8862 94.1695 86.8743 94.235C86.8694 94.2617 86.8646 94.2885 86.8597 94.3155C86.8521 94.3573 86.8343 94.3969 86.8054 94.428C86.7749 94.4608 86.7441 94.4896 86.7088 94.5189C86.6879 94.5362 86.6786 94.5642 86.6864 94.5903C86.6911 94.6063 86.6959 94.6223 86.7008 94.6385C86.7058 94.6552 86.6938 94.6722 86.6764 94.6731C86.6615 94.6739 86.6501 94.6866 86.6509 94.7015L86.6549 94.7779C86.6566 94.8102 86.6363 94.8396 86.6054 94.8495C86.6006 94.851 86.5958 94.8526 86.5909 94.8541C86.5616 94.8634 86.5456 94.8944 86.5555 94.9235C86.5737 94.993 86.5792 95.0575 86.5822 95.1276C86.5828 95.1434 86.5918 95.1574 86.6061 95.1639C86.6276 95.1738 86.6531 95.1635 86.6617 95.1415C86.6682 95.1249 86.6728 95.1129 86.6849 95.081C86.9218 94.4896 87.2648 93.9793 87.7526 93.5813C87.9137 93.4578 88.0885 93.3556 88.2633 93.2547C88.3027 93.2314 88.3427 93.2068 88.3821 93.1828C88.4316 93.1555 88.4316 93.1555 88.5163 93.1369C88.6223 93.1116 88.7051 93.071 88.7996 93.0201C88.8129 93.0129 88.8227 93.0006 88.8267 92.9859C88.8287 92.9784 88.8307 92.9709 88.8328 92.9633C88.8396 92.9381 88.8197 92.9136 88.7936 92.915L88.7898 92.9152C88.7706 92.9162 88.7542 92.9015 88.7532 92.8822C88.7523 92.866 88.7403 92.8525 88.7243 92.8501C88.7144 92.8486 88.7044 92.8472 88.6944 92.8455C88.6698 92.8412 88.6444 92.8368 88.6184 92.8326C88.5938 92.8289 88.5693 92.826 88.544 92.8217C88.4744 92.8056 88.4744 92.8049 88.3798 92.7472C88.3238 92.7219 88.2671 92.696 88.2104 92.6715C87.6442 92.4221 87.1415 92.0757 86.7601 91.5655C86.5465 91.2481 86.4039 90.8867 86.2632 90.5304C86.2517 90.5013 86.2297 90.4779 86.2012 90.4648ZM86.174 94.201C86.1856 94.2118 86.2047 94.2082 86.2107 94.1935C86.2108 94.1932 86.211 94.1929 86.2111 94.1925C86.2174 94.177 86.2055 94.16 86.1887 94.1609C86.1685 94.1619 86.1593 94.1871 86.174 94.201ZM86.0229 93.895C86.0159 93.9124 86.0342 93.9292 86.0504 93.9197C86.068 93.9093 86.0601 93.8821 86.0397 93.8832L86.0273 93.8838C86.0259 93.8875 86.0244 93.8913 86.0229 93.895ZM86.1771 93.8259C86.1783 93.849 86.2032 93.8629 86.2229 93.8507C86.2326 93.8448 86.2381 93.8339 86.2375 93.8226L86.2368 93.8086C86.2359 93.7919 86.2217 93.7791 86.205 93.78C86.1883 93.7808 86.1755 93.7951 86.1764 93.8118L86.1771 93.8259ZM86.7149 93.527C86.6988 93.5457 86.7019 93.5732 86.7244 93.5833C86.7355 93.5883 86.7514 93.5891 86.7619 93.5829C86.7692 93.5786 86.7765 93.5743 86.7839 93.57C86.7966 93.5626 86.8042 93.5487 86.8034 93.5339C86.8023 93.5122 86.7838 93.4956 86.7621 93.4967L86.7583 93.4969C86.7467 93.4976 86.7359 93.5028 86.7283 93.5115C86.7238 93.5167 86.7193 93.5219 86.7149 93.527ZM86.8141 93.3464C86.7987 93.3637 86.8133 93.3915 86.836 93.3864C86.8612 93.3807 86.8621 93.3441 86.8368 93.339C86.8285 93.3373 86.8198 93.3401 86.8141 93.3464ZM87.0077 93.1957C87.0152 93.2157 87.0451 93.2149 87.0508 93.1943C87.0547 93.1801 87.0436 93.166 87.0289 93.1668L87.0271 93.1669C87.0124 93.1676 87.0025 93.1819 87.0077 93.1957ZM83.7803 93.1865C83.7726 93.2148 83.7949 93.2422 83.8242 93.2407C83.8433 93.2396 83.8607 93.2512 83.8676 93.2691C83.8705 93.2766 83.8735 93.2842 83.8765 93.2917C83.8864 93.3168 83.9086 93.3351 83.9351 93.3397C84.0194 93.3545 84.041 93.3586 84.1284 93.3739C84.1494 93.3776 84.1684 93.3608 84.1673 93.3395C84.1666 93.3263 84.1582 93.3148 84.1459 93.3101C84.0997 93.2927 84.0535 93.275 84.0069 93.257C83.983 93.2478 83.9798 93.2155 84.0019 93.2026C84.0254 93.1888 84.0205 93.1542 83.9935 93.1504C83.9375 93.1426 83.8833 93.1419 83.825 93.145C83.8046 93.1461 83.7874 93.1604 83.782 93.1802C83.7815 93.1823 83.7809 93.1844 83.7803 93.1865ZM87.0994 93.1264C87.1071 93.1406 87.1282 93.1399 87.1346 93.1251C87.1402 93.1123 87.1305 93.0979 87.1166 93.0987L87.1151 93.0988C87.1012 93.0995 87.0928 93.1142 87.0994 93.1264ZM84.2811 93.1859C84.2819 93.2028 84.2964 93.2157 84.3132 93.2149C84.3301 93.214 84.3431 93.1996 84.3422 93.1827L84.3421 93.1805C84.3412 93.1636 84.3268 93.1507 84.3099 93.1516C84.293 93.1524 84.2801 93.1669 84.2809 93.1837L84.2811 93.1859ZM84.298 93.102C84.3034 93.1118 84.3158 93.1155 84.3254 93.11C84.3258 93.1098 84.3261 93.1096 84.3265 93.1094C84.3419 93.1006 84.3392 93.0776 84.3222 93.0726C84.3048 93.0676 84.2895 93.0862 84.298 93.102ZM84.1797 93.0005C84.1225 93.0035 84.0795 93.0137 84.0364 93.0306C84.0035 93.0436 84.0098 93.0904 84.0444 93.0978C84.0561 93.1003 84.0685 93.0972 84.0774 93.0893C84.111 93.0599 84.1451 93.0307 84.1797 93.0005ZM85.2547 92.9831C85.2662 92.994 85.2853 92.9904 85.2913 92.9757C85.2915 92.9753 85.2916 92.975 85.2917 92.9746C85.2981 92.9591 85.2861 92.9421 85.2694 92.943C85.2492 92.9441 85.2399 92.9692 85.2547 92.9831ZM87.4005 92.7034C87.4013 92.7179 87.4172 92.7263 87.4297 92.719C87.4403 92.7128 87.451 92.7066 87.4617 92.7004C87.4505 92.6952 87.4391 92.69 87.4276 92.6848C87.4145 92.6789 87.3998 92.689 87.4005 92.7034ZM86.5695 92.5706C86.5707 92.5936 86.5951 92.6073 86.6148 92.5954C86.6245 92.5895 86.6304 92.5786 86.6298 92.5673L86.6235 92.4465C86.6229 92.4352 86.6158 92.4251 86.6055 92.4205C86.5849 92.4111 86.5619 92.4269 86.5631 92.4495L86.5695 92.5706ZM86.875 92.4746C86.873 92.4933 86.8882 92.5093 86.907 92.5083C86.9217 92.5075 86.9337 92.4963 86.9357 92.4817C86.9416 92.4374 86.9479 92.3925 86.9542 92.3471C86.9231 92.3332 86.8876 92.3533 86.884 92.3872C86.881 92.4161 86.878 92.4452 86.875 92.4746ZM85.9041 92.4025L85.8965 92.4029C85.8922 92.4032 85.8881 92.3991 85.889 92.3949C85.8943 92.3974 85.8988 92.4 85.9041 92.4025ZM86.6918 92.2565C86.6993 92.2762 86.7234 92.2842 86.74 92.2713C86.7613 92.2549 86.7541 92.2207 86.7278 92.2153C86.7037 92.2103 86.683 92.2335 86.6918 92.2565ZM86.4826 91.9773C86.4627 91.9926 86.4746 92.0241 86.4996 92.0228C86.5183 92.0218 86.5299 92.0018 86.5208 91.9855C86.5131 91.9718 86.495 91.9677 86.4826 91.9773ZM85.8442 91.895C85.8518 91.9091 85.8722 91.9084 85.8784 91.8936C85.8786 91.8933 85.8787 91.8929 85.8788 91.8926C85.8843 91.8796 85.8743 91.8654 85.8602 91.8662C85.846 91.8669 85.8375 91.8824 85.8442 91.895ZM0.497388 4.15855C0.213371 4.17353 -0.00472693 4.41592 0.0102572 4.69994L3.77695 76.0959C3.79194 76.38 4.03433 76.598 4.31834 76.5831L86.5778 72.2432C86.8618 72.2282 87.0799 71.9859 87.0649 71.7018L83.2982 0.305849C83.2833 0.0218312 83.0409 -0.196265 82.7569 -0.181281L0.497388 4.15855ZM19.6995 51.7479C19.7131 51.7506 19.7255 51.757 19.7358 51.7664C19.7942 51.8197 19.8528 51.8729 19.911 51.9265C19.9375 51.951 19.9634 51.9751 19.989 51.9988C20.0152 52.0227 20.0403 52.0461 20.0656 52.0692C20.0907 52.0924 20.1155 52.115 20.1399 52.1375C20.2072 52.1994 20.2597 52.2514 20.3073 52.3305C20.3106 52.3373 20.3138 52.344 20.317 52.3507C20.3268 52.371 20.3478 52.3834 20.3703 52.3822C20.3856 52.3814 20.4006 52.387 20.4117 52.3975C20.6037 52.5796 20.7998 52.7554 21.0014 52.9259C21.0501 52.9671 21.0988 53.0082 21.1471 53.0498C21.6434 53.4798 22.1614 53.8672 22.7103 54.222C22.7775 54.2652 22.845 54.3087 22.9119 54.3525C23.1819 54.5293 23.4555 54.6926 23.7403 54.8424C23.8158 54.8821 23.8907 54.9227 23.9653 54.9642C24.4715 55.2483 24.9911 55.4842 25.522 55.7131C25.6588 55.7718 25.7951 55.8316 25.9303 55.894C26.1444 55.993 26.3569 56.0856 26.5804 56.16C26.6456 56.181 26.7106 56.2025 26.7756 56.224C26.8299 56.242 26.8302 56.242 26.8835 56.2596C27.0162 56.3033 27.1487 56.3482 27.2807 56.3943C28.1464 56.6972 29.0223 56.9484 29.9127 57.1589C29.9813 57.1751 30.0501 57.1912 30.1186 57.2079C31.9912 57.667 33.9387 57.8979 35.8502 58.0981C37.2584 58.2455 38.6523 58.4582 40.0486 58.7002C40.0818 58.706 40.1145 58.7114 40.1468 58.7171C40.3164 58.7463 40.4861 58.7757 40.6555 58.8059C40.7054 58.8149 40.7556 58.8241 40.8055 58.8331C41.1887 58.8999 41.5635 58.9912 41.9398 59.0921C42.0465 59.1208 42.1533 59.1499 42.2602 59.1785C42.4402 59.2264 42.6203 59.2745 42.8 59.3235C42.8728 59.3434 42.946 59.3631 43.0188 59.3828C43.5353 59.5213 44.0409 59.6757 44.5433 59.863C44.6516 59.9036 44.7601 59.9434 44.869 59.9821C45.4229 60.178 45.9562 60.4048 46.487 60.6603C46.6015 60.7158 46.7164 60.7716 46.8317 60.8253C47.2615 61.0234 47.678 61.2382 48.089 61.4758C48.1171 61.4921 48.1443 61.508 48.1716 61.5238C48.4859 61.7044 48.7902 61.8945 49.0864 62.1056C49.1513 62.152 49.2163 62.1986 49.2819 62.244C49.5701 62.4425 49.8435 62.6489 50.106 62.8829C50.1604 62.9315 50.2144 62.9787 50.2713 63.0243C50.5269 63.2417 50.5271 63.2416 50.7628 63.4825C50.82 63.5409 50.8777 63.5989 50.9356 63.6565C51.1309 63.849 51.3284 64.0381 51.5008 64.2533C51.5194 64.2766 51.5376 64.2993 51.5556 64.322C52.3343 65.2418 52.9751 66.2558 53.5197 67.3391C53.5335 67.3666 53.5466 67.3935 53.5601 67.4202C53.8458 67.9858 54.0778 68.5643 54.2881 69.1639C54.3183 69.2506 54.349 69.3376 54.3797 69.4242C54.4445 69.6069 54.5089 69.7875 54.562 69.9719C54.6276 70.1996 54.5003 70.4317 54.2793 70.5171C53.9933 70.6277 53.7043 70.7259 53.4097 70.8167C53.2757 70.8578 53.1417 70.8993 53.0081 70.9418C51.8168 71.3225 50.6281 71.6599 49.4007 71.8909C49.3365 71.9031 49.2721 71.9149 49.208 71.9273C46.9976 72.359 44.7413 72.5593 42.4915 72.502C42.4605 72.5012 42.4299 72.5008 42.3998 72.5C41.2298 72.4695 40.0533 72.4197 38.8895 72.283C38.8666 72.2803 38.8443 72.2775 38.822 72.2749C38.212 72.2028 37.6075 72.0914 37.0063 71.9617C36.9761 71.9551 36.9466 71.9486 36.9173 71.9422C36.2073 71.789 35.5009 71.6256 34.8125 71.3847C34.7233 71.3531 34.6339 71.3219 34.5444 71.2914C33.9026 71.0739 33.2551 70.857 32.647 70.5494C32.5495 70.4999 32.4513 70.4528 32.3524 70.4065C32.0293 70.2555 31.7075 70.1039 31.3982 69.9239C31.3757 69.9108 31.3537 69.8981 31.332 69.8854C30.9168 69.6442 30.5133 69.3912 30.1208 69.112C30.0485 69.0604 29.9758 69.0094 29.9028 68.9589C29.6624 68.7942 29.426 68.6272 29.1978 68.4445C29.1194 68.3815 29.0409 68.3188 28.9608 68.2581C28.8106 68.1453 28.6633 68.0301 28.5199 67.9081C28.4456 67.8441 28.3714 67.7801 28.2949 67.7189C28.1357 67.5917 27.9849 67.4563 27.8353 67.3169C27.7896 67.2741 27.7439 67.2312 27.698 67.1885C27.5135 67.0171 27.3338 66.842 27.1595 66.6592C27.1113 66.6083 27.0625 66.5575 27.0138 66.5071C26.9072 66.3969 26.8009 66.2863 26.6963 66.1741C26.6328 66.1059 26.5684 66.0385 26.5031 65.9722C26.38 65.8474 26.2579 65.7234 26.1461 65.5875C26.0675 65.491 25.986 65.3979 25.9019 65.3064C25.7718 65.1649 25.6449 65.0222 25.5242 64.8718C25.4367 64.7617 25.3492 64.6518 25.2596 64.5436C25.2456 64.5267 25.2316 64.5104 25.218 64.4941C25.1631 64.4277 25.1083 64.3611 25.0531 64.2948C24.5488 63.6924 24.0458 63.0712 23.6327 62.397C23.5322 62.2295 23.424 62.0692 23.3127 61.9091C23.0206 61.495 22.7683 61.0522 22.5187 60.6097C22.4759 60.5335 22.4331 60.457 22.3899 60.381C22.2175 60.0779 22.0563 59.7733 21.9141 59.4538C21.8807 59.3785 21.8468 59.3037 21.812 59.2291C21.3192 58.1836 20.9551 57.0942 20.6078 55.9903C20.6007 55.9677 20.5939 55.9451 20.5869 55.9232C20.4002 55.3319 20.2402 54.7331 20.0936 54.13C20.0862 54.0997 20.0787 54.0704 20.0716 54.041C19.9664 53.6082 19.8633 53.175 19.7686 52.7397C19.7608 52.7037 19.7609 52.7034 19.7533 52.6682C19.692 52.3896 19.642 52.1134 19.6084 51.8308C19.6023 51.7793 19.6487 51.7375 19.6995 51.7479ZM5.70791 14.3192C5.75075 14.3258 5.7855 14.3562 5.79834 14.3976C5.88177 14.6664 5.96848 14.9339 6.06267 15.199C6.07003 15.2196 6.07676 15.2398 6.08391 15.2598C6.2581 15.7473 6.4616 16.2187 6.67631 16.6884C6.70469 16.7504 6.73301 16.8124 6.76114 16.8746C6.94293 17.2778 7.1188 17.6857 7.33899 18.0684C7.38314 18.1441 7.42725 18.2203 7.47071 18.2963C7.71924 18.7314 7.9726 19.1601 8.26316 19.567C8.30199 19.6212 8.34075 19.6757 8.37929 19.7302C8.62445 20.0773 8.87247 20.42 9.14248 20.7469C9.19082 20.8053 9.23926 20.8639 9.28662 20.9232C9.44689 21.1255 9.6053 21.3274 9.78424 21.5125C9.84597 21.5741 9.90786 21.6358 9.96721 21.6998C10.0827 21.8249 10.2013 21.9448 10.3252 22.061C10.347 22.0814 10.3685 22.1012 10.3896 22.1209C10.4364 22.1646 10.4832 22.2083 10.53 22.2519C10.6024 22.3193 10.6747 22.3871 10.7469 22.4546C11.0488 22.7372 11.3542 23.0144 11.6675 23.2834C11.6845 23.2978 11.7009 23.312 11.7173 23.3261C11.865 23.4529 12.0125 23.5784 12.17 23.692C12.2381 23.7401 12.3058 23.7889 12.3725 23.839C12.6331 24.0369 12.8968 24.226 13.1716 24.4021C13.2439 24.4481 13.3167 24.4945 13.3888 24.5408C13.8815 24.8569 14.3745 25.1639 14.8932 25.4323C14.9699 25.4717 15.0465 25.5115 15.1217 25.5538C15.4122 25.7194 15.7052 25.8618 16.013 25.9895C16.0866 26.02 16.16 26.051 16.2334 26.0818C16.2834 26.1028 16.3332 26.1239 16.3831 26.1449C16.55 26.2147 16.7166 26.2851 16.8819 26.3589C17.2777 26.5357 17.6764 26.6883 18.0863 26.8263C18.2263 26.8732 18.3659 26.9215 18.505 26.9715C19.0008 27.15 19.4955 27.3128 20.0059 27.4411C20.1297 27.4718 20.2535 27.5027 20.3772 27.5344C20.4737 27.5593 20.5708 27.584 20.6674 27.6086C20.7157 27.621 20.7644 27.6333 20.8128 27.6457C21.5774 27.8418 22.3438 28.0061 23.1227 28.1264C23.205 28.139 23.2875 28.1521 23.3699 28.165C23.5632 28.1952 23.7567 28.2251 23.9501 28.2548C24.1205 28.281 24.2909 28.3076 24.4612 28.3346C25.2818 28.4647 26.1037 28.5708 26.9289 28.6623C27.5114 28.7268 28.093 28.7947 28.6737 28.876C28.7253 28.8832 28.7256 28.8827 28.7761 28.8899C28.9104 28.9088 29.045 28.9281 29.1793 28.9471C29.5391 28.9982 29.8992 29.0469 30.2594 29.0946C30.2922 29.099 30.3241 29.1032 30.356 29.1075C30.6968 29.1527 31.0378 29.1977 31.379 29.2394C32.1894 29.338 32.9954 29.4551 33.801 29.5902C33.9413 29.6137 34.0819 29.6371 34.2222 29.6602C34.3753 29.6855 34.5282 29.7111 34.6812 29.7365C34.7568 29.749 34.8327 29.7616 34.9082 29.7741C35.6694 29.9 36.4257 30.0418 37.1791 30.2121C37.276 30.234 37.3733 30.2562 37.4702 30.278C37.5362 30.2928 37.6021 30.3078 37.668 30.3226C37.8564 30.3653 38.0448 30.4075 38.2335 30.4484C38.8855 30.5893 39.5306 30.7464 40.1728 30.93C40.2912 30.964 40.4099 30.9978 40.5286 31.031C41.127 31.1986 41.7172 31.3824 42.3033 31.5922C42.4867 31.6579 42.6708 31.7209 42.8556 31.7821C43.2978 31.9284 43.729 32.0929 44.1581 32.2773C44.267 32.3244 44.3766 32.3703 44.4863 32.4156C44.8911 32.581 45.2912 32.7496 45.6819 32.9489C45.8667 33.0433 46.0529 33.1339 46.2407 33.2217C46.524 33.3539 46.8041 33.4877 47.0764 33.6431C47.1375 33.6781 47.1988 33.7126 47.2607 33.7463C47.6176 33.9384 47.9664 34.1417 48.3111 34.3568C48.4305 34.4313 48.5499 34.5058 48.671 34.5773C48.7932 34.6486 48.9163 34.7186 49.0352 34.7957C49.0678 34.8174 49.0993 34.8391 49.1309 34.8602C49.3616 35.0143 49.591 35.1707 49.8197 35.3279C49.8928 35.3782 49.9663 35.4281 50.0396 35.4781C50.3055 35.6592 50.563 35.8471 50.8133 36.0508C50.9086 36.1286 51.0048 36.2056 51.101 36.2821C51.1723 36.339 51.2436 36.3963 51.3148 36.4534C51.3334 36.4682 51.3518 36.4828 51.3697 36.4973C51.5277 36.623 51.68 36.7531 51.8282 36.8911C51.8643 36.9248 51.8643 36.9251 51.8996 36.9582C52.354 37.3842 52.7956 37.8217 53.2033 38.2962C53.2618 38.3653 53.3202 38.4345 53.38 38.5024C53.9574 39.1535 54.5075 39.8441 54.9775 40.5831C55.0303 40.6667 55.0839 40.75 55.1392 40.832C55.3813 41.1887 55.606 41.5568 55.8125 41.9368C55.8755 42.0532 55.9392 42.1692 56.0061 42.2832C56.3716 42.8981 56.6901 43.5372 56.9829 44.1921C57 44.2305 57.0162 44.2679 57.0329 44.3052C57.3134 44.9272 57.549 45.5569 57.7641 46.2057C57.7886 46.2796 57.8125 46.3538 57.8371 46.4277C58.2954 47.7996 58.6093 49.1741 58.8499 50.6028C58.8554 50.6357 58.8611 50.6677 58.8665 50.6997C59.0845 51.9946 59.221 53.2823 59.2912 54.5939C59.2929 54.6269 59.2929 54.6269 59.2946 54.6592C59.3367 55.4432 59.3642 56.2245 59.335 57.0092C59.3338 57.0385 59.3327 57.067 59.3316 57.0955C59.3131 57.5991 59.2891 58.1012 59.2409 58.6028C59.2368 58.644 59.2325 58.684 59.2286 58.7239C59.2108 58.9037 59.1929 59.0835 59.1741 59.2632C59.1713 59.2895 59.1686 59.3152 59.1659 59.3408C59.1583 59.4144 59.1502 59.488 59.1423 59.5616C59.1385 59.5961 59.1387 59.5963 59.135 59.6302C59.1213 59.7579 59.1022 59.8807 59.0764 60.0044C59.0657 60.0553 59.0163 60.0882 58.9649 60.0803C58.9268 60.0744 58.896 60.0471 58.8848 60.0102C58.8801 59.9944 58.8753 59.9787 58.8707 59.9629C58.8567 59.9159 58.8426 59.869 58.8286 59.822C58.5958 59.0282 58.2995 58.3025 57.8769 57.5971C57.8455 57.5451 57.8453 57.5453 57.8145 57.4943C57.6977 57.3008 57.5809 57.1133 57.4362 56.9407C57.4212 56.9232 57.4063 56.9063 57.3917 56.8893C57.2318 56.6984 57.0669 56.5172 56.8831 56.3508C56.8584 56.329 56.8344 56.3077 56.8104 56.2866C56.3462 55.8649 55.8203 55.5139 55.2607 55.2465C55.2127 55.2239 55.2123 55.2236 55.1653 55.2014C54.2329 54.7528 53.2712 54.4781 52.2644 54.2747C52.2268 54.2671 52.19 54.2597 52.1536 54.2523C50.2122 53.8443 50.212 53.8445 44.9725 53.5797C44.8692 53.5745 44.7657 53.5691 44.6624 53.5637C44.3246 53.5462 43.9867 53.5301 43.6489 53.516C41.8708 53.4416 40.0932 53.3662 38.3194 53.2084C38.0665 53.1859 37.8134 53.1643 37.5599 53.15C36.609 53.085 36.6089 53.0848 35.6595 52.9955C35.5735 52.9875 35.487 52.9798 35.4009 52.9719C34.7236 52.9107 34.0522 52.8174 33.3792 52.7178C33.1279 52.6805 32.8761 52.6457 32.6244 52.6123C31.8212 52.5059 31.0271 52.3663 30.2348 52.1917C29.9299 52.1243 29.6248 52.0587 29.3188 51.9976C28.6272 51.8597 27.9532 51.677 27.2752 51.4802C27.135 51.4394 26.9946 51.3987 26.8542 51.3585C26.2633 51.1893 25.6757 51.0132 25.0996 50.7948C24.9467 50.7368 24.7935 50.6795 24.6392 50.6256C23.5788 50.2567 22.5338 49.837 21.518 49.3504C21.3843 49.2864 21.2497 49.2241 21.1144 49.1638C20.9054 49.0708 20.7016 48.9702 20.4993 48.8623C20.4063 48.8127 20.3127 48.7635 20.2189 48.7153C20.1988 48.7049 20.1792 48.6948 20.1596 48.6846C20.0392 48.6226 19.9181 48.561 19.7973 48.5C19.4078 48.3036 19.0226 48.103 18.6468 47.8796C18.5491 47.8213 18.4512 47.7635 18.3529 47.7065C17.9173 47.4542 17.4816 47.202 17.0585 46.9278C17.0246 46.9056 16.9913 46.8844 16.9584 46.8629C16.3734 46.4806 15.7869 46.0936 15.2384 45.6563C15.1586 45.5927 15.0783 45.5296 14.9969 45.468C14.8094 45.3276 14.6291 45.1801 14.4516 45.0265C14.3691 44.9549 14.2859 44.8834 14.203 44.8123C14.1863 44.798 14.1702 44.7841 14.1539 44.7701C14.0691 44.6974 13.9839 44.625 13.8974 44.5545C13.7346 44.4234 13.5766 44.2886 13.4331 44.1348C13.3391 44.032 13.2461 43.9366 13.1377 43.8501C13.1123 43.8309 13.0877 43.8119 13.0631 43.7931C13.0485 43.782 13.0373 43.767 13.0306 43.7498C13.0264 43.7389 13.0222 43.728 13.018 43.7172C13.0101 43.6968 12.99 43.6837 12.9681 43.6849C12.9531 43.6856 12.9385 43.6797 12.9284 43.6686C12.8877 43.6244 12.8466 43.5799 12.8059 43.5358C12.7777 43.5052 12.7778 43.5047 12.7501 43.4747C12.6423 43.3567 12.5321 43.2415 12.4189 43.1292C12.2508 42.9629 12.0823 42.798 11.9261 42.6196C11.8426 42.5221 11.7588 42.425 11.6736 42.3292C11.3453 41.96 11.0225 41.5896 10.7245 41.1935C10.6403 41.0814 10.5556 40.9699 10.469 40.86C10.2438 40.5745 10.0289 40.2832 9.82132 39.9838C9.77112 39.9113 9.72092 39.8386 9.67001 39.7666C9.46673 39.4813 9.27312 39.1916 9.08811 38.8932C9.04403 38.8219 9.00002 38.7508 8.95431 38.6807C8.74831 38.3665 8.5577 38.0458 8.37697 37.7154C8.3297 37.6285 8.28247 37.5417 8.23487 37.4551C6.53586 34.245 5.7264 31.3192 5.21704 28.3115C5.20541 28.2424 5.1932 28.1731 5.18157 28.104C5.00534 27.0734 4.92027 26.0459 4.86864 25.002C4.86248 24.8773 4.8562 24.7523 4.84962 24.6277C4.84307 24.5038 4.83635 24.3795 4.82999 24.2556C4.82695 24.1961 4.82432 24.1364 4.82129 24.0769C4.79357 23.5476 4.78354 23.0198 4.79452 22.4898C4.79529 22.4572 4.79593 22.4256 4.79667 22.394C4.79824 22.323 4.79971 22.252 4.8013 22.1809C4.80387 22.0719 4.8062 21.9625 4.80855 21.8535C4.8101 21.7809 4.81198 21.7082 4.81364 21.6357C4.81445 21.6005 4.81532 21.5663 4.81611 21.5322C4.81682 21.4985 4.81739 21.4657 4.81809 21.4329C4.81885 21.4018 4.81972 21.3715 4.82046 21.3413C4.8222 21.2655 4.82539 21.1945 4.83835 21.12C4.85023 21.0605 4.85004 21.0602 4.85609 20.9779C4.85759 20.9458 4.85903 20.9144 4.86048 20.8833C4.86222 20.8471 4.86395 20.8115 4.86565 20.7763C4.86928 20.6976 4.87315 20.6189 4.87699 20.5402C4.883 20.4173 4.88909 20.2938 4.895 20.1709C4.96621 18.6724 5.09009 17.1937 5.35601 15.719C5.38685 15.5481 5.41671 15.3768 5.44429 15.2055C5.44816 15.1812 5.4519 15.1575 5.45566 15.1339C5.47008 15.0437 5.48412 14.9534 5.49834 14.8631C5.50483 14.8213 5.51118 14.7793 5.51767 14.7375C5.52388 14.6984 5.53008 14.6602 5.53611 14.6222C5.54939 14.5367 5.5645 14.4607 5.5918 14.3842C5.60863 14.3371 5.65846 14.3116 5.70791 14.3192ZM64.9119 23.4228C65.9343 23.3667 66.956 23.3488 67.9798 23.3862C68.0088 23.3874 68.0375 23.3882 68.0657 23.3893C69.9269 23.4555 71.9018 23.6233 73.6933 24.1948C73.7524 24.2139 73.8117 24.2327 73.8708 24.2515C74.4821 24.4466 75.0868 24.643 75.6594 24.9429C75.7118 24.9703 75.7642 24.9972 75.8166 25.0241C76.1383 25.1879 76.4511 25.3637 76.756 25.5591C76.7729 25.5704 76.7904 25.5813 76.8072 25.5922C77.3966 25.9726 77.9845 26.4073 78.4529 26.9438C78.5143 27.0167 78.5758 27.0899 78.6407 27.1598C79.0575 27.5998 79.4112 28.0757 79.7339 28.5936C79.7565 28.6297 79.7565 28.6301 79.7783 28.6656C80.2564 29.4406 80.5417 30.3565 80.7787 31.237C80.7871 31.27 80.7961 31.3021 80.8045 31.3341C80.918 31.7497 80.9801 32.1564 81.0042 32.5864C81.0055 32.6113 81.0068 32.6358 81.0081 32.6599C81.0297 33.0547 81.0225 33.4369 80.9485 33.8261C80.9408 33.8614 80.9408 33.8619 80.9338 33.8964C80.8907 34.1155 80.8324 34.3265 80.7653 34.5388C80.7327 34.6332 80.7028 34.726 80.6829 34.8241C80.6684 35.0108 80.711 35.1741 80.7697 35.3497C80.7898 35.4083 80.8099 35.4674 80.8292 35.5263C80.8397 35.5574 80.8495 35.5875 80.8592 35.6177C81.0505 36.1933 81.1549 36.7445 81.1884 37.3521C81.1897 37.3756 81.1909 37.3985 81.1921 37.4214C81.2011 37.5912 81.2093 37.7612 81.2131 37.9312C81.2078 39.0203 80.9167 40.2209 80.4132 41.1746C80.4017 41.1956 80.391 41.216 80.3802 41.2363C80.1205 41.7295 79.8469 42.2271 79.4945 42.6561C79.4556 42.7027 79.4174 42.7495 79.3801 42.7971C79.2445 42.9707 79.1112 43.1459 78.9555 43.3008C78.8992 43.3544 78.8459 43.4077 78.7951 43.4663C77.9403 44.4852 76.8443 45.2656 75.7763 46.0216C75.7591 46.0337 75.7367 46.0357 75.7175 46.0271C75.6979 46.0182 75.6848 45.9994 75.6834 45.9778C75.6782 45.8973 75.6764 45.8194 75.6836 45.7381C75.6879 45.7085 75.6923 45.6795 75.6964 45.6507C75.701 45.6168 75.7053 45.5838 75.7099 45.5508C75.8783 44.327 75.9665 42.996 75.6347 41.7889C75.6269 41.762 75.6193 41.7357 75.6118 41.7096C75.4049 40.9892 75.1245 40.3204 74.7166 39.6959C74.7035 39.676 74.6909 39.6565 74.6782 39.6373C74.4974 39.3609 74.3075 39.1211 74.0612 38.9048C74.0123 38.8626 73.9633 38.8201 73.9153 38.7769C73.5508 38.4474 73.1485 38.1867 72.6989 38.0003C71.9352 37.6998 71.2095 37.5894 70.3969 37.7231C69.529 37.9409 68.7146 38.4504 68.0641 39.0753C68.0051 39.1322 67.9458 39.1874 67.8846 39.2417C67.7306 39.3776 67.6021 39.5222 67.4776 39.6874C67.4416 39.736 67.4055 39.7845 67.3691 39.8328C67.3532 39.854 67.3374 39.8748 67.322 39.8953C67.2879 39.9408 67.2535 39.9859 67.2188 40.0309C66.9803 40.3184 66.778 40.6158 66.5852 40.9381C66.5692 40.9649 66.5537 40.991 66.5382 41.017C66.3505 41.328 66.1651 41.6376 66.0108 41.9682C65.9797 42.0362 65.948 42.1039 65.9162 42.1715C65.8884 42.2305 65.8609 42.2897 65.8333 42.3487C65.8188 42.3797 65.8045 42.4098 65.7904 42.4398C65.5475 42.955 65.3528 43.4887 65.1764 44.0319C65.1662 44.0632 65.1566 44.0938 65.1466 44.1243C64.9513 44.7247 64.7767 45.3258 64.6296 45.9412C64.4671 46.6223 64.2574 47.282 64.0336 47.9434C64.0245 47.9701 64.0155 47.996 64.0067 48.0219C63.9785 48.1052 63.951 48.189 63.9225 48.2722C63.9132 48.2993 63.9041 48.3257 63.8951 48.3521C63.8267 48.5538 63.7487 48.7462 63.6591 48.9389C63.5593 49.1531 63.5597 49.1534 63.3532 49.6869C63.3507 49.6935 63.3482 49.7 63.3456 49.7064C63.3382 49.7252 63.3243 49.7412 63.3069 49.7515C63.2592 49.7796 63.1979 49.7577 63.1831 49.7043C63.1657 49.6418 63.1531 49.5789 63.1407 49.513C63.13 49.4556 63.1195 49.3983 63.1085 49.3411C63.0903 49.2454 63.0719 49.1498 63.0537 49.0541C62.8689 48.0666 62.6747 47.0647 62.3726 46.1071C62.363 46.0774 62.3534 46.0486 62.3442 46.0198C62.2803 45.82 62.2142 45.6207 62.1468 45.4222C62.0954 45.2711 62.0447 45.1197 61.9945 44.9682C61.6562 43.9468 61.2985 42.9361 60.905 41.936C60.8888 41.8948 60.8884 41.8946 60.8726 41.8544C60.641 41.264 60.3846 40.6924 60.0958 40.1298C60.0782 40.0957 60.0607 40.0625 60.0436 40.0293C59.8251 39.6012 59.595 39.1813 59.3539 38.7663C59.336 38.7354 59.3183 38.7055 59.3008 38.6755C59.0641 38.2672 58.8224 37.8638 58.5623 37.4709C58.515 37.3997 58.4672 37.3282 58.4205 37.2566C58.2458 36.9879 58.0666 36.7237 57.879 36.4644C57.756 36.2951 57.6331 36.1259 57.5131 35.9542C57.3052 35.6564 57.0961 35.3621 56.8685 35.08C56.7976 34.9923 56.7288 34.9032 56.6604 34.8134C56.4211 34.4992 56.1717 34.1964 55.9052 33.9065C55.8366 33.8319 55.7688 33.7568 55.7029 33.6796C55.5616 33.5133 55.413 33.3621 55.2536 33.2151C55.133 33.1045 55.0138 32.9943 54.9031 32.8728C54.8406 32.8041 54.7838 32.7519 54.7105 32.6936C54.6204 32.6278 54.6209 32.6272 54.5627 32.5726C54.4404 32.4561 54.3145 32.3471 54.1833 32.2414C54.1723 32.2327 54.1614 32.2241 54.1506 32.2156C54.1407 32.2078 54.1348 32.1962 54.1341 32.1837L54.134 32.1823C54.1328 32.159 54.1129 32.1412 54.0897 32.1424C54.078 32.143 54.0666 32.1388 54.0582 32.1307C53.9982 32.0736 53.9373 32.0193 53.8725 31.968C53.7588 31.8826 53.6451 31.7971 53.5329 31.7098C53.239 31.4795 52.9409 31.2612 52.6296 31.0571C52.5543 31.0081 52.4793 30.9585 52.4046 30.9086C52.0612 30.6782 51.7163 30.4709 51.3453 30.2923C51.2916 30.2666 51.2381 30.2404 51.1847 30.2141C51.1406 30.1922 51.1403 30.1919 51.0972 30.1705C51.0209 30.133 50.9459 30.095 50.8725 30.0515C49.8497 29.4439 48.4334 29.156 47.2746 29.0487C47.1234 29.0349 46.9739 29.0167 46.8242 28.9928C46.7865 28.9868 46.7584 28.9552 46.7564 28.9171C46.7554 28.898 46.7611 28.879 46.773 28.8639C46.8878 28.7187 47.0213 28.613 47.1702 28.5048C47.2645 28.4364 47.3581 28.3673 47.4497 28.2951C47.6483 28.1383 47.848 27.9909 48.0635 27.8593C48.1137 27.8293 48.1141 27.8297 48.1635 27.8003C48.4262 27.6427 48.6907 27.4877 48.96 27.3423C49.0006 27.3205 49.0413 27.2986 49.082 27.2767C50.3934 26.5509 51.807 26.0263 53.2339 25.604C53.4181 25.5495 53.6023 25.4944 53.7861 25.4386C54.6421 25.1786 55.4973 24.9326 56.3697 24.7376C56.5583 24.6955 56.7467 24.6529 56.9347 24.608C56.9591 24.6021 56.983 24.596 57.0066 24.5904C57.0313 24.5845 57.0552 24.5786 57.0792 24.5728C58.532 24.2246 59.9944 23.8934 61.4775 23.7148C61.5068 23.7113 61.5358 23.7081 61.5643 23.7047C62.594 23.5798 63.6232 23.4925 64.6588 23.4368C64.7431 23.4323 64.8276 23.4274 64.9119 23.4228ZM34.7728 10.8512C34.8303 10.5764 35.1092 10.3738 35.3591 10.5018C35.4031 10.5244 35.4549 10.5522 35.5206 10.5876C35.9689 10.7973 36.4158 10.9844 36.8846 11.1401C37.0366 11.1904 37.1881 11.2424 37.3392 11.2959C37.9372 11.508 38.5314 11.7143 39.1462 11.8678C39.2455 11.8925 39.345 11.9167 39.4443 11.9415C39.4711 11.9483 39.4972 11.955 39.5232 11.9615C39.9731 12.0741 40.4197 12.1964 40.865 12.3273C40.8971 12.3367 40.9284 12.3455 40.9595 12.3547C41.4816 12.5074 42.0214 12.6512 42.5131 12.8938C42.5589 12.9172 42.6049 12.9401 42.6509 12.9629C42.6762 12.9755 42.701 12.9874 42.7257 12.9996C42.8158 13.0444 42.9065 13.0873 42.9985 13.1278C43.3865 13.2974 43.7527 13.5019 44.1074 13.7379C44.1508 13.7668 44.1942 13.7958 44.2381 13.824C44.4731 13.9738 44.6924 14.1293 44.9036 14.3142C44.9518 14.3565 45.001 14.3982 45.0508 14.4387C45.3501 14.677 45.6123 14.9472 45.8693 15.2328C45.8848 15.25 45.9002 15.2673 45.9152 15.2841C46.0296 15.4106 46.1417 15.5389 46.2522 15.6691C47.3538 16.9778 48.2006 18.797 48.5282 20.4979C48.5342 20.5295 48.5402 20.5606 48.5461 20.5913C48.6681 21.2021 48.7108 21.8105 48.7376 22.429C48.7435 22.5653 48.6394 22.6889 48.5102 22.6451C47.9324 22.4632 47.3342 22.3272 46.7354 22.2457C45.817 22.1295 45.0269 22.2343 44.1765 22.6073C44.1439 22.6218 44.1123 22.6361 44.0807 22.6502C43.931 22.7167 43.787 22.7797 43.6527 22.8759C43.6099 22.9118 43.5664 22.9475 43.5212 22.98C43.2883 23.1411 43.0682 23.3081 42.8609 23.5037C42.7748 23.5864 42.6924 23.67 42.5925 23.7348C42.5884 23.7368 42.585 23.7385 42.5821 23.74C42.5603 23.7508 42.547 23.7736 42.5483 23.798C42.5491 23.8128 42.5444 23.8275 42.5352 23.8391C42.4122 23.9947 42.2906 24.1518 42.1715 24.3106C42.158 24.3288 42.1442 24.3461 42.131 24.3637C42.1059 24.3972 42.0814 24.43 42.0569 24.4626C41.4631 25.3125 41.2233 26.4079 41.1039 27.4325C41.0992 27.473 41.0603 27.501 41.0207 27.4913C40.9154 27.4655 40.8185 27.4324 40.7162 27.3833C40.5298 27.2928 40.3407 27.2125 40.1467 27.1414C40.1047 27.1263 40.1046 27.1262 40.0636 27.1114C39.7624 27.0026 39.459 26.9013 39.154 26.8048C39.0629 26.7761 38.9714 26.747 38.8804 26.718C38.1466 26.4832 37.4032 26.2977 36.6535 26.1276C36.5715 26.109 36.4895 26.0898 36.4075 26.0711C35.5877 25.8828 34.7703 25.7183 33.9376 25.6051C33.8313 25.5906 33.725 25.5759 33.6187 25.5612C33.4865 25.543 33.3543 25.5252 33.2221 25.5071C32.9618 25.4715 32.7014 25.4352 32.4412 25.3982C31.7364 25.2978 31.0316 25.2051 30.3242 25.1277C29.475 25.035 28.6379 24.9235 27.8037 24.7284C27.6465 24.6915 27.4891 24.6561 27.3315 24.6211C27.2424 24.6014 27.1534 24.5814 27.0644 24.5615C27.0042 24.5481 26.9436 24.5343 26.8835 24.5208C26.4638 24.4282 26.0496 24.3247 25.6371 24.2017C25.5993 24.1904 25.5993 24.1898 25.5623 24.1787C25.1237 24.0482 24.6883 23.9085 24.2538 23.764C24.2189 23.7524 24.1947 23.7206 24.1928 23.684C24.1917 23.6621 24.1985 23.6404 24.2127 23.6237C24.2515 23.578 24.2914 23.5388 24.3396 23.5003C24.364 23.4825 24.388 23.4656 24.4118 23.4483C24.4392 23.4282 24.4657 23.4084 24.4923 23.3889C24.5505 23.3467 24.6087 23.3044 24.6666 23.262C24.7112 23.2293 24.7113 23.2294 24.7548 23.1975C24.9867 23.0272 25.2194 22.8557 25.4394 22.669C25.6211 22.5121 25.8099 22.3695 26.0031 22.2281C26.1714 22.1053 26.3392 21.9827 26.4994 21.8488C26.6331 21.7357 26.7674 21.6261 26.9092 21.5242C27.1557 21.3483 27.3946 21.1638 27.6316 20.9744C27.7192 20.9042 27.8074 20.8341 27.8952 20.7643C27.9918 20.6875 28.0881 20.6104 28.1845 20.5335C28.2025 20.5191 28.2204 20.5054 28.2378 20.4914C28.4676 20.3084 28.6959 20.1235 28.9232 19.9375C29.0088 19.8674 29.0945 19.7973 29.1804 19.7276C29.394 19.555 29.6073 19.3826 29.8123 19.1992C29.9011 19.1192 29.9904 19.0396 30.0811 18.9619C30.2539 18.8147 30.4199 18.6624 30.5818 18.5024C30.6563 18.4287 30.731 18.3554 30.8075 18.2839C30.9345 18.1663 31.0559 18.0493 31.1682 17.9164C31.2222 17.8498 31.2649 17.8021 31.3363 17.7561C31.3478 17.7501 31.3544 17.7467 31.3602 17.7436C31.3777 17.7344 31.3884 17.7158 31.3873 17.696C31.3863 17.6772 31.3959 17.6593 31.4122 17.6498C31.4373 17.6351 31.449 17.6283 31.4711 17.6153C31.4917 17.6033 31.5038 17.5808 31.5025 17.557C31.5017 17.5413 31.5067 17.5258 31.5167 17.5136C31.5672 17.4521 31.6142 17.4014 31.6824 17.357C31.6901 17.3531 31.6977 17.3492 31.7052 17.3452C31.7229 17.3361 31.7337 17.3174 31.7326 17.2975C31.7316 17.2788 31.7412 17.261 31.7574 17.2516C31.783 17.2366 31.7946 17.2298 31.8174 17.2165C31.8374 17.2048 31.8491 17.1829 31.8479 17.1598C31.8471 17.1434 31.8528 17.1274 31.8637 17.1151C32.0054 16.9573 32.1405 16.7987 32.2624 16.6234C32.3251 16.5323 32.3881 16.4428 32.4567 16.3563C32.7706 15.9701 33.0381 15.5446 33.2933 15.1148C33.3039 15.0967 33.314 15.079 33.3244 15.0614C34.0325 13.8719 34.4205 12.5679 34.6989 11.2086C34.7232 11.0894 34.7479 10.9703 34.7728 10.8512Z" fill="url(#paint0_linear_60_1636)"/>
</g>
<path d="M61.3389 69.1301C61.984 67.9547 61.9351 65.7488 61.9351 65.7488C61.9351 65.7488 66.1884 64.5886 68.0451 67.2404C69.9019 69.8921 68.8748 71.6694 68.8748 71.6694C68.8748 71.6694 69.2287 70.5213 65.4054 70.2346C61.5821 69.9478 59.4386 71.1194 59.4386 71.1194C59.4386 71.1194 60.822 70.072 61.3389 69.1301Z" fill="white"/>
<path d="M75.6966 29.0359C76.0712 29.226 76.3894 29.5535 76.6247 29.9004C77.0057 30.4998 77.1708 31.2306 77.2051 31.936C77.2091 32.0462 77.2113 32.1564 77.2127 32.2667C77.2133 32.2938 77.2138 32.321 77.2144 32.349C77.216 32.4272 77.217 32.5054 77.2176 32.5837C77.2179 32.6067 77.2182 32.6298 77.2184 32.6536C77.2179 32.778 77.2047 32.8797 77.1571 32.9948C76.5409 33.0382 75.9175 32.8414 75.3624 32.5814C75.3268 32.5636 75.2912 32.5458 75.2545 32.5274C75.2341 32.5174 75.2137 32.5074 75.1926 32.497C74.6984 32.251 74.3191 31.9175 74.0088 31.458C73.8121 31.1505 73.7238 30.8958 73.7 30.5343C73.6854 30.2283 73.7177 29.9634 73.8429 29.6814C73.9794 29.4152 74.1304 29.1898 74.3755 29.0158C74.7824 28.7696 75.2841 28.8317 75.6966 29.0359Z" fill="#0A0A0A"/>
</g>
<defs>
<filter id="filter0_i_60_1636" x="0" y="2.70717e-05" width="86.957" height="75.4081" filterUnits="userSpaceOnUse" color-interpolation-filters="sRGB">
<feFlood flood-opacity="0" result="BackgroundImageFix"/>
<feBlend mode="normal" in="SourceGraphic" in2="BackgroundImageFix" result="shape"/>
<feColorMatrix in="SourceAlpha" type="matrix" values="0 0 0 0 0 0 0 0 0 0 0 0 0 0 0 0 0 0 127 0" result="hardAlpha"/>
<feOffset dy="1.61055"/>
<feComposite in2="hardAlpha" operator="arithmetic" k2="-1" k3="1"/>
<feColorMatrix type="matrix" values="0 0 0 0 1 0 0 0 0 1 0 0 0 0 1 0 0 0 0.28 0"/>
<feBlend mode="normal" in2="shape" result="effect1_innerShadow_60_1636"/>
</filter>
<linearGradient id="paint0_linear_60_1636" x1="-12.4824" y1="-41.8743" x2="36.2199" y2="87.5969" gradientUnits="userSpaceOnUse">
<stop offset="0.116258" stop-color="#183F74"/>
<stop offset="0.350962" stop-color="white"/>
<stop offset="0.475322" stop-color="#7BB1FF"/>
<stop offset="0.548379" stop-color="#9DC5FC"/>
<stop offset="0.717984" stop-color="#F6FBFF"/>
<stop offset="0.875" stop-color="#B8C5D9"/>
<stop offset="1" stop-color="#8AA2B8"/>
</linearGradient>
<clipPath id="clip0_60_1636">
<rect width="83.3258" height="71.117" fill="white" transform="translate(0 4.38998) rotate(-3.02)"/>
</clipPath>
</defs>
</svg>
