<svg width="791" height="447" viewBox="0 0 791 447" fill="none" xmlns="http://www.w3.org/2000/svg">
<path d="M392.054 0V160.004L261.524 214.742L392.054 0Z" fill="white"/>
<path d="M392.054 446.327V336.851L257.313 256.849L392.054 446.327Z" fill="white"/>
<path d="M400.475 446.327V336.851L535.215 256.849L400.475 446.327Z" fill="white"/>
<path d="M400.475 0V160.004L531.005 214.742L400.475 0Z" fill="white"/>
<path d="M409.456 219.95C404.77 212.119 389.476 209.304 381.404 215.259C370.947 222.971 374.838 236.28 385.252 240.496C393.348 243.773 405.122 241.352 410.143 250.901C414.53 259.244 410.597 272.088 402.311 275.272C394.67 278.207 374.357 275.391 375.239 265.123" stroke="white" stroke-width="6.43079" stroke-miterlimit="10" stroke-linecap="round" stroke-linejoin="round"/>
<path d="M393.585 212.063C393.585 205.508 393.585 200.059 393.585 193.689" stroke="white" stroke-width="5.55445" stroke-miterlimit="10" stroke-linecap="round" stroke-linejoin="round"/>
<path d="M393.585 294.746C393.585 288.191 393.585 282.742 393.585 276.372" stroke="white" stroke-width="5.55445" stroke-miterlimit="10" stroke-linecap="round" stroke-linejoin="round"/>
</svg>
