<svg width="41" height="40" viewBox="0 0 41 40" fill="none" xmlns="http://www.w3.org/2000/svg">
<g opacity="0.4">
<rect width="40.0243" height="39.6029" rx="19.8015" fill="black"/>
<rect x="0.421308" y="0.421308" width="39.1816" height="38.7603" rx="19.3802" stroke="url(#paint0_linear_230_2207)" stroke-opacity="0.3" stroke-width="0.842616"/>
<path d="M22.4817 18.9136C22.7911 18.5775 22.7693 18.0541 22.4332 17.7449C22.097 17.4355 21.5737 17.4573 21.2643 17.7934L19.4534 19.7613L19.0112 19.191C18.7315 18.8299 18.212 18.7641 17.8508 19.0438C17.4897 19.3236 17.4239 19.8433 17.7036 20.2044L18.5954 21.355C18.9873 21.861 19.74 21.8928 20.1735 21.4219L22.4817 18.9136Z" fill="white"/>
<path d="M26.4224 9.7207C27.4217 9.7207 28.2319 10.5309 28.2319 11.5303C28.2317 12.5294 27.4216 13.3389 26.4224 13.3389C26.2571 13.3388 26.0972 13.3177 25.9458 13.2764L25.7798 13.2305L25.6733 13.3672L24.395 15.0195L24.1997 15.2725L24.4878 15.4111L24.897 15.6074C25.1658 15.7364 25.3374 16.0084 25.3374 16.3066V18.2451C25.3374 18.551 25.3215 18.8544 25.2905 19.1543L25.2612 19.4395H26.5571L26.6255 19.2852C26.9048 18.6456 27.5423 18.1993 28.2837 18.1992C29.2831 18.1992 30.0933 19.0096 30.0933 20.0088C30.0931 21.008 29.2829 21.8184 28.2837 21.8184C27.5423 21.8183 26.9048 21.3718 26.6255 20.7324L26.5571 20.5771H25.0249L24.9702 20.7617C24.699 21.6709 24.2835 22.527 23.7437 23.2979L23.6343 23.4541L23.7505 23.6045L25.769 26.2129L25.8687 26.3428L26.0288 26.3066C26.1553 26.2786 26.2872 26.2637 26.4224 26.2637C27.4217 26.2637 28.2318 27.074 28.2319 28.0732C28.2319 29.0726 27.4217 29.8828 26.4224 29.8828C25.4232 29.8826 24.6138 29.0724 24.6138 28.0732C24.6138 27.7403 24.7033 27.4287 24.8599 27.1611L24.9478 27.0107L24.8413 26.873L23.0649 24.5762L22.8872 24.3467L22.6802 24.5498C21.9922 25.2211 21.1878 25.7856 20.2886 26.21C20.1136 26.2925 19.9108 26.2925 19.7358 26.21C18.8367 25.7856 18.0322 25.2211 17.3442 24.5498L17.1372 24.3467L16.9595 24.5762L15.1831 26.873L15.0767 27.0107L15.1646 27.1611C15.3211 27.4287 15.4106 27.7403 15.4106 28.0732C15.4106 29.0726 14.6004 29.8828 13.6011 29.8828C12.6019 29.8826 11.7925 29.0724 11.7925 28.0732C11.7926 27.0741 12.602 26.2639 13.6011 26.2637C13.7365 26.2637 13.8684 26.2786 13.9946 26.3066L14.1548 26.3428L14.2554 26.2129L16.2739 23.6045L16.3901 23.4541L16.2808 23.2979C15.7409 22.5269 15.3254 21.6708 15.0542 20.7617L14.9985 20.5771H13.4673L13.3989 20.7324C13.1196 21.3717 12.482 21.8182 11.7407 21.8184C10.7415 21.8184 9.93134 21.008 9.93115 20.0088C9.93115 19.0096 10.7414 18.1992 11.7407 18.1992C12.4821 18.1994 13.1196 18.6457 13.3989 19.2852L13.4673 19.4395H14.7632L14.7339 19.1543C14.7029 18.8544 14.687 18.551 14.687 18.2451V16.3066C14.6871 16.0084 14.8585 15.7364 15.1274 15.6074L15.5366 15.4111L15.8247 15.2725L15.6294 15.0195L14.3511 13.3672L14.2446 13.2305L14.0786 13.2764C13.9271 13.3177 13.7665 13.3389 13.6011 13.3389C12.602 13.3387 11.7917 12.5293 11.7915 11.5303C11.7915 10.5311 12.6019 9.72092 13.6011 9.7207C14.6005 9.7207 15.4106 10.5309 15.4106 11.5303C15.4106 11.8329 15.3364 12.1172 15.2056 12.3672L15.1294 12.5146L15.23 12.6455L16.7456 14.6045L16.8735 14.7695L17.062 14.6797L19.6763 13.4248C19.8883 13.3231 20.1354 13.3233 20.3472 13.4248L22.9624 14.6797L23.1509 14.7695L23.2788 14.6045L24.7944 12.6455L24.896 12.5146L24.8188 12.3672C24.688 12.1171 24.6138 11.8328 24.6138 11.5303C24.6138 10.5311 25.4232 9.72096 26.4224 9.7207ZM13.6011 27.4014C13.2302 27.4014 12.9292 27.703 12.9292 28.0742C12.9294 28.4454 13.2302 28.746 13.6011 28.7461C13.972 28.7461 14.2727 28.4455 14.2729 28.0742C14.2729 27.7029 13.9721 27.4014 13.6011 27.4014ZM26.4224 27.4014C26.0513 27.4015 25.7505 27.7031 25.7505 28.0742C25.7507 28.4452 26.0514 28.746 26.4224 28.7461C26.7933 28.7461 27.095 28.4455 27.0952 28.0742C27.0952 27.7029 26.7934 27.4014 26.4224 27.4014ZM11.7397 19.3369C11.3689 19.3371 11.0679 19.6376 11.0679 20.0088C11.068 20.38 11.3689 20.6805 11.7397 20.6807C12.1109 20.6807 12.4115 20.3799 12.4116 20.0088C12.4116 19.6376 12.1109 19.3369 11.7397 19.3369ZM28.2837 19.3369C27.9125 19.3369 27.6118 19.6376 27.6118 20.0088C27.612 20.3799 27.9126 20.6807 28.2837 20.6807C28.6549 20.6807 28.9554 20.38 28.9556 20.0088C28.9556 19.6376 28.655 19.3369 28.2837 19.3369ZM13.6011 10.8574C13.2301 10.8576 12.9292 11.1593 12.9292 11.5303C12.9294 11.9013 13.2304 12.2019 13.6011 12.2021C13.9719 12.2021 14.2737 11.9014 14.2739 11.5303C14.2739 11.1591 13.9722 10.8574 13.6011 10.8574ZM26.4224 10.8574C26.0513 10.8577 25.7505 11.1594 25.7505 11.5303C25.7507 11.9011 26.0515 12.2019 26.4224 12.2021C26.7932 12.2021 27.095 11.9014 27.0952 11.5303C27.0952 11.1591 26.7935 10.8574 26.4224 10.8574ZM24.1997 16.5352L24.0532 16.4639L20.1235 14.5791L20.0122 14.5254L19.8999 14.5791L15.9712 16.4639L15.8247 16.5352V18.2451C15.8247 21.0895 17.3967 23.6892 19.8901 25.0156L20.0122 25.0801L20.1333 25.0156C22.6267 23.6893 24.1997 21.0895 24.1997 18.2451V16.5352Z" stroke="white" stroke-width="0.51699"/>
</g>
<defs>
<linearGradient id="paint0_linear_230_2207" x1="-2.4009e-08" y1="1.45446" x2="46.3487" y2="13.6442" gradientUnits="userSpaceOnUse">
<stop stop-color="white"/>
<stop offset="0.325893" stop-color="white" stop-opacity="0.256139"/>
<stop offset="0.695684" stop-color="white" stop-opacity="0.735087"/>
<stop offset="1" stop-color="white" stop-opacity="0.07"/>
</linearGradient>
</defs>
</svg>
