<svg width="78" height="77" viewBox="0 0 78 77" fill="none" xmlns="http://www.w3.org/2000/svg">
<rect width="77.4179" height="76.6029" rx="38.3015" fill="black"/>
<rect x="0.814925" y="0.814925" width="75.788" height="74.9731" rx="37.4865" stroke="url(#paint0_linear_230_2201)" stroke-opacity="0.3" stroke-width="1.62985"/>
<path d="M40.9802 28.439L45.3338 21.7377C44.6507 21.6096 43.7545 21.9939 42.8153 22.3781C40.9799 23.1038 38.7175 24.0427 37.1382 21.5243C36.7113 20.8839 34.5347 21.3962 32.9124 22.0366L36.6686 28.4389L40.9802 28.439Z" fill="white"/>
<path d="M36.3282 29.1211C36.2001 29.1211 36.072 29.2492 36.072 29.3772V29.7188C36.072 29.8468 36.2001 29.9749 36.3282 29.9749H41.1087C41.2368 29.9749 41.3649 29.8468 41.3649 29.7188V29.3772C41.3649 29.2492 41.2368 29.1211 41.1087 29.1211H36.3282Z" fill="white"/>
<path d="M31.9311 55.3722H45.5044C47.6386 55.3722 49.6449 54.4333 51.0534 52.7687C52.4192 51.1041 52.9742 48.9699 52.59 46.8357C51.0534 38.4271 42.5597 31.4698 41.5778 30.6582H35.858C34.8764 31.4693 26.1692 38.6398 24.8035 47.2194C24.4619 49.2256 25.0596 51.2744 26.3828 52.811C27.7913 54.433 29.7975 55.3721 31.9317 55.3721L31.9311 55.3722ZM38.5897 43.3359C37.6935 43.0798 36.5408 42.7382 36.5408 41.0309C36.5408 39.8785 37.3092 38.8967 38.3335 38.7259V38.0855C38.3335 37.8721 38.5043 37.744 38.675 37.744C38.8885 37.744 39.0166 37.9148 39.0166 38.0855L39.0162 38.7259C40.0405 38.8967 40.8517 39.8783 40.8517 41.0309C40.8517 41.2444 40.6809 41.3724 40.5101 41.3724C40.2967 41.3724 40.1686 41.2017 40.1686 41.0309C40.1686 40.1347 39.5282 39.3663 38.7174 39.3663C37.9063 39.3663 37.2662 40.0921 37.2662 41.0309C37.2662 42.2259 37.9066 42.3967 38.8028 42.6529C39.7417 42.909 40.8944 43.2506 40.8944 45.0006C40.8944 46.153 40.0833 47.1348 39.059 47.3056V47.946C39.059 48.1594 38.8882 48.2875 38.7175 48.2875C38.504 48.2875 38.3759 48.1167 38.3759 47.946V47.3056C37.3516 47.1348 36.5832 46.1532 36.5832 45.0006C36.5832 44.7871 36.754 44.6591 36.9247 44.6591C37.1382 44.6591 37.2663 44.8298 37.2663 45.0006C37.2663 45.8968 37.9067 46.6226 38.7175 46.6226C39.5286 46.6226 40.1687 45.8968 40.1687 45.0006C40.169 43.8053 39.5286 43.592 38.5897 43.3359Z" fill="white"/>
<defs>
<linearGradient id="paint0_linear_230_2201" x1="-4.64399e-08" y1="2.81333" x2="89.651" y2="26.3916" gradientUnits="userSpaceOnUse">
<stop stop-color="white"/>
<stop offset="0.325893" stop-color="white" stop-opacity="0.256139"/>
<stop offset="0.695684" stop-color="white" stop-opacity="0.735087"/>
<stop offset="1" stop-color="white" stop-opacity="0.07"/>
</linearGradient>
</defs>
</svg>
