<svg width="60" height="59" viewBox="0 0 60 59" fill="none" xmlns="http://www.w3.org/2000/svg">
<g opacity="0.7">
<rect width="59.1459" height="58.5234" rx="29.2617" fill="black"/>
<rect x="0.622589" y="0.622589" width="57.9008" height="57.2782" rx="28.6391" stroke="url(#paint0_linear_230_2194)" stroke-opacity="0.3" stroke-width="1.24518"/>
<path d="M38.869 27.5266C39.0549 27.4268 39.2166 27.301 39.3601 27.1424C40.0547 26.3753 40.0547 25.1406 40.0547 22.6711C40.0547 20.2017 40.0547 18.9669 39.3601 18.1998C38.6656 17.4326 37.5477 17.4326 35.3118 17.4326L21.0832 17.4326C18.8474 17.4326 17.7295 17.4326 17.0349 18.1998C16.3403 18.9669 16.3403 20.2017 16.3403 22.6711C16.3403 25.1406 16.3403 26.3753 17.0349 27.1424C17.1785 27.301 17.3402 27.4268 17.5261 27.5266" stroke="white" stroke-width="0.933883" stroke-linecap="round"/>
<path d="M36.42 31.2427L35.6252 26.6393C35.2819 24.6509 35.1102 23.6567 34.4304 23.0681C33.7507 22.4795 32.7742 22.4795 30.8213 22.4795L25.5729 22.4795C23.62 22.4795 22.6435 22.4795 21.9637 23.0681C21.284 23.6567 21.1123 24.6509 20.769 26.6393L19.9742 31.2427C19.2616 35.3698 18.9053 37.4334 20.0025 38.7887C21.0996 40.144 23.1264 40.144 27.1801 40.144L29.2141 40.144C33.2678 40.144 35.2946 40.144 36.3917 38.7887C37.4889 37.4334 37.1326 35.3698 36.42 31.2427Z" fill="black" stroke="white" stroke-width="0.933883" stroke-linecap="round"/>
<path d="M27.0112 22.4795L25.2327 40.144" stroke="white" stroke-width="0.933883"/>
<path d="M31.7544 33.8354L31.7544 35.0972" stroke="white" stroke-width="0.933883" stroke-miterlimit="10" stroke-linecap="round" stroke-linejoin="round"/>
</g>
<defs>
<linearGradient id="paint0_linear_230_2194" x1="-3.54793e-08" y1="2.14934" x2="68.4919" y2="20.1627" gradientUnits="userSpaceOnUse">
<stop stop-color="white"/>
<stop offset="0.325893" stop-color="white" stop-opacity="0.256139"/>
<stop offset="0.695684" stop-color="white" stop-opacity="0.735087"/>
<stop offset="1" stop-color="white" stop-opacity="0.07"/>
</linearGradient>
</defs>
</svg>
