<svg width="31" height="31" viewBox="0 0 31 31" fill="none" xmlns="http://www.w3.org/2000/svg">
<path d="M15.9922 24.25C13.5497 24.25 11.4805 23.4029 9.78469 21.7087C8.08969 20.0137 7.24219 17.9454 7.24219 15.5037C7.24219 13.0621 8.08969 10.9929 9.78469 9.29625C11.4797 7.59958 13.5489 6.75083 15.9922 6.75C17.478 6.75 18.8693 7.10292 20.1659 7.80875C21.4618 8.51458 22.5064 9.5 23.2997 10.765V6.75H24.5497V13.2875H18.0122V12.0375H22.6372C21.9855 10.7917 21.0697 9.80708 19.8897 9.08375C18.7097 8.36042 17.4105 7.99917 15.9922 8C13.9089 8 12.138 8.72917 10.6797 10.1875C9.22135 11.6458 8.49219 13.4167 8.49219 15.5C8.49219 17.5833 9.22135 19.3542 10.6797 20.8125C12.138 22.2708 13.9089 23 15.9922 23C17.5964 23 19.0443 22.5417 20.3359 21.625C21.6276 20.7083 22.5339 19.5 23.0547 18H24.3822C23.8305 19.8717 22.783 21.3812 21.2397 22.5287C19.6964 23.6762 17.9472 24.25 15.9922 24.25Z" fill="#B5B5B5"/>
</svg>
