<svg width="12" height="12" viewBox="0 0 12 12" fill="none" xmlns="http://www.w3.org/2000/svg">
<path d="M10.182 6.35349C10.2757 6.25972 10.3284 6.13257 10.3284 5.99999C10.3284 5.86741 10.2757 5.74025 10.182 5.64649L7.35348 2.81799C7.30735 2.77023 7.25218 2.73214 7.19118 2.70594C7.13018 2.67973 7.06457 2.66594 6.99818 2.66536C6.93179 2.66479 6.86595 2.67744 6.8045 2.70258C6.74305 2.72772 6.68722 2.76484 6.64028 2.81179C6.59333 2.85874 6.55621 2.91456 6.53107 2.97601C6.50592 3.03746 6.49327 3.1033 6.49385 3.16969C6.49443 3.23608 6.50822 3.30169 6.53443 3.36269C6.56063 3.42369 6.59872 3.47887 6.64648 3.52499L8.62148 5.49999L1.99998 5.49999C1.86737 5.49999 1.74019 5.55267 1.64642 5.64644C1.55265 5.7402 1.49998 5.86738 1.49998 5.99999C1.49998 6.1326 1.55265 6.25977 1.64642 6.35354C1.74019 6.44731 1.86737 6.49999 1.99998 6.49999L8.62148 6.49999L6.64648 8.47499C6.5554 8.56929 6.505 8.69559 6.50614 8.82669C6.50728 8.95779 6.55986 9.08319 6.65257 9.1759C6.74527 9.2686 6.87068 9.32119 7.00178 9.32233C7.13287 9.32346 7.25917 9.27307 7.35348 9.18199L10.182 6.35349Z" fill="#0D99FF"/>
</svg>
