<svg width="40" height="40" viewBox="0 0 40 40" fill="none" xmlns="http://www.w3.org/2000/svg">
<g opacity="0.4">
<rect width="40" height="39.5789" rx="19.7895" fill="black"/>
<rect x="0.421053" y="0.421053" width="39.1579" height="38.7368" rx="19.3684" stroke="url(#paint0_linear_230_2225)" stroke-opacity="0.3" stroke-width="0.842105"/>
<path d="M23.2802 21.131C23.9999 20.7951 24.4127 20.3677 24.4127 19.958V18.3018C24.2007 18.4579 23.9551 18.602 23.6767 18.7319C22.7041 19.1858 21.3982 19.4356 19.9998 19.4356C18.6012 19.4356 17.2955 19.1856 16.3229 18.7319C16.0445 18.602 15.7989 18.4579 15.5869 18.3018V19.958C15.5869 20.3675 15.9997 20.7951 16.7194 21.131C17.5703 21.5282 18.7355 21.7468 19.9999 21.7468C21.2642 21.7468 22.4292 21.528 23.2803 21.131H23.2802ZM22.8168 19.6735C23.0968 19.6735 23.3241 19.9078 23.3241 20.1969C23.3241 20.486 23.097 20.7201 22.8168 20.7201C22.5368 20.7201 22.3095 20.4858 22.3095 20.1969C22.3095 19.9078 22.5366 19.6735 22.8168 19.6735Z" fill="white"/>
<path d="M13.4724 24.416C13.0302 24.416 12.6704 24.7781 12.6704 25.2234C12.6704 25.6686 13.03 26.0307 13.4724 26.0307C13.9145 26.0307 14.2743 25.6686 14.2743 25.2234C14.2743 24.7783 13.9145 24.416 13.4724 24.416Z" fill="white"/>
<path d="M16.7198 17.8815C17.5707 18.2788 18.7359 18.4974 20.0002 18.4974C21.2646 18.4974 22.4298 18.2786 23.2807 17.8815C24.0004 17.5457 24.4132 17.1182 24.4132 16.7086V15.0513C24.201 15.2074 23.9553 15.3518 23.6768 15.4818C22.7029 15.9366 21.3974 16.1872 20.0003 16.1872C18.6032 16.1872 17.2976 15.9368 16.3238 15.4818C16.0453 15.3518 15.7994 15.2074 15.5874 15.0513V16.7086C15.5874 17.1183 16 17.5457 16.7199 17.8815H16.7198ZM22.8175 16.424C23.0975 16.424 23.3248 16.6583 23.3248 16.9472C23.3248 17.2363 23.0977 17.4706 22.8175 17.4706C22.5375 17.4706 22.3102 17.2363 22.3102 16.9472C22.3102 16.6583 22.5373 16.424 22.8175 16.424Z" fill="white"/>
<path d="M20.0001 15.2488C22.6008 15.2488 24.4129 14.3062 24.4129 13.46C24.4129 12.614 22.6006 11.6714 20.0001 11.6714C17.3995 11.6714 15.5872 12.614 15.5872 13.4602C15.5872 14.3062 17.3993 15.2488 20.0001 15.2488Z" fill="white"/>
<path d="M26.5278 24.416C26.0856 24.416 25.7258 24.7781 25.7258 25.2234C25.7258 25.6686 26.0855 26.0307 26.5278 26.0307C26.9699 26.0307 27.3297 25.6686 27.3297 25.2234C27.3295 24.7783 26.9699 24.416 26.5278 24.416Z" fill="white"/>
<path d="M20.0002 7.65088C23.0402 7.65093 25.9089 8.76064 28.1448 10.7886L28.5833 11.2065C30.8758 13.4992 32.1379 16.5475 32.1379 19.7896C32.1379 23.0317 30.8758 26.08 28.5833 28.3726C26.2901 30.6652 23.2428 31.9272 20.0002 31.9272C16.7577 31.9272 13.7098 30.665 11.4172 28.3726C9.1245 26.0794 7.86162 23.0321 7.86157 19.7896C7.86157 16.5469 9.12446 13.4991 11.4172 11.2065C13.7099 8.91377 16.7576 7.65088 20.0002 7.65088ZM20.0002 10.6821C18.5979 10.6821 17.2844 10.9334 16.302 11.3921C15.2144 11.9001 14.5979 12.632 14.5979 13.4604V19.9565C14.5979 20.7865 15.2137 21.5195 16.301 22.0269C16.482 22.1113 16.6754 22.1864 16.8772 22.2563V24.7017H15.1858C14.9626 23.9643 14.2803 23.4253 13.4729 23.4253C12.485 23.4254 11.6819 24.2315 11.6819 25.2222C11.6819 26.2129 12.485 27.019 13.4729 27.019C14.2803 27.019 14.9627 26.48 15.1858 25.7427H17.3977C17.6853 25.7427 17.9182 25.5097 17.9182 25.2222V22.5356C18.4079 22.6337 18.9307 22.6975 19.4729 22.7222V25.3804C18.7384 25.6047 18.2024 26.29 18.2024 27.0991C18.2025 28.0898 19.0065 28.896 19.9944 28.896C20.9821 28.8958 21.7853 28.0896 21.7854 27.0991C21.7854 26.29 21.2493 25.6048 20.5149 25.3804V22.7222C21.0616 22.6979 21.5888 22.6344 22.0823 22.5356V25.2222C22.0823 25.5096 22.3153 25.7426 22.6028 25.7427H24.8147C25.0362 26.4743 25.7097 27.0099 26.509 27.0181L26.511 27.019H26.5276C27.5154 27.019 28.3195 26.2128 28.3196 25.2222C28.3196 24.2314 27.5155 23.4253 26.5276 23.4253C25.7201 23.4254 25.0377 23.9642 24.8147 24.7017H23.1233V22.2563C23.325 22.1864 23.5185 22.1113 23.6995 22.0269C24.7867 21.5193 25.4026 20.7865 25.4026 19.9565V13.4604C25.4026 12.632 24.7861 11.9 23.6985 11.3921C22.7161 10.9332 21.4026 10.6821 20.0002 10.6821Z" stroke="white" stroke-width="0.103746"/>
<path d="M19.1914 27.0984C19.1914 27.5436 19.551 27.9057 19.9934 27.9057C20.4355 27.9057 20.7953 27.5436 20.7953 27.0984C20.7953 26.6531 20.4357 26.291 19.9934 26.291C19.551 26.2912 19.1914 26.6533 19.1914 27.0984Z" fill="white"/>
</g>
<defs>
<linearGradient id="paint0_linear_230_2225" x1="-2.39944e-08" y1="1.45358" x2="46.3206" y2="13.6359" gradientUnits="userSpaceOnUse">
<stop stop-color="white"/>
<stop offset="0.325893" stop-color="white" stop-opacity="0.256139"/>
<stop offset="0.695684" stop-color="white" stop-opacity="0.735087"/>
<stop offset="1" stop-color="white" stop-opacity="0.07"/>
</linearGradient>
</defs>
</svg>
