<svg width="78" height="77" viewBox="0 0 78 77" fill="none" xmlns="http://www.w3.org/2000/svg">
<rect width="77.1114" height="76.2997" rx="38.1499" fill="black"/>
<rect x="0.811699" y="0.811699" width="75.488" height="74.6763" rx="37.3382" stroke="url(#paint0_linear_230_2212)" stroke-opacity="0.3" stroke-width="1.6234"/>
<path d="M29.4121 47.6552H47.6989C48.1969 47.6552 48.5591 47.2477 48.5591 46.795L48.5587 31.1335C48.5587 30.6355 48.1513 30.2733 47.6985 30.2733H45.7522V26.788C45.7525 22.805 42.5384 19.5913 38.5555 19.5913C34.5722 19.5913 31.3586 22.805 31.3586 26.7882V30.2735H29.4122C28.9142 30.2735 28.552 30.681 28.552 31.1337V46.7495C28.552 47.2928 28.9142 47.6546 29.4122 47.6546L29.4121 47.6552ZM33.5762 26.789C33.5762 24.0281 35.7942 21.81 38.5551 21.81C41.316 21.81 43.5341 24.0733 43.5341 26.789V30.2743H33.5758L33.5762 26.789ZM30.4983 33.9407C30.4983 32.9904 31.2679 32.266 32.1731 32.266H44.8923C45.8426 32.266 46.567 33.0356 46.567 33.9407V44.0347C46.567 44.9401 45.7974 45.7095 44.8923 45.7095H32.218C31.2676 45.7095 30.5432 44.9398 30.5432 44.0347V33.9407H30.4983Z" fill="white"/>
<path d="M32.2179 45.2566H44.8922C45.5713 45.2566 46.1594 44.7133 46.1594 44.0345V33.9406C46.1594 33.2615 45.6161 32.6733 44.8922 32.6733H32.2179C31.5388 32.6733 30.9507 33.2166 30.9507 33.9406V44.0345C30.9507 44.6684 31.5389 45.2569 32.2179 45.2569V45.2566ZM37.1969 36.5656C37.1969 35.796 37.7854 35.2078 38.5547 35.2078C39.3243 35.2078 39.9125 35.7964 39.9125 36.5656C39.9125 37.0184 39.6861 37.3806 39.3692 37.6519L39.9578 42.7214L39.0074 42.7217H37.152L37.7405 37.6522C37.4232 37.4258 37.1969 37.0184 37.1969 36.5656Z" fill="white"/>
<path d="M47.3818 49.4653H29.7293C27.7377 49.4653 26.1082 51.0948 26.1082 53.0865C26.1082 55.0781 27.7377 56.7076 29.7293 56.7076H47.3818C49.3735 56.7076 51.003 55.0781 51.003 53.0865C51.003 51.0952 49.3735 49.4653 47.3818 49.4653ZM47.3818 55.893H29.7293C28.1904 55.893 26.9231 54.6258 26.9231 53.0868C26.9231 51.5479 28.1904 50.2807 29.7293 50.2807H47.3818C48.9207 50.2807 50.188 51.5479 50.188 53.0868C50.188 54.6258 48.9207 55.893 47.3818 55.893Z" fill="white"/>
<path d="M32.3087 51.3669L31.1772 50.7334L30.5433 52.2271L29.9095 50.7334L28.778 51.3669L29.7737 52.6345L28.28 52.4534V53.7206L29.7737 53.5395L28.778 54.8071L29.8642 55.4406L30.5433 53.947L31.1772 55.4406L32.3087 54.7619L31.313 53.5396L32.8519 53.7206V52.4534L31.313 52.6798L32.3087 51.3669Z" fill="white"/>
<path d="M48.3325 51.3669L47.201 50.7334L46.5672 52.2271L45.9337 50.7334L44.8018 51.3669L45.7978 52.6798L44.2585 52.4534V53.7206L45.7978 53.5396L44.8018 54.7619L45.9337 55.4406L46.5672 53.947L47.2462 55.4406L48.3325 54.8071L47.3368 53.5395L48.8305 53.7206V52.4534L47.3368 52.6345L48.3325 51.3669Z" fill="white"/>
<path d="M40.2752 51.3669L39.1886 50.7334L38.5552 52.2271L37.8761 50.7334L36.7899 51.3669L37.7402 52.6345L36.2466 52.4534V53.7206L37.7855 53.5395L36.7899 54.8071L37.8308 55.4406L38.5099 53.947L39.1434 55.4406L40.3205 54.7619L39.3245 53.5396L40.8634 53.7206V52.4534L39.2792 52.6798L40.2752 51.3669Z" fill="white"/>
<defs>
<linearGradient id="paint0_linear_230_2212" x1="-4.62561e-08" y1="2.80219" x2="89.2961" y2="26.2871" gradientUnits="userSpaceOnUse">
<stop stop-color="white"/>
<stop offset="0.325893" stop-color="white" stop-opacity="0.256139"/>
<stop offset="0.695684" stop-color="white" stop-opacity="0.735087"/>
<stop offset="1" stop-color="white" stop-opacity="0.07"/>
</linearGradient>
</defs>
</svg>
