<svg width="60" height="59" viewBox="0 0 60 59" fill="none" xmlns="http://www.w3.org/2000/svg">
<g opacity="0.7">
<rect width="59.6277" height="59" rx="29.5" fill="black"/>
<rect x="0.62766" y="0.62766" width="58.3723" height="57.7447" rx="28.8723" stroke="url(#paint0_linear_230_2222)" stroke-opacity="0.3" stroke-width="1.25532"/>
<path d="M42.0843 20.9643C42.0843 20.0841 41.3641 19.3638 40.4838 19.3638H36.7492H19.277C18.4237 19.3638 17.5435 20.0039 17.5435 20.9643V38.0362C17.5435 38.9165 18.2636 39.6368 19.144 39.6368H40.4839C41.3641 39.6368 42.0845 38.9166 42.0845 38.0362V31.1008L42.0843 27.8999L42.0843 20.9643ZM36.2158 26.8329C34.7486 26.8329 33.5482 28.0333 33.5482 29.5004C33.5482 30.9676 34.7486 32.168 36.2158 32.168H39.9503V36.9696C39.9503 37.2631 39.7102 37.5032 39.4167 37.5032L20.2111 37.5028C19.9176 37.5028 19.6775 37.2093 19.6775 36.916V22.565C19.7042 21.4713 20.5577 21.498 20.7445 21.498H39.4169C39.7104 21.498 39.9505 21.7382 39.9505 22.0316V26.8332L36.2158 26.8329ZM37.8162 29.5004C37.8162 30.3807 37.096 31.101 36.2156 31.101C35.3354 31.101 34.6151 30.3808 34.6151 29.5004C34.6151 28.6202 35.3352 27.8999 36.2156 27.8999C37.096 27.8999 37.8162 28.6201 37.8162 29.5004Z" fill="white"/>
</g>
<defs>
<linearGradient id="paint0_linear_230_2222" x1="-3.57683e-08" y1="2.16684" x2="69.0497" y2="20.3269" gradientUnits="userSpaceOnUse">
<stop stop-color="white"/>
<stop offset="0.325893" stop-color="white" stop-opacity="0.256139"/>
<stop offset="0.695684" stop-color="white" stop-opacity="0.735087"/>
<stop offset="1" stop-color="white" stop-opacity="0.07"/>
</linearGradient>
</defs>
</svg>
