<svg width="26" height="27" viewBox="0 0 26 27" fill="none" xmlns="http://www.w3.org/2000/svg">
<path fill-rule="evenodd" clip-rule="evenodd" d="M13 9.88068C11.9226 9.88068 10.8892 10.3087 10.1274 11.0706C9.36551 11.8324 8.9375 12.8657 8.9375 13.9432C8.9375 15.0206 9.36551 16.0539 10.1274 16.8158C10.8892 17.5777 11.9226 18.0057 13 18.0057C14.0774 18.0057 15.1108 17.5777 15.8726 16.8158C16.6345 16.0539 17.0625 15.0206 17.0625 13.9432C17.0625 12.8657 16.6345 11.8324 15.8726 11.0706C15.1108 10.3087 14.0774 9.88068 13 9.88068ZM10.5625 13.9432C10.5625 13.2967 10.8193 12.6767 11.2764 12.2196C11.7335 11.7625 12.3535 11.5057 13 11.5057C13.6465 11.5057 14.2665 11.7625 14.7236 12.2196C15.1807 12.6767 15.4375 13.2967 15.4375 13.9432C15.4375 14.5896 15.1807 15.2096 14.7236 15.6667C14.2665 16.1239 13.6465 16.3807 13 16.3807C12.3535 16.3807 11.7335 16.1239 11.2764 15.6667C10.8193 15.2096 10.5625 14.5896 10.5625 13.9432Z" fill="#959595"/>
<path fill-rule="evenodd" clip-rule="evenodd" d="M12.9729 2.29733C12.4908 2.29733 12.0889 2.29733 11.7596 2.319C11.4229 2.33256 11.0908 2.40212 10.777 2.52483C10.4154 2.67443 10.0869 2.89379 9.81011 3.17038C9.53333 3.44697 9.31375 3.77537 9.16391 4.13683C9.00683 4.516 8.96458 4.91683 8.94725 5.35233C8.94531 5.51156 8.90306 5.66771 8.82444 5.80619C8.74583 5.94467 8.6334 6.06098 8.49766 6.14425C8.35772 6.22043 8.20076 6.25989 8.04143 6.25894C7.8821 6.258 7.72561 6.21667 7.58658 6.13883C7.20091 5.93517 6.83258 5.77158 6.42525 5.71742C6.03735 5.66639 5.64321 5.69227 5.26532 5.79358C4.88743 5.89488 4.53319 6.06963 4.22283 6.30783C3.96001 6.51852 3.73411 6.77151 3.55441 7.05642C3.37025 7.33158 3.16875 7.67933 2.92825 8.09642L2.90116 8.14408C2.65958 8.56117 2.45916 8.90892 2.314 9.20575C2.16233 9.51558 2.04316 9.82108 1.99983 10.1591C1.89648 10.9423 2.10847 11.7345 2.58916 12.3615C2.83941 12.6876 3.1655 12.9248 3.53383 13.1567C3.67102 13.238 3.78532 13.3528 3.86603 13.4904C3.94675 13.6279 3.99124 13.7837 3.99533 13.9432C3.99124 14.1026 3.94675 14.2584 3.86603 14.3959C3.78532 14.5335 3.67102 14.6483 3.53383 14.7297C3.1655 14.9615 2.8405 15.1987 2.58916 15.5248C2.35096 15.8352 2.17621 16.1894 2.07491 16.5673C1.97361 16.9452 1.94773 17.3394 1.99875 17.7273C2.04316 18.0653 2.16125 18.3707 2.31291 18.6806C2.45916 18.9774 2.65958 19.3252 2.90116 19.7423L2.92825 19.7899C3.16875 20.207 3.37025 20.5548 3.55441 20.8299C3.74616 21.1148 3.952 21.3716 4.22283 21.5774C4.53311 21.8158 4.88731 21.9908 5.2652 22.0922C5.6431 22.1937 6.03728 22.2198 6.42525 22.1689C6.83258 22.1147 7.20091 21.9523 7.58658 21.7475C7.72547 21.6699 7.88176 21.6286 8.04088 21.6277C8.2 21.6267 8.35677 21.6661 8.49658 21.7421C8.63342 21.8243 8.74684 21.9403 8.82594 22.079C8.90505 22.2177 8.94719 22.3744 8.94833 22.534C8.96458 22.9695 9.00683 23.3703 9.165 23.7495C9.3146 24.1111 9.53395 24.4396 9.81054 24.7164C10.0871 24.9932 10.4155 25.2127 10.777 25.3626C11.0912 25.4926 11.4162 25.5435 11.7596 25.5662C12.0889 25.589 12.4908 25.589 12.9729 25.589H13.0271C13.5092 25.589 13.9111 25.589 14.2404 25.5673C14.5849 25.5435 14.9088 25.4926 15.223 25.3615C15.5846 25.2119 15.9131 24.9925 16.1899 24.716C16.4667 24.4394 16.6862 24.111 16.8361 23.7495C16.9932 23.3703 17.0354 22.9695 17.0527 22.534C17.0545 22.3746 17.0967 22.2182 17.1753 22.0795C17.2539 21.9408 17.3664 21.8244 17.5023 21.741C17.6424 21.665 17.7994 21.6257 17.9587 21.6268C18.118 21.628 18.2745 21.6695 18.4134 21.7475C18.7991 21.9512 19.1674 22.1147 19.5747 22.1678C20.358 22.2712 21.1502 22.0592 21.7772 21.5785C22.048 21.3705 22.2538 21.1148 22.4456 20.8299C22.6297 20.5548 22.8312 20.207 23.0717 19.7899L23.0988 19.7423C23.3404 19.3252 23.5408 18.9774 23.686 18.6806C23.8377 18.3707 23.9568 18.0642 24.0002 17.7273C24.1035 16.944 23.8915 16.1518 23.4108 15.5248C23.1606 15.1987 22.8345 14.9615 22.4662 14.7297C22.329 14.6483 22.2147 14.5335 22.134 14.3959C22.0532 14.2584 22.0088 14.1026 22.0047 13.9432C22.0047 13.642 22.1693 13.343 22.4662 13.1567C22.8345 12.9248 23.1595 12.6876 23.4108 12.3615C23.649 12.0511 23.8238 11.6969 23.9251 11.319C24.0264 10.9411 24.0523 10.547 24.0012 10.1591C23.9502 9.82606 23.844 9.50388 23.6871 9.20575C23.5021 8.84584 23.3059 8.49178 23.0988 8.14408L23.0717 8.09642C22.8739 7.74334 22.665 7.3965 22.4456 7.05642C22.2658 6.77189 22.0399 6.51927 21.7772 6.30892C21.4669 6.07052 21.1127 5.89558 20.7348 5.79409C20.3569 5.6926 19.9627 5.66655 19.5747 5.71742C19.1674 5.77158 18.7991 5.93408 18.4134 6.13883C18.2745 6.21648 18.1182 6.2577 17.9591 6.25865C17.8 6.25959 17.6432 6.22024 17.5034 6.14425C17.3673 6.06124 17.2544 5.94505 17.1754 5.80655C17.0964 5.66805 17.0538 5.51177 17.0517 5.35233C17.0354 4.91683 16.9932 4.516 16.835 4.13683C16.6854 3.77527 16.466 3.44672 16.1895 3.16994C15.9129 2.89317 15.5845 2.67359 15.223 2.52375C14.9088 2.39375 14.5838 2.34283 14.2404 2.32008C13.9111 2.29733 13.5092 2.29733 13.0271 2.29733H12.9729ZM11.3988 4.02525C11.4822 3.99058 11.609 3.95917 11.8701 3.94075C12.1377 3.92233 12.4843 3.92233 13 3.92233C13.5157 3.92233 13.8623 3.92233 14.1299 3.94075C14.391 3.95917 14.5177 3.99058 14.6012 4.02525C14.9337 4.16283 15.197 4.42608 15.3346 4.75867C15.3779 4.86267 15.4137 5.02625 15.4277 5.413C15.4602 6.271 15.9033 7.09758 16.6898 7.5515C17.4763 8.00542 18.4134 7.97617 19.1728 7.57533C19.5152 7.39442 19.6744 7.3435 19.7871 7.32942C20.143 7.28238 20.5031 7.37863 20.7881 7.597C20.8596 7.65225 20.9506 7.7465 21.0968 7.96317C21.2474 8.18633 21.4207 8.48642 21.6786 8.93275C21.9364 9.37908 22.1087 9.68025 22.2267 9.92075C22.3427 10.1558 22.3784 10.2815 22.3892 10.3714C22.4363 10.7274 22.34 11.0874 22.1217 11.3724C22.0523 11.4623 21.9288 11.575 21.6017 11.7808C20.8737 12.238 20.3797 13.0353 20.3797 13.9432C20.3797 14.851 20.8737 15.6483 21.6017 16.1055C21.9288 16.3113 22.0523 16.424 22.1217 16.5139C22.3405 16.7988 22.4358 17.1585 22.3892 17.5149C22.3784 17.6048 22.3416 17.7316 22.2267 17.9656C22.1087 18.2072 21.9364 18.5072 21.6786 18.9536C21.4207 19.3999 21.2463 19.7 21.0968 19.9232C20.9506 20.1398 20.8596 20.2341 20.7881 20.2893C20.5031 20.5077 20.143 20.604 19.7871 20.5569C19.6744 20.5428 19.5162 20.4919 19.1728 20.311C18.4145 19.9102 17.4763 19.8798 16.6898 20.3337C15.9033 20.7877 15.4602 21.6153 15.4277 22.4733C15.4137 22.8601 15.3779 23.0237 15.3346 23.1277C15.2665 23.2921 15.1667 23.4415 15.0409 23.5674C14.915 23.6932 14.7656 23.793 14.6012 23.8611C14.5177 23.8958 14.391 23.9272 14.1299 23.9456C13.8623 23.964 13.5157 23.964 13 23.964C12.4843 23.964 12.1377 23.964 11.8701 23.9456C11.609 23.9272 11.4822 23.8958 11.3988 23.8611C11.2344 23.793 11.085 23.6932 10.9591 23.5674C10.8333 23.4415 10.7335 23.2921 10.6654 23.1277C10.6221 23.0237 10.5863 22.8601 10.5722 22.4733C10.5397 21.6153 10.0967 20.7887 9.31016 20.3348C8.52366 19.8809 7.58658 19.9102 6.82716 20.311C6.48483 20.4919 6.32558 20.5428 6.21291 20.5569C5.85697 20.604 5.49691 20.5077 5.21191 20.2893C5.14041 20.2341 5.04941 20.1398 4.90316 19.9232C4.69937 19.606 4.50536 19.2827 4.32141 18.9536C4.06358 18.5072 3.89133 18.2061 3.77325 17.9656C3.65733 17.7305 3.62158 17.6048 3.61075 17.5149C3.56371 17.159 3.65996 16.7989 3.87833 16.5139C3.94766 16.424 4.07116 16.3113 4.39833 16.1055C5.12633 15.6483 5.62033 14.851 5.62033 13.9432C5.62033 13.0353 5.12633 12.238 4.39833 11.7808C4.07116 11.575 3.94766 11.4623 3.87833 11.3724C3.65996 11.0874 3.56371 10.7274 3.61075 10.3714C3.62158 10.2815 3.65841 10.1547 3.77325 9.92075C3.89133 9.67917 4.06358 9.37908 4.32141 8.93275C4.57925 8.48642 4.75366 8.18633 4.90316 7.96317C5.04941 7.7465 5.14041 7.65225 5.21191 7.597C5.49691 7.37863 5.85697 7.28238 6.21291 7.32942C6.32558 7.3435 6.48375 7.39442 6.82716 7.57533C7.5855 7.97617 8.52366 8.0065 9.31016 7.5515C10.0967 7.09758 10.5397 6.271 10.5722 5.413C10.5863 5.02625 10.6221 4.86267 10.6654 4.75867C10.803 4.42608 11.0662 4.16283 11.3988 4.02525Z" fill="#959595"/>
</svg>
