<svg width="26" height="27" viewBox="0 0 26 27" fill="none" xmlns="http://www.w3.org/2000/svg">
<path d="M19.5 17.193L22.75 13.943M22.75 13.943L19.5 10.693M22.75 13.943H7.58333M15.1667 18.2763V21.093C15.1667 21.4344 15.0994 21.7725 14.9688 22.088C14.8381 22.4034 14.6466 22.69 14.4051 22.9315C14.1637 23.1729 13.8771 23.3644 13.5616 23.4951C13.2462 23.6257 12.9081 23.693 12.5667 23.693H5.85C5.16044 23.693 4.49912 23.4191 4.01152 22.9315C3.52393 22.4439 3.25 21.7826 3.25 21.093V6.79299C3.25 6.45156 3.31725 6.11346 3.44791 5.79802C3.57858 5.48257 3.77009 5.19595 4.01152 4.95452C4.49912 4.46692 5.16044 4.19299 5.85 4.19299H12.5667C12.9081 4.19299 13.2462 4.26024 13.5616 4.39091C13.8771 4.52157 14.1637 4.71308 14.4051 4.95452C14.6466 5.19595 14.8381 5.48257 14.9688 5.79802C15.0994 6.11346 15.1667 6.45156 15.1667 6.79299V9.60966" stroke="#959595" stroke-width="1.625" stroke-miterlimit="10" stroke-linecap="round" stroke-linejoin="round"/>
</svg>
