<svg width="26" height="26" viewBox="0 0 26 26" fill="none" xmlns="http://www.w3.org/2000/svg">
<path fill-rule="evenodd" clip-rule="evenodd" d="M21.4501 11.0284C21.1142 7.58337 19.0776 2.16669 12.7834 2.16669C6.48924 2.16669 4.45255 7.58337 4.11674 11.0284C2.93861 11.4755 2.16151 12.6066 2.16674 13.8667V15.3834C2.16674 17.0586 3.52483 18.4167 5.20005 18.4167C6.87533 18.4167 8.23342 17.0586 8.23342 15.3834V13.8667C8.22794 12.6338 7.47942 11.5259 6.33755 11.0609C6.55424 9.0675 7.61592 4.33337 12.7834 4.33337C17.9509 4.33337 19.0017 9.0675 19.2184 11.0609C18.0789 11.5269 17.3341 12.6355 17.3334 13.8667V15.3834C17.3357 15.9541 17.4985 16.5127 17.8031 16.9955C18.1076 17.4782 18.5418 17.8656 19.0559 18.1134C18.6009 18.9692 17.4417 20.1284 14.5926 20.475C14.023 19.6102 12.9211 19.2693 11.9627 19.6613C11.0043 20.0534 10.4572 21.0688 10.6571 22.0849C10.857 23.1009 11.7479 23.8334 12.7834 23.8334C13.1847 23.8311 13.5774 23.7175 13.9179 23.5052C14.2583 23.2929 14.5332 22.9902 14.7117 22.6309C19.3592 22.1 20.8434 19.7059 21.3092 18.2975C22.5695 17.8893 23.4171 16.708 23.4001 15.3834V13.8667C23.4053 12.6066 22.6282 11.4755 21.4501 11.0284ZM6.06674 15.3834C6.06674 15.862 5.67872 16.25 5.20005 16.25C4.72139 16.25 4.33342 15.862 4.33342 15.3834V13.8667C4.33254 13.7523 4.35431 13.6389 4.39748 13.533C4.44064 13.4271 4.50434 13.3307 4.5849 13.2496C4.66546 13.1684 4.7613 13.1039 4.86688 13.06C4.97246 13.016 5.08571 12.9934 5.20008 12.9934C5.31445 12.9934 5.42769 13.016 5.53328 13.06C5.63886 13.1039 5.73469 13.1684 5.81526 13.2496C5.89582 13.3307 5.95952 13.4271 6.00268 13.533C6.04584 13.6389 6.06761 13.7523 6.06674 13.8667V15.3834ZM19.5001 13.8667C19.5001 13.388 19.8881 13 20.3667 13C20.8454 13 21.2334 13.388 21.2334 13.8667V15.3834C21.2334 15.862 20.8454 16.25 20.3667 16.25C19.8881 16.25 19.5001 15.862 19.5001 15.3834V13.8667Z" fill="#959595"/>
</svg>
