<svg width="26" height="27" viewBox="0 0 26 27" fill="none" xmlns="http://www.w3.org/2000/svg">
<path d="M8.125 17.2568V2.63184L9.75 3.44434L11.375 2.63184L12.997 3.44434L14.6407 2.63184L16.25 3.44434L17.8643 2.63184L19.4858 3.44434L21.125 2.63184L22.7505 3.44434L24.375 2.63184V14.0068" stroke="#959595" stroke-width="1.625" stroke-linejoin="round"/>
<path d="M24.375 14.0068V19.6943C24.375 20.7718 23.947 21.8051 23.1851 22.567C22.4233 23.3288 21.3899 23.7568 20.3125 23.7568M20.3125 23.7568C19.2351 23.7568 18.2017 23.3288 17.4399 22.567C16.678 21.8051 16.25 20.7718 16.25 19.6943V17.2568H2.4375C2.33054 17.2559 2.22446 17.2763 2.12545 17.3168C2.02645 17.3572 1.9365 17.4171 1.86086 17.4927C1.78523 17.5683 1.72541 17.6583 1.68492 17.7573C1.64442 17.8563 1.62405 17.9624 1.625 18.0693C1.625 21.3193 1.96727 23.7568 5.6875 23.7568H20.3125Z" stroke="#959595" stroke-width="1.625" stroke-linejoin="round"/>
<path d="M11.375 7.50684H21.125M14.625 11.5693H21.125" stroke="#959595" stroke-width="1.625" stroke-linecap="round" stroke-linejoin="round"/>
</svg>
