<svg width="169" height="127" viewBox="0 0 169 127" fill="none" xmlns="http://www.w3.org/2000/svg">
<path d="M136.28 60.4669L146.013 34.2944L146.523 34.4308C155.701 36.8856 164.964 31.5317 167.419 22.3532C169.874 13.1746 164.52 3.91137 155.342 1.45656C146.163 -0.99825 136.9 4.35563 134.445 13.5342C132.217 21.8629 136.642 30.5133 144.528 33.7151L134.796 59.8876C134.116 59.7058 133.311 59.3084 132.631 59.1266C119.714 55.6719 106.563 61.2608 99.8576 72.0337L70.1875 56.9958C70.6757 55.8513 71.164 54.7068 71.4819 53.5182C74.2546 43.1511 68.1533 32.5948 57.7863 29.8222C47.4192 27.0495 36.863 33.1507 34.0903 43.5177C31.9537 51.5064 35.1885 59.8385 41.6453 64.2965L20.37 99.585C19.5655 99.1877 18.8855 99.0058 18.0355 98.7785C10.3869 96.7329 2.63174 101.215 0.586108 108.864C-1.45952 116.512 3.02273 124.267 10.6713 126.313C18.32 128.359 26.0751 123.877 28.1207 116.228C29.8027 109.939 27.1331 103.58 21.8077 100.334L43.0831 65.0454C44.5221 65.7946 46.1312 66.5893 47.8297 67.0435C56.3281 69.3165 65.0125 65.4471 69.482 58.2646L99.0275 73.0873C97.9264 75.1609 96.9502 77.4487 96.3138 79.8285C92.0862 95.6355 101.549 112.008 117.356 116.235C133.073 120.803 149.23 111.466 153.458 95.6582C157.367 81.0411 149.888 66.1099 136.28 60.4669Z" fill="url(#paint0_linear_386_852)"/>
<defs>
<linearGradient id="paint0_linear_386_852" x1="-3" y1="8.5" x2="159" y2="136" gradientUnits="userSpaceOnUse">
<stop stop-color="white"/>
<stop offset="0.55166" stop-color="#AAA1A1"/>
<stop offset="0.596154" stop-color="#656464"/>
<stop offset="0.764423" stop-color="white"/>
<stop offset="1" stop-color="#D6D6D6"/>
</linearGradient>
</defs>
</svg>
