<svg width="26" height="26" viewBox="0 0 26 26" fill="none" xmlns="http://www.w3.org/2000/svg">
<path d="M20.5833 13C20.5833 13.2873 20.4692 13.5629 20.266 13.766C20.0629 13.9692 19.7873 14.0833 19.5 14.0833C19.2127 14.0833 18.9371 13.9692 18.734 13.766C18.5308 13.5629 18.4167 13.2873 18.4167 13C18.4167 12.7127 18.5308 12.4371 18.734 12.234C18.9371 12.0308 19.2127 11.9167 19.5 11.9167C19.7873 11.9167 20.0629 12.0308 20.266 12.234C20.4692 12.4371 20.5833 12.7127 20.5833 13Z" fill="#959595"/>
<path fill-rule="evenodd" clip-rule="evenodd" d="M10.7727 3.52084H14.144C16.1352 3.52084 17.7125 3.52084 18.9464 3.68659C20.2161 3.85776 21.2442 4.21743 22.0556 5.02776C23.0566 6.02984 23.3762 7.37101 23.4921 9.11193C24.1172 9.38601 24.5895 9.96776 24.6404 10.7044C24.6458 10.7705 24.6458 10.8409 24.6458 10.9059V15.0941C24.6458 15.1591 24.6458 15.2295 24.6415 15.2945C24.5895 16.0312 24.1172 16.614 23.4921 16.8892C23.3762 18.629 23.0566 19.9702 22.0556 20.9723C21.2442 21.7826 20.2161 22.1423 18.9464 22.3134C17.7114 22.4792 16.1352 22.4792 14.144 22.4792H10.7727C8.7815 22.4792 7.20417 22.4792 5.97025 22.3134C4.70058 22.1423 3.6725 21.7826 2.86108 20.9723C2.05075 20.1608 1.69108 19.1328 1.51992 17.8631C1.35417 16.6281 1.35417 15.0518 1.35417 13.0607V12.9393C1.35417 10.9482 1.35417 9.37084 1.51992 8.13693C1.69108 6.86726 2.05075 5.83918 2.86108 5.02776C3.6725 4.21743 4.70058 3.85776 5.97025 3.68659C7.20525 3.52084 8.7815 3.52084 10.7727 3.52084ZM21.8487 17.0625H19.7492C17.4254 17.0625 15.4364 15.2988 15.4364 13C15.4364 10.7012 17.4254 8.93751 19.7481 8.93751H21.8476C21.7241 7.48476 21.4457 6.71668 20.9051 6.17718C20.4468 5.71893 19.8185 5.44376 18.7287 5.29751C17.6161 5.14801 16.1482 5.14584 14.0823 5.14584H10.8323C8.76633 5.14584 7.2995 5.14801 6.18475 5.29751C5.096 5.44376 4.46767 5.71893 4.00942 6.17718C3.55117 6.63543 3.27708 7.26376 3.13083 8.35251C2.98133 9.46618 2.97917 10.933 2.97917 12.9989C2.97917 15.0648 2.98133 16.5328 3.13083 17.6464C3.27708 18.7352 3.55225 19.3635 4.0105 19.8218C4.46875 20.28 5.09708 20.5552 6.18692 20.7014C7.30058 20.8509 8.76742 20.8531 10.8333 20.8531H14.0833C16.1493 20.8531 17.6172 20.8509 18.7308 20.7014C19.8196 20.5552 20.4479 20.28 20.9062 19.8218C21.4468 19.2823 21.7252 18.5153 21.8487 17.0614M5.6875 8.66668C5.6875 8.45119 5.7731 8.24453 5.92548 8.09215C6.07785 7.93978 6.28451 7.85418 6.5 7.85418H10.8333C11.0488 7.85418 11.2555 7.93978 11.4079 8.09215C11.5602 8.24453 11.6458 8.45119 11.6458 8.66668C11.6458 8.88217 11.5602 9.08883 11.4079 9.2412C11.2555 9.39357 11.0488 9.47918 10.8333 9.47918H6.5C6.28451 9.47918 6.07785 9.39357 5.92548 9.2412C5.7731 9.08883 5.6875 8.88217 5.6875 8.66668ZM22.6677 10.5625H19.7492C18.2065 10.5625 17.0614 11.7098 17.0614 13C17.0614 14.2903 18.2065 15.4375 19.7481 15.4375H22.6926C22.9158 15.4234 23.0122 15.2728 23.0198 15.1818V10.8182C23.0122 10.7272 22.9158 10.5766 22.6926 10.5636L22.6677 10.5625Z" fill="#959595"/>
</svg>
