<svg width="2046" height="753" viewBox="0 0 2046 753" fill="none" xmlns="http://www.w3.org/2000/svg">
<g clip-path="url(#clip0_551_2184)">
<g opacity="0.14" filter="url(#filter0_f_551_2184)">
<path d="M70.2948 484L6.51294 254.026H43.0078L87.8123 432.121H89.9459L136.547 254.026H172.705L219.306 432.233H221.44L266.132 254.026H302.739L238.845 484H203.922L155.524 311.744H153.728L105.33 484H70.2948ZM370.063 487.481C353.069 487.481 338.434 483.85 326.157 476.589C313.954 469.252 304.522 458.959 297.859 445.708C291.271 432.383 287.977 416.775 287.977 398.883C287.977 381.215 291.271 365.644 297.859 352.169C304.522 338.694 313.804 328.176 325.707 320.615C337.685 313.054 351.684 309.274 367.705 309.274C377.437 309.274 386.869 310.883 396.002 314.102C405.135 317.321 413.333 322.374 420.594 329.262C427.856 336.149 433.583 345.095 437.775 356.099C441.967 367.029 444.063 380.317 444.063 395.963V407.866H306.955V382.713H411.162C411.162 373.879 409.365 366.056 405.772 359.244C402.178 352.356 397.125 346.929 390.612 342.961C384.174 338.994 376.613 337.01 367.929 337.01C358.497 337.01 350.262 339.33 343.225 343.972C336.263 348.538 330.873 354.527 327.055 361.939C323.312 369.275 321.44 377.248 321.44 385.857V405.508C321.44 417.037 323.462 426.843 327.504 434.928C331.621 443.013 337.348 449.189 344.685 453.457C352.021 457.649 360.593 459.745 370.4 459.745C376.763 459.745 382.565 458.847 387.805 457.05C393.045 455.178 397.574 452.409 401.392 448.74C405.21 445.072 408.13 440.543 410.151 435.153L441.93 440.88C439.384 450.238 434.818 458.435 428.23 465.472C421.717 472.434 413.52 477.861 403.638 481.754C393.831 485.572 382.639 487.481 370.063 487.481ZM577.25 487.818C566.321 487.818 556.439 485.797 547.605 481.754C538.772 477.637 531.772 471.685 526.607 463.9C521.516 456.114 518.971 446.569 518.971 435.265C518.971 425.533 520.842 417.523 524.586 411.235C528.329 404.946 533.382 399.968 539.745 396.3C546.108 392.632 553.22 389.862 561.08 387.99C568.941 386.119 576.951 384.696 585.111 383.723C595.442 382.525 603.826 381.552 610.264 380.804C616.702 379.98 621.381 378.67 624.301 376.873C627.22 375.077 628.68 372.157 628.68 368.115V367.329C628.68 357.522 625.91 349.923 620.371 344.533C614.906 339.143 606.746 336.448 595.891 336.448C584.587 336.448 575.678 338.956 569.165 343.972C562.727 348.913 558.273 354.415 555.803 360.479L524.249 353.292C527.992 342.812 533.457 334.352 540.643 327.914C547.905 321.401 556.252 316.685 565.684 313.765C575.117 310.771 585.036 309.274 595.442 309.274C602.329 309.274 609.628 310.097 617.339 311.744C625.124 313.316 632.386 316.236 639.123 320.503C645.936 324.77 651.513 330.871 655.855 338.806C660.197 346.667 662.368 356.885 662.368 369.462V484H629.579V460.419H628.231C626.06 464.761 622.804 469.028 618.462 473.22C614.12 477.412 608.543 480.893 601.73 483.663C594.918 486.433 586.758 487.818 577.25 487.818ZM584.549 460.868C593.832 460.868 601.768 459.034 608.355 455.366C615.018 451.697 620.071 446.906 623.515 440.992C627.033 435.003 628.793 428.603 628.793 421.79V399.556C627.595 400.754 625.274 401.877 621.83 402.925C618.462 403.898 614.606 404.759 610.264 405.508C605.922 406.182 601.693 406.818 597.575 407.417C593.458 407.941 590.014 408.39 587.244 408.764C580.732 409.588 574.78 410.973 569.39 412.919C564.075 414.866 559.808 417.673 556.589 421.341C553.445 424.934 551.872 429.726 551.872 435.714C551.872 444.024 554.942 450.312 561.08 454.579C567.219 458.772 575.042 460.868 584.549 460.868ZM688.115 484V311.519H720.568V338.919H722.364C725.508 329.636 731.048 322.337 738.984 317.022C746.994 311.632 756.052 308.937 766.158 308.937C768.254 308.937 770.725 309.012 773.569 309.161C776.489 309.311 778.772 309.498 780.419 309.723V341.838C779.072 341.464 776.676 341.052 773.233 340.603C769.789 340.079 766.345 339.817 762.902 339.817C754.966 339.817 747.892 341.501 741.679 344.87C735.54 348.164 730.674 352.768 727.081 358.682C723.487 364.521 721.691 371.184 721.691 378.67V484H688.115ZM858.663 487.481C841.67 487.481 827.034 483.85 814.757 476.589C802.555 469.252 793.122 458.959 786.459 445.708C779.872 432.383 776.578 416.775 776.578 398.883C776.578 381.215 779.872 365.644 786.459 352.169C793.122 338.694 802.405 328.176 814.308 320.615C826.286 313.054 840.285 309.274 856.305 309.274C866.037 309.274 875.47 310.883 884.603 314.102C893.736 317.321 901.933 322.374 909.195 329.262C916.456 336.149 922.183 345.095 926.375 356.099C930.568 367.029 932.664 380.317 932.664 395.963V407.866H795.555V382.713H899.762C899.762 373.879 897.965 366.056 894.372 359.244C890.779 352.356 885.726 346.929 879.213 342.961C872.775 338.994 865.214 337.01 856.53 337.01C847.097 337.01 838.862 339.33 831.825 343.972C824.863 348.538 819.473 354.527 815.655 361.939C811.912 369.275 810.041 377.248 810.041 385.857V405.508C810.041 417.037 812.062 426.843 816.105 434.928C820.222 443.013 825.949 449.189 833.285 453.457C840.622 457.649 849.193 459.745 859 459.745C865.363 459.745 871.165 458.847 876.405 457.05C881.646 455.178 886.175 452.409 889.993 448.74C893.811 445.072 896.73 440.543 898.751 435.153L930.53 440.88C927.985 450.238 923.418 458.435 916.83 465.472C910.318 472.434 902.12 477.861 892.238 481.754C882.432 485.572 871.24 487.481 858.663 487.481ZM1096.17 311.519V338.47H1001.96V311.519H1096.17ZM1027.22 270.196H1060.8V433.356C1060.8 439.869 1061.77 444.773 1063.72 448.067C1065.66 451.286 1068.17 453.494 1071.24 454.692C1074.39 455.815 1077.79 456.376 1081.46 456.376C1084.15 456.376 1086.51 456.189 1088.53 455.815C1090.56 455.44 1092.13 455.141 1093.25 454.916L1099.31 482.652C1097.37 483.401 1094.6 484.15 1091 484.898C1087.41 485.722 1082.92 486.171 1077.53 486.246C1068.7 486.396 1060.46 484.823 1052.83 481.53C1045.19 478.236 1039.01 473.145 1034.3 466.258C1029.58 459.371 1027.22 450.724 1027.22 440.318V270.196ZM1151.62 381.59V484H1118.04V254.026H1151.17V339.592H1153.3C1157.35 330.31 1163.52 322.936 1171.83 317.471C1180.14 312.006 1191 309.274 1204.4 309.274C1216.22 309.274 1226.55 311.707 1235.39 316.573C1244.3 321.439 1251.18 328.7 1256.05 338.357C1260.99 347.94 1263.46 359.917 1263.46 374.291V484H1229.89V378.333C1229.89 365.682 1226.63 355.875 1220.12 348.913C1213.6 341.876 1204.55 338.357 1192.94 338.357C1185.01 338.357 1177.89 340.042 1171.61 343.41C1165.39 346.779 1160.49 351.72 1156.9 358.233C1153.38 364.671 1151.62 372.457 1151.62 381.59ZM1363.63 487.481C1346.64 487.481 1332 483.85 1319.72 476.589C1307.52 469.252 1298.09 458.959 1291.43 445.708C1284.84 432.383 1281.54 416.775 1281.54 398.883C1281.54 381.215 1284.84 365.644 1291.43 352.169C1298.09 338.694 1307.37 328.176 1319.27 320.615C1331.25 313.054 1345.25 309.274 1361.27 309.274C1371 309.274 1380.44 310.883 1389.57 314.102C1398.7 317.321 1406.9 322.374 1414.16 329.262C1421.42 336.149 1427.15 345.095 1431.34 356.099C1435.53 367.029 1437.63 380.317 1437.63 395.963V407.866H1300.52V382.713H1404.73C1404.73 373.879 1402.93 366.056 1399.34 359.244C1395.75 352.356 1390.69 346.929 1384.18 342.961C1377.74 338.994 1370.18 337.01 1361.5 337.01C1352.06 337.01 1343.83 339.33 1336.79 343.972C1329.83 348.538 1324.44 354.527 1320.62 361.939C1316.88 369.275 1315.01 377.248 1315.01 385.857V405.508C1315.01 417.037 1317.03 426.843 1321.07 434.928C1325.19 443.013 1330.92 449.189 1338.25 453.457C1345.59 457.649 1354.16 459.745 1363.97 459.745C1370.33 459.745 1376.13 458.847 1381.37 457.05C1386.61 455.178 1391.14 452.409 1394.96 448.74C1398.78 445.072 1401.7 440.543 1403.72 435.153L1435.5 440.88C1432.95 450.238 1428.39 458.435 1421.8 465.472C1415.28 472.434 1407.09 477.861 1397.21 481.754C1387.4 485.572 1376.21 487.481 1363.63 487.481ZM1593.28 487.481C1577.11 487.481 1562.99 483.775 1550.94 476.364C1538.89 468.953 1529.53 458.585 1522.87 445.259C1516.21 431.934 1512.88 416.363 1512.88 398.546C1512.88 380.654 1516.21 365.008 1522.87 351.608C1529.53 338.208 1538.89 327.802 1550.94 320.391C1562.99 312.979 1577.11 309.274 1593.28 309.274C1609.45 309.274 1623.56 312.979 1635.61 320.391C1647.66 327.802 1657.02 338.208 1663.68 351.608C1670.35 365.008 1673.68 380.654 1673.68 398.546C1673.68 416.363 1670.35 431.934 1663.68 445.259C1657.02 458.585 1647.66 468.953 1635.61 476.364C1623.56 483.775 1609.45 487.481 1593.28 487.481ZM1593.39 459.296C1603.87 459.296 1612.55 456.526 1619.44 450.986C1626.33 445.446 1631.42 438.073 1634.71 428.865C1638.08 419.657 1639.77 409.513 1639.77 398.433C1639.77 387.429 1638.08 377.323 1634.71 368.115C1631.42 358.832 1626.33 351.383 1619.44 345.769C1612.55 340.154 1603.87 337.347 1593.39 337.347C1582.83 337.347 1574.07 340.154 1567.11 345.769C1560.23 351.383 1555.1 358.832 1551.73 368.115C1548.43 377.323 1546.79 387.429 1546.79 398.433C1546.79 409.513 1548.43 419.657 1551.73 428.865C1555.1 438.073 1560.23 445.446 1567.11 450.986C1574.07 456.526 1582.83 459.296 1593.39 459.296ZM1725.76 381.59V484H1692.18V311.519H1724.41V339.592H1726.54C1730.51 330.459 1736.72 323.123 1745.18 317.583C1753.72 312.044 1764.46 309.274 1777.41 309.274C1789.16 309.274 1799.46 311.744 1808.29 316.685C1817.13 321.551 1823.98 328.812 1828.84 338.47C1833.71 348.127 1836.14 360.067 1836.14 374.291V484H1802.57V378.333C1802.57 365.831 1799.31 356.062 1792.8 349.025C1786.28 341.913 1777.34 338.357 1765.96 338.357C1758.17 338.357 1751.25 340.042 1745.18 343.41C1739.19 346.779 1734.44 351.72 1730.92 358.233C1727.48 364.671 1725.76 372.457 1725.76 381.59ZM1936.53 487.481C1919.54 487.481 1904.9 483.85 1892.63 476.589C1880.43 469.252 1870.99 458.959 1864.33 445.708C1857.74 432.383 1854.45 416.775 1854.45 398.883C1854.45 381.215 1857.74 365.644 1864.33 352.169C1870.99 338.694 1880.28 328.176 1892.18 320.615C1904.16 313.054 1918.16 309.274 1934.18 309.274C1943.91 309.274 1953.34 310.883 1962.47 314.102C1971.61 317.321 1979.8 322.374 1987.07 329.262C1994.33 336.149 2000.05 345.095 2004.25 356.099C2008.44 367.029 2010.53 380.317 2010.53 395.963V407.866H1873.43V382.713H1977.63C1977.63 373.879 1975.84 366.056 1972.24 359.244C1968.65 352.356 1963.6 346.929 1957.08 342.961C1950.65 338.994 1943.08 337.01 1934.4 337.01C1924.97 337.01 1916.73 339.33 1909.7 343.972C1902.73 348.538 1897.34 354.527 1893.53 361.939C1889.78 369.275 1887.91 377.248 1887.91 385.857V405.508C1887.91 417.037 1889.93 426.843 1893.98 434.928C1898.09 443.013 1903.82 449.189 1911.16 453.457C1918.49 457.649 1927.06 459.745 1936.87 459.745C1943.23 459.745 1949.04 458.847 1954.28 457.05C1959.52 455.178 1964.05 452.409 1967.86 448.74C1971.68 445.072 1974.6 440.543 1976.62 435.153L2008.4 440.88C2005.86 450.238 2001.29 458.435 1994.7 465.472C1988.19 472.434 1979.99 477.861 1970.11 481.754C1960.3 485.572 1949.11 487.481 1936.53 487.481Z" fill="#66747F"/>
</g>
</g>
<defs>
<filter id="filter0_f_551_2184" x="-2.9873" y="244.526" width="2023.02" height="252.792" filterUnits="userSpaceOnUse" color-interpolation-filters="sRGB">
<feFlood flood-opacity="0" result="BackgroundImageFix"/>
<feBlend mode="normal" in="SourceGraphic" in2="BackgroundImageFix" result="shape"/>
<feGaussianBlur stdDeviation="4.75" result="effect1_foregroundBlur_551_2184"/>
</filter>
<clipPath id="clip0_551_2184">
<rect width="2054" height="285" fill="white" transform="translate(0 227)"/>
</clipPath>
</defs>
</svg>
