<svg width="157" height="155" viewBox="0 0 157 155" fill="none" xmlns="http://www.w3.org/2000/svg">
<g clip-path="url(#clip0_169_3983)">
<mask id="mask0_169_3983" style="mask-type:alpha" maskUnits="userSpaceOnUse" x="-45" y="-91" width="103" height="103">
<circle cx="6.22782" cy="-39.4411" r="51.2054" fill="#D9D9D9"/>
</mask>
<g mask="url(#mask0_169_3983)">
<g filter="url(#filter0_i_169_3983)">
<circle cx="79.576" cy="78.1922" r="71.2723" fill="white" fill-opacity="0.68"/>
</g>
</g>
<g filter="url(#filter1_i_169_3983)">
<circle cx="79.2299" cy="77.8451" r="69.5424" fill="url(#paint0_linear_169_3983)"/>
</g>
<circle cx="77.6539" cy="77.3462" r="59.3359" transform="rotate(15 77.6539 77.3462)" fill="black" stroke="url(#paint1_linear_169_3983)" stroke-width="0.345982"/>
</g>
<mask id="mask1_169_3983" style="mask-type:luminance" maskUnits="userSpaceOnUse" x="44" y="33" width="68" height="83">
<path d="M44 33H111.545V116H44V33Z" fill="white"/>
</mask>
<g mask="url(#mask1_169_3983)">
<g filter="url(#filter2_f_169_3983)">
<path d="M77.7723 33C70.4521 33 64.2936 38.0871 62.6428 44.9099C53.1532 50.4957 47.4779 60.8985 47.9742 71.9577C48.469 82.9904 55.0196 92.8143 64.933 97.5409C65.377 99.2031 66.9055 100.449 68.697 100.449H86.8486C88.6409 100.449 90.1745 99.2024 90.6178 97.5389C100.522 92.8133 107.063 82.9957 107.567 71.9754C108.072 60.9132 102.404 50.5059 92.9058 44.9128C91.2564 38.0888 85.0952 33.0003 77.7743 33.0003L77.7723 33ZM77.7723 35.5934C84.9496 35.5934 90.746 41.3891 90.746 48.567C90.746 55.745 84.9496 61.5381 77.7723 61.5381C70.5951 61.5381 64.8013 55.745 64.8013 48.567C64.8007 41.3898 70.5944 35.5934 77.7723 35.5934ZM70.7031 62.4303C72.8262 63.5185 75.2292 64.1325 77.7723 64.1325C80.3162 64.1325 82.7211 63.5185 84.8442 62.4303C94.1908 65.4852 100.949 74.2198 101.108 84.6577C98.6326 88.7698 95.0816 92.212 90.7461 94.5591V82.287C90.7461 80.1537 88.9809 78.4013 86.8476 78.4013V75.8053C86.8476 70.7985 82.7786 66.727 77.7718 66.727C72.7651 66.727 68.6961 70.798 68.6961 75.8053V78.4013C66.5634 78.4013 64.8002 80.1537 64.8002 82.287V94.5642C60.4672 92.2179 56.9168 88.7738 54.4412 84.6603C54.6008 74.2203 61.3521 65.484 70.7027 62.4313L70.7031 62.4303ZM77.7723 69.3128C81.387 69.3128 84.254 72.1901 84.254 75.8048V78.4008H71.2926V75.8048C71.2926 72.1895 74.1577 69.3128 77.7723 69.3128ZM68.6966 80.9949H86.8481C87.5888 80.9949 88.15 81.5458 88.15 82.2865V96.5523C88.15 97.2931 87.5888 97.8542 86.8481 97.8542H68.6966C67.9558 97.8542 67.3947 97.2931 67.3947 96.5523V82.2865C67.3947 81.5457 67.9558 80.9949 68.6966 80.9949ZM77.7723 83.5883C75.6391 83.5883 73.8867 85.3432 73.8867 87.4766C73.8867 89.1537 74.9704 90.5939 76.4705 91.1344V93.9563C76.4679 94.6764 77.0523 95.2608 77.7724 95.2582C78.4886 95.2556 79.0672 94.6726 79.0639 93.9563V91.1395C80.5698 90.6028 81.66 89.1588 81.66 87.4773C81.66 85.344 79.9051 83.589 77.7717 83.589L77.7723 83.5883ZM50.5384 103.031C49.8267 103.034 49.2494 103.611 49.2468 104.323V108.249L45.7711 107.061C45.0941 106.83 44.3572 107.19 44.1249 107.867C43.8932 108.544 44.2536 109.281 44.9306 109.513L48.4996 110.739L46.2705 113.964C45.8644 114.551 46.0092 115.356 46.5948 115.765C47.1836 116.178 47.9964 116.033 48.4057 115.441L50.5383 112.338L52.6838 115.441C53.0924 116.026 53.8949 116.171 54.4825 115.765C55.0681 115.356 55.2129 114.551 54.8068 113.964L52.5854 110.739L56.1467 109.513C56.8237 109.28 57.1841 108.544 56.9524 107.867C56.72 107.19 55.9832 106.83 55.3062 107.061L51.8415 108.249L51.8402 104.323C51.837 103.606 51.2553 103.027 50.5384 103.031ZM68.6966 103.031C67.9803 103.029 67.3973 103.607 67.3947 104.323V108.249L63.93 107.061C63.253 106.83 62.5161 107.19 62.2838 107.867C62.0521 108.543 62.4112 109.28 63.0869 109.513L66.6482 110.739L64.419 113.964C64.0149 114.554 64.1648 115.359 64.7537 115.765C65.3406 116.171 66.1456 116.026 66.555 115.441L68.6876 112.338L70.8331 115.441C71.2424 116.031 72.0532 116.176 72.6415 115.765C73.2277 115.357 73.3738 114.552 72.9684 113.964L70.7366 110.739L74.2979 109.513C74.9787 109.285 75.3443 108.547 75.1132 107.867C74.8809 107.189 74.1422 106.828 73.4645 107.061L69.9894 108.249L69.9881 104.323C69.9855 103.611 69.4089 103.034 68.6966 103.031ZM86.8481 103.031C86.1364 103.034 85.5591 103.611 85.5566 104.323V108.249L82.0814 107.061C81.4044 106.83 80.6676 107.19 80.4353 107.867C80.2042 108.547 80.5685 109.284 81.2481 109.513L84.8093 110.739L82.5802 113.964C82.1741 114.551 82.3189 115.356 82.9045 115.765C83.4934 116.176 84.3042 116.031 84.7129 115.441L86.8584 112.338L88.9937 115.441C89.4023 116.024 90.2054 116.169 90.7923 115.765C91.3818 115.36 91.533 114.555 91.1289 113.964L88.8971 110.739L92.4584 109.513C93.1354 109.28 93.4958 108.544 93.2641 107.867C93.0318 107.189 92.293 106.828 91.6153 107.061L88.1506 108.249L88.1499 104.323C88.1474 103.607 87.5644 103.028 86.8481 103.031ZM105.01 103.031C104.293 103.029 103.71 103.607 103.708 104.323V108.249L100.243 107.061C99.566 106.83 98.8291 107.19 98.5968 107.867C98.3651 108.543 98.7242 109.28 99.3999 109.513L102.961 110.739L100.732 113.964C100.328 114.554 100.478 115.359 101.067 115.765C101.654 116.169 102.457 116.025 102.865 115.441L105.011 112.338L107.146 115.441C107.555 116.031 108.366 116.176 108.954 115.765C109.541 115.357 109.687 114.552 109.281 113.964L107.05 110.739L110.611 109.513C111.29 109.284 111.655 108.546 111.424 107.867C111.191 107.19 110.455 106.83 109.778 107.061L106.302 108.249L106.302 104.323C106.299 103.611 105.722 103.031 105.01 103.031H105.01Z" fill="url(#paint2_linear_169_3983)"/>
</g>
<path d="M77.7723 33C70.4521 33 64.2936 38.0871 62.6428 44.9099C53.1532 50.4957 47.4779 60.8985 47.9742 71.9577C48.469 82.9904 55.0196 92.8143 64.933 97.5409C65.377 99.2031 66.9055 100.449 68.697 100.449H86.8486C88.6409 100.449 90.1745 99.2024 90.6178 97.5389C100.522 92.8133 107.063 82.9957 107.567 71.9754C108.072 60.9132 102.404 50.5059 92.9058 44.9128C91.2564 38.0888 85.0952 33.0003 77.7743 33.0003L77.7723 33ZM77.7723 35.5934C84.9496 35.5934 90.746 41.3891 90.746 48.567C90.746 55.745 84.9496 61.5381 77.7723 61.5381C70.5951 61.5381 64.8013 55.745 64.8013 48.567C64.8007 41.3898 70.5944 35.5934 77.7723 35.5934ZM70.7031 62.4303C72.8262 63.5185 75.2292 64.1325 77.7723 64.1325C80.3162 64.1325 82.7211 63.5185 84.8442 62.4303C94.1908 65.4852 100.949 74.2198 101.108 84.6577C98.6326 88.7698 95.0816 92.212 90.7461 94.5591V82.287C90.7461 80.1537 88.9809 78.4013 86.8476 78.4013V75.8053C86.8476 70.7985 82.7786 66.727 77.7718 66.727C72.7651 66.727 68.6961 70.798 68.6961 75.8053V78.4013C66.5634 78.4013 64.8002 80.1537 64.8002 82.287V94.5642C60.4672 92.2179 56.9168 88.7738 54.4412 84.6603C54.6008 74.2203 61.3521 65.484 70.7027 62.4313L70.7031 62.4303ZM77.7723 69.3128C81.387 69.3128 84.254 72.1901 84.254 75.8048V78.4008H71.2926V75.8048C71.2926 72.1895 74.1577 69.3128 77.7723 69.3128ZM68.6966 80.9949H86.8481C87.5888 80.9949 88.15 81.5458 88.15 82.2865V96.5523C88.15 97.2931 87.5888 97.8542 86.8481 97.8542H68.6966C67.9558 97.8542 67.3947 97.2931 67.3947 96.5523V82.2865C67.3947 81.5457 67.9558 80.9949 68.6966 80.9949ZM77.7723 83.5883C75.6391 83.5883 73.8867 85.3432 73.8867 87.4766C73.8867 89.1537 74.9704 90.5939 76.4705 91.1344V93.9563C76.4679 94.6764 77.0523 95.2608 77.7724 95.2582C78.4886 95.2556 79.0672 94.6726 79.0639 93.9563V91.1395C80.5698 90.6028 81.66 89.1588 81.66 87.4773C81.66 85.344 79.9051 83.589 77.7717 83.589L77.7723 83.5883ZM50.5384 103.031C49.8267 103.034 49.2494 103.611 49.2468 104.323V108.249L45.7711 107.061C45.0941 106.83 44.3572 107.19 44.1249 107.867C43.8932 108.544 44.2536 109.281 44.9306 109.513L48.4996 110.739L46.2705 113.964C45.8644 114.551 46.0092 115.356 46.5948 115.765C47.1836 116.178 47.9964 116.033 48.4057 115.441L50.5383 112.338L52.6838 115.441C53.0924 116.026 53.8949 116.171 54.4825 115.765C55.0681 115.356 55.2129 114.551 54.8068 113.964L52.5854 110.739L56.1467 109.513C56.8237 109.28 57.1841 108.544 56.9524 107.867C56.72 107.19 55.9832 106.83 55.3062 107.061L51.8415 108.249L51.8402 104.323C51.837 103.606 51.2553 103.027 50.5384 103.031ZM68.6966 103.031C67.9803 103.029 67.3973 103.607 67.3947 104.323V108.249L63.93 107.061C63.253 106.83 62.5161 107.19 62.2838 107.867C62.0521 108.543 62.4112 109.28 63.0869 109.513L66.6482 110.739L64.419 113.964C64.0149 114.554 64.1648 115.359 64.7537 115.765C65.3406 116.171 66.1456 116.026 66.555 115.441L68.6876 112.338L70.8331 115.441C71.2424 116.031 72.0532 116.176 72.6415 115.765C73.2277 115.357 73.3738 114.552 72.9684 113.964L70.7366 110.739L74.2979 109.513C74.9787 109.285 75.3443 108.547 75.1132 107.867C74.8809 107.189 74.1422 106.828 73.4645 107.061L69.9894 108.249L69.9881 104.323C69.9855 103.611 69.4089 103.034 68.6966 103.031ZM86.8481 103.031C86.1364 103.034 85.5591 103.611 85.5566 104.323V108.249L82.0814 107.061C81.4044 106.83 80.6676 107.19 80.4353 107.867C80.2042 108.547 80.5685 109.284 81.2481 109.513L84.8093 110.739L82.5802 113.964C82.1741 114.551 82.3189 115.356 82.9045 115.765C83.4934 116.176 84.3042 116.031 84.7129 115.441L86.8584 112.338L88.9937 115.441C89.4023 116.024 90.2054 116.169 90.7923 115.765C91.3818 115.36 91.533 114.555 91.1289 113.964L88.8971 110.739L92.4584 109.513C93.1354 109.28 93.4958 108.544 93.2641 107.867C93.0318 107.189 92.293 106.828 91.6153 107.061L88.1506 108.249L88.1499 104.323C88.1474 103.607 87.5644 103.028 86.8481 103.031ZM105.01 103.031C104.293 103.029 103.71 103.607 103.708 104.323V108.249L100.243 107.061C99.566 106.83 98.8291 107.19 98.5968 107.867C98.3651 108.543 98.7242 109.28 99.3999 109.513L102.961 110.739L100.732 113.964C100.328 114.554 100.478 115.359 101.067 115.765C101.654 116.169 102.457 116.025 102.865 115.441L105.011 112.338L107.146 115.441C107.555 116.031 108.366 116.176 108.954 115.765C109.541 115.357 109.687 114.552 109.281 113.964L107.05 110.739L110.611 109.513C111.29 109.284 111.655 108.546 111.424 107.867C111.191 107.19 110.455 106.83 109.778 107.061L106.302 108.249L106.302 104.323C106.299 103.611 105.722 103.031 105.01 103.031H105.01Z" fill="url(#paint3_linear_169_3983)"/>
</g>
<defs>
<filter id="filter0_i_169_3983" x="8.30371" y="6.91992" width="143.929" height="144.621" filterUnits="userSpaceOnUse" color-interpolation-filters="sRGB">
<feFlood flood-opacity="0" result="BackgroundImageFix"/>
<feBlend mode="normal" in="SourceGraphic" in2="BackgroundImageFix" result="shape"/>
<feColorMatrix in="SourceAlpha" type="matrix" values="0 0 0 0 0 0 0 0 0 0 0 0 0 0 0 0 0 0 127 0" result="hardAlpha"/>
<feOffset dx="1.38393" dy="2.07589"/>
<feGaussianBlur stdDeviation="1.52232"/>
<feComposite in2="hardAlpha" operator="arithmetic" k2="-1" k3="1"/>
<feColorMatrix type="matrix" values="0 0 0 0 1 0 0 0 0 1 0 0 0 0 1 0 0 0 0.25 0"/>
<feBlend mode="normal" in2="shape" result="effect1_innerShadow_169_3983"/>
</filter>
<filter id="filter1_i_169_3983" x="9.6875" y="8.30273" width="140.469" height="141.16" filterUnits="userSpaceOnUse" color-interpolation-filters="sRGB">
<feFlood flood-opacity="0" result="BackgroundImageFix"/>
<feBlend mode="normal" in="SourceGraphic" in2="BackgroundImageFix" result="shape"/>
<feColorMatrix in="SourceAlpha" type="matrix" values="0 0 0 0 0 0 0 0 0 0 0 0 0 0 0 0 0 0 127 0" result="hardAlpha"/>
<feOffset dx="1.38393" dy="2.07589"/>
<feGaussianBlur stdDeviation="1.52232"/>
<feComposite in2="hardAlpha" operator="arithmetic" k2="-1" k3="1"/>
<feColorMatrix type="matrix" values="0 0 0 0 1 0 0 0 0 1 0 0 0 0 1 0 0 0 0.25 0"/>
<feBlend mode="normal" in2="shape" result="effect1_innerShadow_169_3983"/>
</filter>
<filter id="filter2_f_169_3983" x="38.2547" y="27.2" width="79.0385" height="94.6" filterUnits="userSpaceOnUse" color-interpolation-filters="sRGB">
<feFlood flood-opacity="0" result="BackgroundImageFix"/>
<feBlend mode="normal" in="SourceGraphic" in2="BackgroundImageFix" result="shape"/>
<feGaussianBlur stdDeviation="2.9" result="effect1_foregroundBlur_169_3983"/>
</filter>
<linearGradient id="paint0_linear_169_3983" x1="25.9487" y1="19.7201" x2="120.748" y2="126.629" gradientUnits="userSpaceOnUse">
<stop stop-color="#0C0C0C"/>
<stop offset="0.330421" stop-color="#131313"/>
<stop offset="0.549811" stop-color="#1D1D1D"/>
<stop offset="1" stop-color="#0B0B0B"/>
</linearGradient>
<linearGradient id="paint1_linear_169_3983" x1="23.6806" y1="20.6052" x2="119.864" y2="130.281" gradientUnits="userSpaceOnUse">
<stop stop-color="#232323"/>
<stop offset="0.389423" stop-color="#585757"/>
<stop offset="0.711538" stop-color="#565454"/>
<stop offset="1"/>
</linearGradient>
<linearGradient id="paint2_linear_169_3983" x1="57.5112" y1="36.4084" x2="107.541" y2="113.746" gradientUnits="userSpaceOnUse">
<stop stop-color="#676767"/>
<stop offset="0.0001" stop-color="#B8B1B1"/>
<stop offset="0.221154" stop-color="#F2F2F2"/>
<stop offset="0.496343" stop-color="#CACACA"/>
<stop offset="0.582577" stop-color="#505050"/>
<stop offset="0.609681" stop-color="#B7AFAF"/>
<stop offset="0.920698" stop-color="#C9C9C9"/>
<stop offset="1" stop-color="white"/>
</linearGradient>
<linearGradient id="paint3_linear_169_3983" x1="57.5112" y1="36.4084" x2="107.541" y2="113.746" gradientUnits="userSpaceOnUse">
<stop stop-color="#676767"/>
<stop offset="0.0001" stop-color="#B8B1B1"/>
<stop offset="0.221154" stop-color="#F2F2F2"/>
<stop offset="0.496343" stop-color="#CACACA"/>
<stop offset="0.582577" stop-color="#505050"/>
<stop offset="0.609681" stop-color="#B7AFAF"/>
<stop offset="0.920698" stop-color="#C9C9C9"/>
<stop offset="1" stop-color="white"/>
</linearGradient>
<clipPath id="clip0_169_3983">
<rect width="156.384" height="155" fill="white"/>
</clipPath>
</defs>
</svg>
