<svg width="157" height="156" viewBox="0 0 157 156" fill="none" xmlns="http://www.w3.org/2000/svg">
<g clip-path="url(#clip0_169_3997)">
<mask id="mask0_169_3997" style="mask-type:alpha" maskUnits="userSpaceOnUse" x="-45" y="-91" width="103" height="103">
<circle cx="6.34403" cy="-39.2419" r="51.2054" fill="#D9D9D9"/>
</mask>
<g mask="url(#mask0_169_3997)">
<g filter="url(#filter0_i_169_3997)">
<circle cx="79.6922" cy="78.3915" r="71.2723" fill="white" fill-opacity="0.68"/>
</g>
</g>
<g filter="url(#filter1_i_169_3997)">
<circle cx="79.3461" cy="78.0444" r="69.5424" fill="url(#paint0_linear_169_3997)"/>
</g>
<circle cx="77.7701" cy="77.5454" r="59.3359" transform="rotate(15 77.7701 77.5454)" fill="black" stroke="url(#paint1_linear_169_3997)" stroke-width="0.345982"/>
</g>
<g clip-path="url(#clip1_169_3997)">
<mask id="mask1_169_3997" style="mask-type:luminance" maskUnits="userSpaceOnUse" x="45" y="83" width="34" height="33">
<path d="M45.6514 83.5723H78.747V115.679H45.6514V83.5723Z" fill="white"/>
</mask>
<g mask="url(#mask1_169_3997)">
<path fill-rule="evenodd" clip-rule="evenodd" d="M62.1344 83.6992C53.0386 83.6992 45.6514 90.8651 45.6514 99.6902C45.6514 108.515 53.0382 115.681 62.1344 115.681C71.2307 115.681 78.6175 108.515 78.6175 99.6902C78.6175 90.8651 71.2306 83.6992 62.1344 83.6992ZM62.1344 87.6977C68.9576 87.6977 74.4955 93.0704 74.4955 99.6898C74.4955 106.309 68.9576 111.681 62.1344 111.681C55.3118 111.681 49.7738 106.309 49.7738 99.6898C49.7738 93.0704 55.3118 87.6977 62.1344 87.6977Z" fill="url(#paint2_linear_169_3997)"/>
</g>
<path fill-rule="evenodd" clip-rule="evenodd" d="M60.0732 93.6929V105.685C60.0732 106.789 60.9964 107.685 62.1338 107.685C63.2711 107.685 64.1937 106.789 64.1937 105.685V93.6929C64.1937 92.5895 63.2711 91.6934 62.1338 91.6934C60.9964 91.6934 60.0732 92.5895 60.0732 93.6929Z" fill="url(#paint3_linear_169_3997)"/>
<mask id="mask2_169_3997" style="mask-type:luminance" maskUnits="userSpaceOnUse" x="45" y="59" width="67" height="5">
<path d="M45.6514 59.7051H111.58V63.7676H45.6514V59.7051Z" fill="white"/>
</mask>
<g mask="url(#mask2_169_3997)">
<path fill-rule="evenodd" clip-rule="evenodd" d="M47.7129 63.7123H109.52C110.658 63.7123 111.58 62.8167 111.58 61.7133C111.58 60.6104 110.658 59.7148 109.52 59.7148H47.7129C46.5755 59.7148 45.6523 60.6105 45.6523 61.7133C45.6523 62.8167 46.5755 63.7123 47.7129 63.7123Z" fill="url(#paint4_linear_169_3997)"/>
</g>
<path fill-rule="evenodd" clip-rule="evenodd" d="M97.1586 79.7012C93.7465 79.7012 90.9775 82.3875 90.9775 85.6972C90.9775 89.0073 93.7465 91.6937 97.1586 91.6937C100.57 91.6937 103.339 89.0073 103.339 85.6972C103.339 82.3875 100.57 79.7012 97.1586 79.7012ZM97.1586 83.6987C98.2954 83.6987 99.2185 84.5938 99.2185 85.6972C99.2185 86.8006 98.2954 87.6962 97.1586 87.6962C96.0212 87.6962 95.098 86.8006 95.098 85.6972C95.098 84.5938 96.0212 83.6987 97.1586 83.6987Z" fill="url(#paint5_linear_169_3997)"/>
<path fill-rule="evenodd" clip-rule="evenodd" d="M88.9173 79.7012C85.5053 79.7012 82.7363 82.3875 82.7363 85.6972C82.7363 89.0073 85.5053 91.6937 88.9173 91.6937C92.3288 91.6937 95.0978 89.0073 95.0978 85.6972C95.0978 82.3875 92.3288 79.7012 88.9173 79.7012ZM88.9173 83.6987C90.0547 83.6987 90.9773 84.5938 90.9773 85.6972C90.9773 86.8006 90.0547 87.6962 88.9173 87.6962C87.78 87.6962 86.8568 86.8006 86.8568 85.6972C86.8568 84.5938 87.78 83.6987 88.9173 83.6987Z" fill="url(#paint6_linear_169_3997)"/>
<mask id="mask3_169_3997" style="mask-type:luminance" maskUnits="userSpaceOnUse" x="45" y="51" width="67" height="51">
<path d="M45.6514 51.7188H111.58V101.727H45.6514V51.7188Z" fill="white"/>
</mask>
<g mask="url(#mask3_169_3997)">
<g filter="url(#filter2_f_169_3997)">
<path fill-rule="evenodd" clip-rule="evenodd" d="M49.7719 99.6894C49.7719 100.792 48.8492 101.688 47.7119 101.688C46.5745 101.688 45.6514 100.792 45.6514 99.6894V57.7149C45.6514 56.124 46.3026 54.5991 47.4625 53.4758C48.6203 52.3506 50.1926 51.7188 51.8325 51.7188H105.398C107.038 51.7188 108.61 52.3505 109.769 53.4758C110.928 54.599 111.579 56.1239 111.579 57.7149V95.6916C111.579 97.2825 110.928 98.8074 109.769 99.9307C108.61 101.056 107.038 101.688 105.398 101.688H76.5545C75.4176 101.688 74.4945 100.792 74.4945 99.6893C74.4945 93.0713 68.9544 87.6966 62.1328 87.6966C55.3113 87.6966 49.7712 93.0713 49.7712 99.6893L49.7719 99.6894ZM78.4876 97.6904H105.399C105.945 97.6904 106.47 97.4806 106.856 97.1047C107.243 96.7308 107.459 96.2215 107.459 95.6918V57.7151C107.459 57.1855 107.243 56.6762 106.856 56.3022C106.47 55.9263 105.945 55.7166 105.399 55.7166H51.8329C51.287 55.7166 50.7615 55.9263 50.376 56.3022C49.9886 56.6761 49.7724 57.1854 49.7724 57.7151V89.1195C52.7928 85.7959 57.212 83.6992 62.134 83.6992C70.5336 83.6992 77.472 89.8073 78.4888 97.6907L78.4876 97.6904Z" fill="#F5F5F5"/>
</g>
<path fill-rule="evenodd" clip-rule="evenodd" d="M49.7719 99.6894C49.7719 100.792 48.8492 101.688 47.7119 101.688C46.5745 101.688 45.6514 100.792 45.6514 99.6894V57.7149C45.6514 56.124 46.3026 54.5991 47.4625 53.4758C48.6203 52.3506 50.1926 51.7188 51.8325 51.7188H105.398C107.038 51.7188 108.61 52.3505 109.769 53.4758C110.928 54.599 111.579 56.1239 111.579 57.7149V95.6916C111.579 97.2825 110.928 98.8074 109.769 99.9307C108.61 101.056 107.038 101.688 105.398 101.688H76.5545C75.4176 101.688 74.4945 100.792 74.4945 99.6893C74.4945 93.0713 68.9544 87.6966 62.1328 87.6966C55.3113 87.6966 49.7712 93.0713 49.7712 99.6893L49.7719 99.6894ZM78.4876 97.6904H105.399C105.945 97.6904 106.47 97.4806 106.856 97.1047C107.243 96.7308 107.459 96.2215 107.459 95.6918V57.7151C107.459 57.1855 107.243 56.6762 106.856 56.3022C106.47 55.9263 105.945 55.7166 105.399 55.7166H51.8329C51.287 55.7166 50.7615 55.9263 50.376 56.3022C49.9886 56.6761 49.7724 57.1854 49.7724 57.7151V89.1195C52.7928 85.7959 57.212 83.6992 62.134 83.6992C70.5336 83.6992 77.472 89.8073 78.4888 97.6907L78.4876 97.6904Z" fill="url(#paint7_linear_169_3997)"/>
</g>
<path fill-rule="evenodd" clip-rule="evenodd" d="M60.6764 92.2797L54.4954 98.2762C53.6918 99.0558 53.6913 100.322 54.4959 101.102C55.2999 101.883 56.6055 101.883 57.4091 101.103L63.5901 95.1065C64.3931 94.3274 64.3936 93.0604 63.5896 92.2802C62.7855 91.5002 61.4795 91.5007 60.6764 92.2797Z" fill="url(#paint8_linear_169_3997)"/>
<path fill-rule="evenodd" clip-rule="evenodd" d="M60.677 95.1065L66.858 101.103C67.6616 101.883 68.9671 101.883 69.7712 101.102C70.5753 100.322 70.5748 99.0559 69.7717 98.2762L63.5907 92.2797C62.7872 91.5007 61.4817 91.5002 60.6775 92.2802C59.8729 93.0603 59.8735 94.3274 60.677 95.1065Z" fill="url(#paint9_linear_169_3997)"/>
</g>
<defs>
<filter id="filter0_i_169_3997" x="8.41992" y="7.11914" width="143.929" height="144.621" filterUnits="userSpaceOnUse" color-interpolation-filters="sRGB">
<feFlood flood-opacity="0" result="BackgroundImageFix"/>
<feBlend mode="normal" in="SourceGraphic" in2="BackgroundImageFix" result="shape"/>
<feColorMatrix in="SourceAlpha" type="matrix" values="0 0 0 0 0 0 0 0 0 0 0 0 0 0 0 0 0 0 127 0" result="hardAlpha"/>
<feOffset dx="1.38393" dy="2.07589"/>
<feGaussianBlur stdDeviation="1.52232"/>
<feComposite in2="hardAlpha" operator="arithmetic" k2="-1" k3="1"/>
<feColorMatrix type="matrix" values="0 0 0 0 1 0 0 0 0 1 0 0 0 0 1 0 0 0 0.25 0"/>
<feBlend mode="normal" in2="shape" result="effect1_innerShadow_169_3997"/>
</filter>
<filter id="filter1_i_169_3997" x="9.80371" y="8.50195" width="140.469" height="141.16" filterUnits="userSpaceOnUse" color-interpolation-filters="sRGB">
<feFlood flood-opacity="0" result="BackgroundImageFix"/>
<feBlend mode="normal" in="SourceGraphic" in2="BackgroundImageFix" result="shape"/>
<feColorMatrix in="SourceAlpha" type="matrix" values="0 0 0 0 0 0 0 0 0 0 0 0 0 0 0 0 0 0 127 0" result="hardAlpha"/>
<feOffset dx="1.38393" dy="2.07589"/>
<feGaussianBlur stdDeviation="1.52232"/>
<feComposite in2="hardAlpha" operator="arithmetic" k2="-1" k3="1"/>
<feColorMatrix type="matrix" values="0 0 0 0 1 0 0 0 0 1 0 0 0 0 1 0 0 0 0.25 0"/>
<feBlend mode="normal" in2="shape" result="effect1_innerShadow_169_3997"/>
</filter>
<filter id="filter2_f_169_3997" x="39.3514" y="45.4187" width="78.5277" height="62.5688" filterUnits="userSpaceOnUse" color-interpolation-filters="sRGB">
<feFlood flood-opacity="0" result="BackgroundImageFix"/>
<feBlend mode="normal" in="SourceGraphic" in2="BackgroundImageFix" result="shape"/>
<feGaussianBlur stdDeviation="3.15" result="effect1_foregroundBlur_169_3997"/>
</filter>
<linearGradient id="paint0_linear_169_3997" x1="26.0649" y1="19.9194" x2="120.864" y2="126.828" gradientUnits="userSpaceOnUse">
<stop stop-color="#0C0C0C"/>
<stop offset="0.330421" stop-color="#131313"/>
<stop offset="0.549811" stop-color="#1D1D1D"/>
<stop offset="1" stop-color="#0B0B0B"/>
</linearGradient>
<linearGradient id="paint1_linear_169_3997" x1="23.7969" y1="20.8044" x2="119.98" y2="130.481" gradientUnits="userSpaceOnUse">
<stop stop-color="#232323"/>
<stop offset="0.389423" stop-color="#585757"/>
<stop offset="0.711538" stop-color="#565454"/>
<stop offset="1"/>
</linearGradient>
<linearGradient id="paint2_linear_169_3997" x1="62.1344" y1="83.6992" x2="62.1344" y2="115.681" gradientUnits="userSpaceOnUse">
<stop stop-color="white"/>
<stop offset="0.331731" stop-color="#D7D7D7"/>
<stop offset="0.4375" stop-color="#4F4F4F"/>
<stop offset="0.548077" stop-color="#B8B8B8"/>
<stop offset="1" stop-color="#DEDEDE"/>
</linearGradient>
<linearGradient id="paint3_linear_169_3997" x1="62.1335" y1="91.6934" x2="62.1335" y2="107.685" gradientUnits="userSpaceOnUse">
<stop stop-color="white"/>
<stop offset="0.331731" stop-color="#D7D7D7"/>
<stop offset="0.4375" stop-color="#4F4F4F"/>
<stop offset="0.548077" stop-color="#B8B8B8"/>
<stop offset="1" stop-color="#DEDEDE"/>
</linearGradient>
<linearGradient id="paint4_linear_169_3997" x1="78.6163" y1="59.7148" x2="78.6163" y2="63.7123" gradientUnits="userSpaceOnUse">
<stop stop-color="white"/>
<stop offset="0.331731" stop-color="#D7D7D7"/>
<stop offset="0.4375" stop-color="#4F4F4F"/>
<stop offset="0.548077" stop-color="#B8B8B8"/>
<stop offset="1" stop-color="#DEDEDE"/>
</linearGradient>
<linearGradient id="paint5_linear_169_3997" x1="97.1583" y1="79.7012" x2="97.1583" y2="91.6937" gradientUnits="userSpaceOnUse">
<stop stop-color="white"/>
<stop offset="0.331731" stop-color="#D7D7D7"/>
<stop offset="0.4375" stop-color="#4F4F4F"/>
<stop offset="0.548077" stop-color="#B8B8B8"/>
<stop offset="1" stop-color="#DEDEDE"/>
</linearGradient>
<linearGradient id="paint6_linear_169_3997" x1="88.9171" y1="79.7012" x2="88.9171" y2="91.6937" gradientUnits="userSpaceOnUse">
<stop stop-color="white"/>
<stop offset="0.331731" stop-color="#D7D7D7"/>
<stop offset="0.4375" stop-color="#4F4F4F"/>
<stop offset="0.548077" stop-color="#B8B8B8"/>
<stop offset="1" stop-color="#DEDEDE"/>
</linearGradient>
<linearGradient id="paint7_linear_169_3997" x1="78.6152" y1="51.7188" x2="78.6152" y2="101.688" gradientUnits="userSpaceOnUse">
<stop stop-color="#050505"/>
<stop offset="0.0625" stop-color="#F8F8F8"/>
<stop offset="0.331731" stop-color="#D7D7D7"/>
<stop offset="0.4375" stop-color="#4F4F4F"/>
<stop offset="0.548077" stop-color="#B8B8B8"/>
<stop offset="0.831731" stop-color="#D0D0D0"/>
<stop offset="1" stop-color="#C3C3C3"/>
</linearGradient>
<linearGradient id="paint8_linear_169_3997" x1="59.0425" y1="91.6953" x2="59.0425" y2="101.688" gradientUnits="userSpaceOnUse">
<stop stop-color="white"/>
<stop offset="0.331731" stop-color="#D7D7D7"/>
<stop offset="0.4375" stop-color="#4F4F4F"/>
<stop offset="0.548077" stop-color="#B8B8B8"/>
<stop offset="1" stop-color="#DEDEDE"/>
</linearGradient>
<linearGradient id="paint9_linear_169_3997" x1="65.2242" y1="91.6953" x2="65.2242" y2="101.688" gradientUnits="userSpaceOnUse">
<stop stop-color="white"/>
<stop offset="0.331731" stop-color="#D7D7D7"/>
<stop offset="0.4375" stop-color="#4F4F4F"/>
<stop offset="0.548077" stop-color="#B8B8B8"/>
<stop offset="1" stop-color="#DEDEDE"/>
</linearGradient>
<clipPath id="clip0_169_3997">
<rect width="156.384" height="155" fill="white" transform="translate(0.116211 0.199219)"/>
</clipPath>
<clipPath id="clip1_169_3997">
<rect width="67" height="65" fill="white" transform="translate(45.1162 51.1992)"/>
</clipPath>
</defs>
</svg>
