<svg width="full" height="full" viewBox="0 0 1053 2351" fill="none" xmlns="http://www.w3.org/2000/svg">
          <defs>
            <path id="motion-path" d="M527.287 0V0C527.287 20.0002 511.074 36.2135 491.073 36.2135H88.9805C40.9317 36.2135 1.98054 75.1647 1.98054 123.214V401.374C1.98054 449.423 40.9318 488.374 88.9805 488.374H964.806C1012.93 488.374 1051.91 527.444 1051.81 575.568L1051.21 841.142C1051.11 889.115 1012.19 927.948 964.213 927.948H88C39.9513 927.948 1 966.899 1 1014.95V1279.29C1 1327.34 39.9512 1366.29 88 1366.29H964.019C1012.07 1366.29 1051.02 1405.24 1051.02 1453.29V1743.5C1051.02 1791.55 1012.07 1830.5 964.019 1830.5H88C39.9513 1830.5 1.00001 1869.45 1.00001 1917.5L1 2264C1 2312.05 39.9512 2351 88 2351H519.5" />
            <mask id="moving-line-mask" maskUnits="userSpaceOnUse">
              <rect width="1053" height="2351" fill="black" />
              <circle r="100" fill="white" id="mask-circle">
                <animateMotion
                  dur="10s"
                  begin="0s"
                  repeatCount="indefinite">
                  <mpath href="#motion-path" />
                </animateMotion>
              </circle>
            </mask>

            <mask id="circle-path-mask" maskUnits="userSpaceOnUse" x="0" y="0" width="1053" height="2352">
              <path d="M527.287 0V0C527.287 20.0002 511.074 36.2135 491.073 36.2135H88.9805C40.9317 36.2135 1.98054 75.1647 1.98054 123.214V401.374C1.98054 449.423 40.9318 488.374 88.9805 488.374H964.806C1012.93 488.374 1051.91 527.444 1051.81 575.568L1051.21 841.142C1051.11 889.115 1012.19 927.948 964.213 927.948H88C39.9513 927.948 1 966.899 1 1014.95V1279.29C1 1327.34 39.9512 1366.29 88 1366.29H964.019C1012.07 1366.29 1051.02 1405.24 1051.02 1453.29V1743.5C1051.02 1791.55 1012.07 1830.5 964.019 1830.5H88C39.9513 1830.5 1.00001 1869.45 1.00001 1917.5L1 2264C1 2312.05 39.9512 2351 88 2351H519.5" stroke="#656565" stroke-width="2" />
            </mask>
          </defs>
          <use href="#motion-path" stroke="#656565" stroke-width="2" fill="none" opacity="0.2" />
          <use href="#motion-path" stroke="white" stroke-width="4" fill="none" mask="url(#moving-line-mask)" opacity="0.9" />
          <g mask="url(#circle-path-mask)">
            <path d="M1054.5 -148.5V1179.73C1054.5 1232 1012.13 1274.37 959.854 1274.37C955.927 1274.37 952.01 1274.79 948.172 1275.63L527.394 1366.92L527.385 1366.92L527.375 1366.92L307.905 1423.45C303.26 1424.65 298.511 1425.4 293.724 1425.69L-10.5 1444.47V-148.5H1054.5Z" fill="#707070" stroke="#656565" opacity="0.3" />
          </g>
        </svg>