<svg width="23" height="23" viewBox="0 0 23 23" fill="none" xmlns="http://www.w3.org/2000/svg">
<g clip-path="url(#clip0_264_5553)">
<path d="M6.51841 19.3523C7.76834 20.0028 9.18897 20.3705 10.6955 20.3705C15.6996 20.3705 19.7562 16.3138 19.7562 11.3097C19.7562 9.7991 19.3865 8.37484 18.7327 7.12243M14.9252 3.29481C13.6626 2.62711 12.2232 2.24902 10.6955 2.24902C5.69139 2.24902 1.63477 6.30565 1.63477 11.3097C1.63477 12.8518 2.02 14.3039 2.69948 15.575M2.69948 15.575C2.33424 16.0213 2.1151 16.5918 2.1151 17.2135C2.1151 18.6432 3.27414 19.8023 4.70388 19.8023C6.13362 19.8023 7.29266 18.6432 7.29266 17.2135C7.29266 15.7838 6.13362 14.6248 4.70388 14.6248C3.89581 14.6248 3.17422 14.995 2.69948 15.575ZM19.3247 5.39683C19.3247 6.82657 18.1657 7.98561 16.736 7.98561C15.3063 7.98561 14.1472 6.82657 14.1472 5.39683C14.1472 3.96708 15.3063 2.80805 16.736 2.80805C18.1657 2.80805 19.3247 3.96708 19.3247 5.39683ZM16.5202 11.3097C16.5202 14.5266 13.9124 17.1345 10.6955 17.1345C7.47857 17.1345 4.87074 14.5266 4.87074 11.3097C4.87074 8.09282 7.47857 5.48499 10.6955 5.48499C13.9124 5.48499 16.5202 8.09282 16.5202 11.3097Z" stroke="#FAFAFA" stroke-width="1.29439" stroke-miterlimit="10" stroke-linecap="round" stroke-linejoin="round"/>
</g>
<defs>
<clipPath id="clip0_264_5553">
<rect width="21.5731" height="21.5731" fill="white" transform="translate(0.771973 0.523438)"/>
</clipPath>
</defs>
</svg>
