<svg width="266" height="219" viewBox="0 0 266 219" fill="none" xmlns="http://www.w3.org/2000/svg">
<mask id="mask0_264_5563" style="mask-type:luminance" maskUnits="userSpaceOnUse" x="-1" y="0" width="267" height="219">
<path d="M265.384 0.843262H-0.0561523V218.375H265.384V0.843262Z" fill="white"/>
</mask>
<g mask="url(#mask0_264_5563)">
<mask id="mask1_264_5563" style="mask-type:alpha" maskUnits="userSpaceOnUse" x="-69" y="18" width="387" height="210">
<path d="M317.884 18.3403H-68.9277V227.785H317.884V18.3403Z" fill="url(#paint0_linear_264_5563)"/>
</mask>
<g mask="url(#mask1_264_5563)">
<path opacity="0.6" d="M54.7977 482.124C53.0033 480.951 56.2716 470.979 64.2496 453.193C72.2276 435.406 84.6451 410.441 100.247 380.795C115.85 351.149 134.089 317.88 153.134 284.336C172.189 250.776 191.374 218.133 208.756 189.652C226.153 161.179 241.138 137.89 252.206 122.132C263.282 106.359 270.05 98.6814 271.845 99.8543M28.5932 461.888C21.1398 455.123 20.0378 440.579 25.3885 419.72C30.7543 398.87 42.3988 372.418 59.1436 343.054C75.8883 313.691 97.1644 282.439 120.812 252.454C144.469 222.453 169.66 194.768 193.858 172.17C218.07 149.579 240.434 132.863 258.717 123.728C276.999 114.592 290.553 113.344 298.015 120.092M3.02909 434.267C-7.71554 420.432 -10.8515 400.235 -6.09345 375.693C-1.33534 351.151 11.1828 323.124 30.1779 294.431C49.1731 265.738 73.9853 237.388 102.123 212.234C130.261 187.08 160.732 166.019 190.457 151.152C220.197 136.294 248.146 128.141 271.525 127.529C294.896 126.934 312.858 133.883 323.588 147.71M-21.6952 394.471C-32.1676 372.943 -33.9101 347.001 -26.7381 319.267C-19.5662 291.532 -3.73333 262.988 19.1475 236.483C42.0432 209.988 71.1844 186.478 103.656 168.305C136.128 150.131 170.795 137.977 204.148 133.002C237.517 128.034 268.4 130.468 293.701 140.028C319 149.589 337.834 165.98 348.306 187.508M-41.269 334.96C-46.5672 306.606 -42.3191 276.711 -28.9521 248.29C-15.585 219.868 6.42533 193.913 34.8788 173.053C63.3324 152.193 97.2145 137.141 133.124 129.415C169.034 121.689 205.706 121.579 239.458 129.074C273.21 136.567 302.844 151.411 325.386 172.105C347.929 192.8 362.59 218.647 367.889 247.001M-41.9612 250.895C-36.6869 219.81 -22.0182 191.138 0.576306 167.751C23.1558 144.356 52.8637 127.07 86.7185 117.616C120.565 108.179 157.353 106.904 193.385 113.954C229.425 120.988 263.435 136.093 291.992 157.731C320.549 179.369 342.684 206.775 356.121 237.212C369.558 267.648 373.869 300.023 368.595 331.107M-5.49365 159.457C21.0878 120.222 64.3556 96.4338 114.812 93.3501C165.269 90.2665 218.762 108.136 263.53 143.011C308.297 177.886 340.685 226.942 353.549 279.344C366.405 331.763 358.71 383.254 332.143 422.497M59.0437 97.1303C96.1646 74.164 142.756 72.5478 188.563 92.6681C234.368 112.787 275.637 152.951 303.282 204.376C330.936 255.786 342.709 314.221 336 366.822C329.292 419.423 304.674 461.88 267.553 484.846M122.305 71.5526C159.155 63.6316 198.812 79.1461 232.562 114.706C266.311 150.267 291.371 202.916 302.251 261.113C313.132 319.309 308.91 378.272 290.546 425.021C272.183 471.768 241.16 502.493 204.311 510.414M172.571 67.4149C202.28 68.8348 229.803 93.7531 249.08 136.675C268.356 179.597 277.792 237.037 275.353 296.328C272.892 355.627 258.744 411.924 235.992 452.853C213.24 493.783 183.776 515.99 154.066 514.569M211.713 73.3053C231.048 78.2439 244.481 105.935 249.074 150.249C253.667 194.562 249.038 251.899 236.192 309.642C223.354 367.368 203.354 420.787 180.608 458.118C157.864 495.449 134.226 513.648 114.9 508.693M243.772 84.497C251.759 88.0808 250.926 113.265 241.481 154.517C232.037 195.769 214.751 249.716 193.413 304.473C172.074 359.231 148.444 410.341 127.694 446.536C106.969 482.722 90.8365 501.057 82.8498 497.472M91.8687 501.276C71.5024 493.314 51.7256 481.534 34.658 467.2M167.955 514.735C135.818 515.513 98.1885 504.307 63.5461 483.673C28.9031 463.039 0.165526 434.695 -16.2299 405.031M217.68 507.068C176.812 518.901 119.735 507.086 67.5394 475.997C15.3436 444.908 -24.179 399.187 -36.418 355.723M259.008 489.855C237.465 501.781 208.23 505.67 175.181 501.004C142.133 496.338 106.791 483.353 73.88 463.75C40.9685 444.148 12.0009 418.851 -9.15331 391.212C-30.3158 363.588 -42.6933 334.914 -44.643 308.995M294.033 465.431C272.98 483.577 240.617 491.656 202.195 488.356C163.773 485.056 121.552 470.571 82.4021 447.252C43.2517 423.933 9.46921 393.149 -13.4537 359.912C-36.3767 326.674 -47.0901 292.937 -43.8584 264.176M323.025 435.004C304.083 459.184 270.133 471.723 227.695 470.219C185.249 468.732 137.266 453.308 92.9516 426.913C48.6368 400.518 11.0644 364.985 -12.5509 327.125C-36.1661 289.264 -44.1889 251.726 -35.0755 221.713M345.729 399.639C335.526 419.346 317.081 433.663 292.245 441.198C267.393 448.726 237.043 449.186 204.213 442.513C171.383 435.841 137.249 422.296 105.219 403.219C73.1876 384.14 44.4243 360.222 21.7893 333.858C-0.845483 307.495 -16.5408 279.609 -23.706 253.012C-30.8859 226.407 -29.2834 202.038 -19.0887 182.346M345.729 399.639C318.866 451.525 273.874 489.848 220.666 506.165C167.459 522.483 110.402 515.456 62.0127 486.635C13.638 457.822 -22.091 409.563 -37.3124 352.509C-52.5254 295.44 -45.9746 234.241 -19.1036 182.337C7.75908 130.451 52.7522 92.1286 105.944 75.802C159.151 59.4846 216.208 66.5107 264.597 95.3322C312.973 124.145 348.701 172.405 363.923 229.459C379.136 286.529 372.592 347.752 345.729 399.639ZM361.716 360.273C354.752 383.229 338.081 400.718 313.619 410.739C289.165 420.743 257.928 422.875 223.491 416.858C189.044 410.857 152.792 396.951 118.911 376.771C85.0143 356.582 54.861 330.935 31.9024 302.745C8.94392 274.555 -5.90435 244.994 -10.8989 217.45C-15.9084 189.896 -10.8651 165.481 3.61475 146.98M370.46 317.807C367.567 343.502 353.689 363.933 330.655 376.437C307.612 388.959 276.469 392.948 241.327 387.914C206.184 382.881 168.669 369.04 133.698 348.21C98.7261 327.381 67.9409 300.54 45.3801 271.204C22.8193 241.869 9.51305 211.406 7.24129 183.807C4.96954 156.208 13.8022 132.773 32.5988 116.571M371.284 272.991C373.373 300.753 363.382 323.897 342.829 338.927C322.277 353.958 292.278 360.073 257.343 356.337C222.408 352.6 184.453 339.23 149.199 318.232C113.944 297.234 83.2842 269.735 61.8741 239.912C40.4492 210.079 29.4313 179.534 30.4612 152.875C31.4912 126.216 44.5411 104.895 67.6018 92.1131M363.059 226.263C371.225 255.299 366.516 280.917 349.746 298.599C332.976 316.28 305.231 324.87 271.419 322.849C237.622 320.837 199.946 308.325 165.079 287.558C130.212 266.791 100.408 239.11 80.9352 209.394C61.4769 179.685 53.6082 149.884 58.7361 125.269C63.864 100.653 81.6572 82.8053 108.946 74.9081M342.841 176.937C358.942 206.112 361.776 234.17 350.702 254.993C339.629 275.816 315.557 287.724 283.75 288.092C251.935 288.475 214.954 277.299 180.893 257.012C146.832 236.725 118.438 208.963 101.924 179.793C85.4087 150.623 82.0987 122.427 92.7244 101.337C103.35 80.2477 127.055 67.9947 158.655 67.232M291.959 114.792C314.755 133.942 331.368 156.509 338.757 178.337C346.13 200.156 343.771 219.761 332.09 233.498C320.408 247.235 300.22 254.167 275.246 253.031C250.27 251.896 222.218 242.75 196.291 227.308C170.35 211.856 148.297 191.159 134.196 169.02C120.096 146.88 114.909 124.836 119.605 106.937C124.302 89.0398 138.555 76.5212 159.736 71.7087C180.901 66.8879 207.558 70.0935 234.763 80.7251M320.062 197.511C313.066 211.023 297.621 218.79 277.149 219.101C256.663 219.405 232.827 212.224 210.87 199.146C188.9 186.06 170.616 168.153 160.041 149.35C149.452 130.538 147.44 112.395 154.444 98.8664C161.439 85.3547 176.884 77.5877 197.356 77.2756C217.842 76.9728 241.679 84.1529 263.635 97.2305C285.59 110.308 303.889 128.224 314.464 147.027C325.039 165.831 327.056 183.999 320.062 197.511ZM298.594 172.136C293.828 181.341 283.321 186.625 269.388 186.83C255.455 187.036 239.214 182.158 224.273 173.26C209.333 164.36 196.878 152.167 189.684 139.357C182.482 126.563 181.108 114.203 185.874 104.998C190.64 95.792 201.147 90.5093 215.08 90.3037C229.012 90.098 245.254 94.9757 260.195 103.874C275.136 112.774 287.589 124.967 294.783 137.777C301.986 150.571 303.36 162.931 298.594 172.136ZM273.799 149.681C268.776 159.382 251.93 159.633 236.169 150.245C220.407 140.857 211.7 125.387 216.722 115.685C221.746 105.983 238.592 105.732 254.353 115.12C270.115 124.508 278.822 139.979 273.799 149.681Z" stroke="#7E7E7E" stroke-width="0.755006"/>
<path d="M92.5151 6.29342C125.019 17.9863 149.98 45.3735 163.122 67.2236C47.9987 67.4892 -45.2737 167.566 -45.4727 291.06C-68.892 281.185 -86.0847 267.128 -97.0235 249.996C-108.015 232.78 -112.704 212.441 -111.036 190.071C-107.699 145.321 -78.9158 92.4386 -24.2315 40.3015C19.4727 -1.36717 59.8279 -5.46459 92.5151 6.29342Z" fill="url(#paint1_radial_264_5563)" fill-opacity="0.08" stroke="url(#paint2_radial_264_5563)" stroke-width="0.626781"/>
</g>
<path opacity="0.5" d="M157.771 116.218C162.728 114.523 175.797 110.443 188.412 107.692" stroke="url(#paint3_linear_264_5563)" stroke-width="0.626781"/>
<path opacity="0.6" d="M157.702 116.073C140.162 121.433 116.2 132.243 97.686 143.489C94.9332 137.675 89.1511 123.841 88.0469 115.021" stroke="url(#paint4_linear_264_5563)" stroke-width="0.755006"/>
<path opacity="0.1" d="M127.107 128.01C105.161 137.186 64.7225 163.005 44.3306 182.435" stroke="url(#paint5_linear_264_5563)" stroke-width="0.755006"/>
<path d="M157.42 115.887C154.628 110.609 149.293 97.2214 150.291 85.885C151.288 74.5476 155.476 68.6127 156.723 66.9541C138.624 63.9056 99.3363 62.248 68.3242 74.3336" stroke="url(#paint6_linear_264_5563)" stroke-width="0.755006"/>
<path opacity="0.5" d="M103.033 248.019C109.383 237.436 131.076 211.301 141.18 199.335C131.439 191.023 120.375 177.717 115.97 172.028C131.856 158.432 158.029 141.389 169.13 134.568C166.205 130.817 159.901 121.844 157.6 116.355" stroke="url(#paint7_linear_264_5563)" stroke-width="0.755006"/>
<path opacity="0.5" d="M200.982 254.555C207.831 241.169 220.978 198.747 227.107 179.369C200.022 167.32 180.736 149.165 169.122 134.502" stroke="url(#paint8_linear_264_5563)" stroke-width="0.755006"/>
<path d="M275.034 225.065C250.392 223.601 226.272 214.502 217.293 210.137C219.655 203.178 224.932 187.289 227.137 179.408" stroke="url(#paint9_linear_264_5563)" stroke-width="0.755006"/>
<path opacity="0.5" d="M157.7 50.8374V115.725" stroke="url(#paint10_linear_264_5563)" stroke-width="0.697098"/>
<path d="M160.296 115.989C160.296 114.276 159.008 112.888 157.418 112.888C155.829 112.888 154.541 114.276 154.541 115.989C154.541 117.701 155.829 119.089 157.418 119.089C159.008 119.089 160.296 117.701 160.296 115.989Z" fill="#EDEDED"/>
<path d="M47.2089 182.436C47.2089 180.723 45.9204 179.335 44.331 179.335C42.7416 179.335 41.4531 180.723 41.4531 182.436C41.4531 184.148 42.7416 185.536 44.331 185.536C45.9204 185.536 47.2089 184.148 47.2089 182.436Z" fill="#EDEDED"/>
</g>
<defs>
<linearGradient id="paint0_linear_264_5563" x1="86.7583" y1="-5.35397" x2="192.141" y2="150.802" gradientUnits="userSpaceOnUse">
<stop stop-color="white"/>
<stop offset="1" stop-color="white" stop-opacity="0"/>
</linearGradient>
<radialGradient id="paint1_radial_264_5563" cx="0" cy="0" r="1" gradientUnits="userSpaceOnUse" gradientTransform="translate(61.0297 162.504) rotate(-130.578) scale(103.398 102.716)">
<stop stop-color="white"/>
<stop offset="1" stop-color="#D9D9D9" stop-opacity="0"/>
</radialGradient>
<radialGradient id="paint2_radial_264_5563" cx="0" cy="0" r="1" gradientUnits="userSpaceOnUse" gradientTransform="translate(33.9982 134.431) rotate(-112.507) scale(62.7689 123.154)">
<stop stop-color="#D9D9D9"/>
<stop offset="1" stop-color="#D9D9D9" stop-opacity="0"/>
</radialGradient>
<linearGradient id="paint3_linear_264_5563" x1="155.977" y1="114.293" x2="193.619" y2="109.861" gradientUnits="userSpaceOnUse">
<stop stop-color="white"/>
<stop offset="1" stop-color="white" stop-opacity="0"/>
</linearGradient>
<linearGradient id="paint4_linear_264_5563" x1="169.792" y1="119.132" x2="139.052" y2="142.876" gradientUnits="userSpaceOnUse">
<stop stop-color="#EDEDED"/>
<stop offset="1" stop-color="white" stop-opacity="0"/>
</linearGradient>
<linearGradient id="paint5_linear_264_5563" x1="136.844" y1="125.423" x2="42.1958" y2="197.587" gradientUnits="userSpaceOnUse">
<stop stop-color="#EDEDED"/>
<stop offset="1" stop-color="white" stop-opacity="0"/>
</linearGradient>
<linearGradient id="paint6_linear_264_5563" x1="157.42" y1="113.847" x2="145.001" y2="87.0893" gradientUnits="userSpaceOnUse">
<stop stop-color="#EDEDED"/>
<stop offset="1" stop-color="white" stop-opacity="0"/>
</linearGradient>
<linearGradient id="paint7_linear_264_5563" x1="157.891" y1="145.419" x2="110.613" y2="234.811" gradientUnits="userSpaceOnUse">
<stop stop-color="#EDEDED"/>
<stop offset="1" stop-color="white" stop-opacity="0"/>
</linearGradient>
<linearGradient id="paint8_linear_264_5563" x1="203.808" y1="187.902" x2="202.308" y2="254.551" gradientUnits="userSpaceOnUse">
<stop stop-color="#EDEDED"/>
<stop offset="1" stop-color="white" stop-opacity="0"/>
</linearGradient>
<linearGradient id="paint9_linear_264_5563" x1="243.335" y1="216.3" x2="279.304" y2="227.846" gradientUnits="userSpaceOnUse">
<stop stop-color="#EDEDED"/>
<stop offset="1" stop-color="white" stop-opacity="0"/>
</linearGradient>
<linearGradient id="paint10_linear_264_5563" x1="-nan" y1="-nan" x2="-nan" y2="-nan" gradientUnits="userSpaceOnUse">
<stop stop-color="#EDEDED"/>
<stop offset="1" stop-color="white" stop-opacity="0"/>
</linearGradient>
</defs>
</svg>
