<svg width="23" height="23" viewBox="0 0 23 23" fill="none" xmlns="http://www.w3.org/2000/svg">
<path d="M5.43771 8.39962H17.7924V14.1516H5.43771V8.39962ZM4.41406 15.5924C4.41406 14.7983 5.05789 14.1545 5.85208 14.1545H17.3566C18.1507 14.1545 18.7945 14.7983 18.7945 15.5924V18.4684C18.7945 19.2626 18.1507 19.9065 17.3566 19.9065H5.85209C5.05789 19.9065 4.41406 19.2626 4.41406 18.4684V15.5924ZM4.41406 4.08598C4.41406 3.29178 5.05789 2.64795 5.85208 2.64795H17.3566C18.1507 2.64795 18.7945 3.29178 18.7945 4.08597V6.96194C18.7945 7.75614 18.1507 8.39997 17.3566 8.39997H5.85209C5.05789 8.39997 4.41406 7.75614 4.41406 6.96194V4.08598Z" stroke="#FAFAFA" stroke-width="1.29439" stroke-miterlimit="10" stroke-linecap="round" stroke-linejoin="round"/>
</svg>
