<svg width="75" height="74" viewBox="0 0 75 74" fill="none" xmlns="http://www.w3.org/2000/svg">
<rect x="0.761353" y="0.359375" width="73.6152" height="72.8403" rx="36.4201" fill="black"/>
<rect x="1.53625" y="1.13427" width="72.0654" height="71.2905" rx="35.6452" stroke="url(#paint0_linear_209_6760)" stroke-opacity="0.3" stroke-width="1.54979"/>
<path d="M39.7286 27.4007L43.8685 21.0287C43.219 20.9069 42.3667 21.2722 41.4736 21.6376C39.7283 22.3277 37.5771 23.2204 36.0753 20.8257C35.6693 20.2168 33.5996 20.7039 32.0569 21.3128L35.6288 27.4006L39.7286 27.4007Z" fill="white"/>
<path d="M35.305 28.0508C35.1832 28.0508 35.0614 28.1726 35.0614 28.2943V28.6191C35.0614 28.7409 35.1832 28.8626 35.305 28.8626H39.8508C39.9726 28.8626 40.0943 28.7409 40.0943 28.6191V28.2943C40.0943 28.1726 39.9726 28.0508 39.8508 28.0508H35.305Z" fill="white"/>
<path d="M31.1238 53.0124H44.0307C46.0601 53.0124 47.9678 52.1196 49.3072 50.5368C50.6059 48.954 51.1337 46.9246 50.7683 44.8953C49.3072 36.8999 41.2306 30.2844 40.2969 29.5127H34.8579C33.9245 30.284 25.6448 37.1022 24.3462 45.2602C24.0214 47.1678 24.5898 49.1159 25.8479 50.577C27.1873 52.1193 29.095 53.0123 31.1244 53.0123L31.1238 53.0124ZM37.4555 41.5675C36.6033 41.3239 35.5072 40.9992 35.5072 39.3757C35.5072 38.28 36.2379 37.3464 37.2119 37.184V36.5751C37.2119 36.3721 37.3743 36.2503 37.5366 36.2503C37.7396 36.2503 37.8614 36.4127 37.8614 36.5751L37.8611 37.184C38.8351 37.3464 39.6064 38.2797 39.6064 39.3757C39.6064 39.5787 39.444 39.7005 39.2816 39.7005C39.0787 39.7005 38.9569 39.5381 38.9569 39.3757C38.9569 38.5236 38.3479 37.7929 37.5769 37.7929C36.8056 37.7929 36.197 38.483 36.197 39.3757C36.197 40.512 36.8059 40.6744 37.6581 40.918C38.5509 41.1616 39.647 41.4863 39.647 43.1504C39.647 44.2461 38.8757 45.1797 37.9017 45.3421V45.951C37.9017 46.154 37.7394 46.2758 37.577 46.2758C37.374 46.2758 37.2522 46.1134 37.2522 45.951V45.3421C36.2782 45.1797 35.5475 44.2464 35.5475 43.1504C35.5475 42.9474 35.7099 42.8256 35.8723 42.8256C36.0753 42.8256 36.1971 42.988 36.1971 43.1504C36.1971 44.0025 36.806 44.6927 37.577 44.6927C38.3483 44.6927 38.957 44.0026 38.957 43.1504C38.9573 42.0138 38.3483 41.811 37.4555 41.5675Z" fill="white"/>
<defs>
<linearGradient id="paint0_linear_209_6760" x1="0.761352" y1="3.03452" x2="86.0088" y2="25.4546" gradientUnits="userSpaceOnUse">
<stop stop-color="white"/>
<stop offset="0.325893" stop-color="white" stop-opacity="0.256139"/>
<stop offset="0.695684" stop-color="white" stop-opacity="0.735087"/>
<stop offset="1" stop-color="white" stop-opacity="0.07"/>
</linearGradient>
</defs>
</svg>
