<svg width="283" height="288" viewBox="0 0 283 288" fill="none" xmlns="http://www.w3.org/2000/svg">
<rect x="0.932066" y="1.54632" width="280.674" height="285.391" rx="41.2756" stroke="#909090" stroke-width="1.41516"/>
<path d="M141.27 2.48926C218.782 2.48947 281.606 65.9614 281.606 144.242C281.606 222.523 218.782 285.994 141.27 285.994C63.7569 285.994 0.931771 222.523 0.931641 144.242C0.931641 65.9613 63.7568 2.48926 141.27 2.48926Z" stroke="#B5B5B5" stroke-width="1.41516"/>
<rect x="1.01334" y="35.5915" width="280.512" height="223.905" rx="36.5345" stroke="#909090" stroke-width="1.25261"/>
<rect x="17.9953" y="20.4967" width="244.661" height="257.869" rx="36.5345" stroke="#909090" stroke-width="1.25261"/>
<path d="M69.9824 82.6772V138.541C69.9825 162.478 76.7053 184.225 90.1553 203.806C103.542 223.295 120.421 236.279 140.798 242.82C161.175 236.279 178.054 223.295 191.44 203.806C204.89 184.225 211.612 162.478 211.612 138.541V82.6772L140.797 56.1226L69.9824 82.6772ZM140.798 100.429C147.65 100.429 153.54 102.88 158.415 107.755C163.29 112.63 165.742 118.522 165.742 125.374C165.742 130.138 164.548 134.508 162.155 138.461C159.892 142.201 156.83 145.106 152.987 147.169L159.741 185.046L159.952 186.227H121.644L121.854 185.046L128.606 147.169C124.764 145.106 121.703 142.2 119.439 138.461C117.047 134.509 115.854 130.138 115.854 125.374C115.854 118.522 118.305 112.63 123.18 107.755C128.055 102.88 133.946 100.429 140.798 100.429ZM237.562 138.541C237.561 169.079 228.465 196.866 210.287 221.873C192.105 246.885 169.019 262.943 141.043 269.987L140.798 270.048L140.553 269.987C112.577 262.943 89.4896 246.885 71.3076 221.873C53.1301 196.866 44.0333 169.079 44.0332 138.541V64.8276L44.6855 64.5835L140.444 28.6733L140.798 28.5405L141.15 28.6733L236.909 64.5835L237.562 64.8276V138.541Z" fill="white" stroke="#8E8E8E" stroke-width="2.00894"/>
</svg>
