<svg width="318" height="435" viewBox="0 0 318 435" fill="none" xmlns="http://www.w3.org/2000/svg">
<g clip-path="url(#clip0_264_5622)">
<mask id="mask0_264_5622" style="mask-type:luminance" maskUnits="userSpaceOnUse" x="-39" y="0" width="396" height="435">
<path d="M356.095 0.979492H-38.0225V434.504H356.095V0.979492Z" fill="white"/>
</mask>
<g mask="url(#mask0_264_5622)">
<path d="M244.098 656.586V278.43" stroke="#2E2E2E" stroke-width="0.601933"/>
<path d="M80.6582 656.586V278.43" stroke="#2E2E2E" stroke-width="0.601933"/>
<path d="M162.385 703.17V325.015" stroke="#2E2E2E" stroke-width="0.601933"/>
<path opacity="0.8" d="M-268.141 472.939L160.06 222.235L587.801 475.2L-268.141 472.939Z" fill="#232323" stroke="#2E2E2E" stroke-width="1.48221"/>
<path d="M266.794 226.925C267.635 226.925 268.316 226.245 268.316 225.406C268.316 224.567 267.635 223.887 266.794 223.887C265.953 223.887 265.271 224.567 265.271 225.406C265.271 226.245 265.953 226.925 266.794 226.925Z" fill="#707070"/>
<path d="M292.069 112.708C293.471 112.708 294.607 111.582 294.607 110.193C294.607 108.804 293.471 107.678 292.069 107.678C290.668 107.678 289.532 108.804 289.532 110.193C289.532 111.582 290.668 112.708 292.069 112.708Z" fill="#A0A0A0"/>
<path d="M316.532 227.938C317.933 227.938 319.07 226.804 319.07 225.406C319.07 224.008 317.933 222.874 316.532 222.874C315.13 222.874 313.994 224.008 313.994 225.406C313.994 226.804 315.13 227.938 316.532 227.938Z" fill="#707070"/>
<path d="M52.613 180.434C53.4539 180.434 54.1356 179.719 54.1356 178.837C54.1356 177.955 53.4539 177.24 52.613 177.24C51.772 177.24 51.0903 177.955 51.0903 178.837C51.0903 179.719 51.772 180.434 52.613 180.434Z" fill="#3FCF8E"/>
<path d="M216.255 95.04C216.816 95.04 217.27 94.5867 217.27 94.0274C217.27 93.4681 216.816 93.0146 216.255 93.0146C215.695 93.0146 215.24 93.4681 215.24 94.0274C215.24 94.5867 215.695 95.04 216.255 95.04Z" fill="#A0A0A0"/>
<path d="M186.015 107.427C187.136 107.427 188.045 106.52 188.045 105.401C188.045 104.283 187.136 103.376 186.015 103.376C184.893 103.376 183.984 104.283 183.984 105.401C183.984 106.52 184.893 107.427 186.015 107.427Z" fill="#2E2E2E"/>
<path d="M181.337 253.214C181.898 253.214 182.352 252.77 182.352 252.222C182.352 251.674 181.898 251.229 181.337 251.229C180.777 251.229 180.322 251.674 180.322 252.222C180.322 252.77 180.777 253.214 181.337 253.214Z" fill="#3FCF8E"/>
<path d="M13.6628 194.358C15.9053 194.358 17.7231 192.545 17.7231 190.308C17.7231 188.07 15.9053 186.257 13.6628 186.257C11.4204 186.257 9.60254 188.07 9.60254 190.308C9.60254 192.545 11.4204 194.358 13.6628 194.358Z" fill="#3E3E3E"/>
<path d="M291.522 243.32C292.758 243.32 293.759 242.321 293.759 241.089C293.759 239.856 292.758 238.857 291.522 238.857C290.287 238.857 289.286 239.856 289.286 241.089C289.286 242.321 290.287 243.32 291.522 243.32Z" fill="#2E2E2E"/>
<path d="M56.1644 219.981C57.2856 219.981 58.1946 219.074 58.1946 217.955C58.1946 216.836 57.2856 215.93 56.1644 215.93C55.0432 215.93 54.1343 216.836 54.1343 217.955C54.1343 219.074 55.0432 219.981 56.1644 219.981Z" fill="#2E2E2E"/>
<path d="M263.751 217.811C264.592 217.811 265.274 217.131 265.274 216.292C265.274 215.453 264.592 214.773 263.751 214.773C262.91 214.773 262.229 215.453 262.229 216.292C262.229 217.131 262.91 217.811 263.751 217.811Z" fill="#2E2E2E"/>
<path d="M298.301 273.477C299.703 273.477 300.839 272.343 300.839 270.945C300.839 269.547 299.703 268.413 298.301 268.413C296.9 268.413 295.764 269.547 295.764 270.945C295.764 272.343 296.9 273.477 298.301 273.477Z" fill="#3E3E3E"/>
<path d="M177.464 203.519C178.282 203.519 178.944 202.858 178.944 202.043C178.944 201.227 178.282 200.566 177.464 200.566C176.647 200.566 175.984 201.227 175.984 202.043C175.984 202.858 176.647 203.519 177.464 203.519Z" fill="#3FCF8E"/>
<path d="M185.587 274.549C188.11 274.549 190.155 272.509 190.155 269.992C190.155 267.475 188.11 265.435 185.587 265.435C183.064 265.435 181.019 267.475 181.019 269.992C181.019 272.509 183.064 274.549 185.587 274.549Z" fill="#707070"/>
<path d="M255.121 372.755C255.681 372.755 256.136 372.301 256.136 371.742C256.136 371.183 255.681 370.729 255.121 370.729C254.56 370.729 254.105 371.183 254.105 371.742C254.105 372.301 254.56 372.755 255.121 372.755Z" fill="#3FCF8E"/>
<path d="M101.131 143.416C101.972 143.416 102.654 142.736 102.654 141.897C102.654 141.058 101.972 140.378 101.131 140.378C100.29 140.378 99.6084 141.058 99.6084 141.897C99.6084 142.736 100.29 143.416 101.131 143.416Z" fill="#3E3E3E"/>
<path d="M47.0297 330.221C47.5903 330.221 48.0448 329.767 48.0448 329.208C48.0448 328.649 47.5903 328.195 47.0297 328.195C46.4691 328.195 46.0146 328.649 46.0146 329.208C46.0146 329.767 46.4691 330.221 47.0297 330.221Z" fill="#2E2E2E"/>
<path d="M193.709 66.9191C193.989 66.9191 194.216 66.6922 194.216 66.4124C194.216 66.1326 193.989 65.9058 193.709 65.9058C193.428 65.9058 193.201 66.1326 193.201 66.4124C193.201 66.6922 193.428 66.9191 193.709 66.9191Z" fill="#707070"/>
<path d="M56.6303 316.043C58.0552 316.043 59.2103 314.909 59.2103 313.511C59.2103 312.113 58.0552 310.979 56.6303 310.979C55.2054 310.979 54.0503 312.113 54.0503 313.511C54.0503 314.909 55.2054 316.043 56.6303 316.043Z" fill="#3FCF8E"/>
<path d="M192.693 112.49C194.094 112.49 195.231 111.357 195.231 109.959C195.231 108.56 194.094 107.427 192.693 107.427C191.291 107.427 190.155 108.56 190.155 109.959C190.155 111.357 191.291 112.49 192.693 112.49Z" fill="#A0A0A0"/>
<path d="M103.67 99.3858C104.23 99.3858 104.685 98.9324 104.685 98.3731C104.685 97.8138 104.23 97.3604 103.67 97.3604C103.109 97.3604 102.655 97.8138 102.655 98.3731C102.655 98.9324 103.109 99.3858 103.67 99.3858Z" fill="#3FCF8E"/>
<path d="M227.713 38.5621C228.274 38.5621 228.728 38.108 228.728 37.5479C228.728 36.9878 228.274 36.5337 227.713 36.5337C227.153 36.5337 226.698 36.9878 226.698 37.5479C226.698 38.108 227.153 38.5621 227.713 38.5621Z" fill="#3FCF8E"/>
<path d="M160.045 127.216L241.352 174.05V270.203L160.035 316.744L78.3105 269.558V173.795L160.045 127.216Z" fill="white" fill-opacity="0.03"/>
<path d="M241.352 174.05L160.045 127.216L78.3105 173.795M241.352 174.05V270.203L160.035 316.744M241.352 174.05L177.065 210.909L159.72 220.945M78.3105 173.795V269.558L160.035 316.744M78.3105 173.795L159.72 220.945M160.035 316.744L159.72 220.945" stroke="#7E7E7E" stroke-width="1.20387"/>
<path d="M169.626 169.059L249.913 241.089" stroke="#7E7E7E" stroke-width="1.20387" stroke-dasharray="0.6 2.41"/>
<path d="M180.713 153.591L225.531 118.566" stroke="#7E7E7E" stroke-width="1.20387" stroke-dasharray="0.6 2.41"/>
<path d="M169.629 171.589C171.031 171.589 172.167 170.456 172.167 169.058C172.167 167.659 171.031 166.526 169.629 166.526C168.228 166.526 167.092 167.659 167.092 169.058C167.092 170.456 168.228 171.589 169.629 171.589Z" fill="#3FCF8E"/>
<path d="M254.106 247.498C256.419 247.498 258.295 245.627 258.295 243.319C258.295 241.01 256.419 239.139 254.106 239.139C251.792 239.139 249.917 241.01 249.917 243.319C249.917 245.627 251.792 247.498 254.106 247.498Z" fill="#3FCF8E"/>
<path d="M103.671 247.499C105.072 247.499 106.208 246.365 106.208 244.967C106.208 243.569 105.072 242.435 103.671 242.435C102.269 242.435 101.133 243.569 101.133 244.967C101.133 246.365 102.269 247.499 103.671 247.499Z" fill="#3FCF8E"/>
<path d="M179.573 156.079C180.737 156.457 181.987 155.822 182.365 154.662C182.744 153.501 182.108 152.254 180.945 151.876C179.781 151.498 178.531 152.133 178.153 153.293C177.774 154.454 178.41 155.701 179.573 156.079Z" fill="#3FCF8E"/>
<path d="M224.746 120.974C226.078 121.407 227.511 120.68 227.944 119.35C228.378 118.021 227.65 116.592 226.317 116.159C224.984 115.726 223.552 116.453 223.118 117.783C222.684 119.112 223.413 120.541 224.746 120.974Z" fill="#3FCF8E"/>
<path d="M57.3838 312.588L139.785 245.979" stroke="#7E7E7E" stroke-width="1.20387" stroke-dasharray="0.6 2.41"/>
<path d="M139.786 249.525C141.748 249.525 143.338 247.938 143.338 245.98C143.338 244.023 141.748 242.436 139.786 242.436C137.824 242.436 136.233 244.023 136.233 245.98C136.233 247.938 137.824 249.525 139.786 249.525Z" fill="#3FCF8E"/>
</g>
</g>
<defs>
<clipPath id="clip0_264_5622">
<rect width="394.117" height="433.524" fill="white" transform="translate(-38.0225 0.979492)"/>
</clipPath>
</defs>
</svg>
