<svg width="318" height="477" viewBox="0 0 318 477" fill="none" xmlns="http://www.w3.org/2000/svg">
<g clip-path="url(#clip0_264_5591)">
<g clip-path="url(#clip1_264_5591)">
<mask id="mask0_264_5591" style="mask-type:luminance" maskUnits="userSpaceOnUse" x="0" y="37" width="318" height="414">
<path d="M317.742 37.1284H0.32959V450.24H317.742V37.1284Z" fill="white"/>
</mask>
<g mask="url(#mask0_264_5591)">
<path d="M-15.5811 26.9956V466.482M-2.11508 26.9956L-2.11506 466.482M11.351 26.9956V466.482M24.817 26.9956V466.482M38.283 26.9956V466.482M51.749 26.9956V466.482M65.215 26.9956L65.2151 466.482M78.6811 26.9956V466.482M92.1471 26.9956V466.482M105.613 26.9956V466.482M119.079 26.9956V466.482M132.545 26.9956V466.482M146.011 26.9956V466.482M159.477 26.9956V466.482M172.943 26.9956V466.482M186.409 26.9956V466.482M199.875 26.9956V466.482M213.341 26.9956V466.482M226.807 26.9956V466.482M240.273 26.9956V466.482M253.739 26.9956V466.482M267.205 26.9956V466.482M280.671 26.9956V466.482M294.137 26.9956L294.138 466.482M307.604 26.9956V466.482M321.07 26.9956V466.482M334.536 26.9956V466.482M348.002 26.9956V466.482M361.468 26.9956V466.482M424.138 36.8881H-15.8657M424.138 50.3382H-15.8657M424.138 63.7884H-15.8657M424.138 77.2386H-15.8657M424.138 90.6888H-15.8657M424.138 104.139H-15.8657M424.138 117.589H-15.8657M424.138 131.039H-15.8657M424.138 144.49H-15.8657M424.138 157.94H-15.8657M424.138 171.39H-15.8657M424.138 184.84H-15.8657M424.138 198.29H-15.8657M424.138 211.74H-15.8657M424.138 225.191H-15.8657M424.138 238.641H-15.8657M424.138 252.091H-15.8657M424.138 265.541H-15.8657M424.138 278.991H-15.8657M424.138 292.441H-15.8657M424.138 305.892H-15.8657M424.138 319.342H-15.8657M424.138 332.792H-15.8657M424.138 346.242H-15.8657M424.138 359.692H-15.8657M424.138 373.142H-15.8657M424.138 386.592H-15.8657M424.138 400.043H-15.8657M424.138 413.493H-15.8657M424.138 426.943H-15.8657M424.138 440.393H-15.8657M424.138 453.843H-15.8657" stroke="#282828" stroke-width="0.599254"/>
</g>
</g>
<mask id="path-3-inside-1_264_5591" fill="white">
<path d="M113.526 260.392C113.526 249.355 122.474 240.407 133.511 240.407H173.481C184.519 240.407 193.466 249.355 193.466 260.392C193.466 271.43 184.519 280.377 173.481 280.377H133.511C122.474 280.377 113.526 271.43 113.526 260.392Z"/>
</mask>
<path d="M113.526 260.392C113.526 249.355 122.474 240.407 133.511 240.407H173.481C184.519 240.407 193.466 249.355 193.466 260.392C193.466 271.43 184.519 280.377 173.481 280.377H133.511C122.474 280.377 113.526 271.43 113.526 260.392Z" fill="#1F1F1F"/>
<path d="M133.511 240.407V241.206H173.481V240.407V239.608H133.511V240.407ZM173.481 280.377V279.578H133.511V280.377V281.176H173.481V280.377ZM133.511 280.377V279.578C122.915 279.578 114.325 270.989 114.325 260.392H113.526H112.727C112.727 271.871 122.032 281.176 133.511 281.176V280.377ZM193.466 260.392H192.667C192.667 270.989 184.077 279.578 173.481 279.578V280.377V281.176C184.96 281.176 194.265 271.871 194.265 260.392H193.466ZM173.481 240.407V241.206C184.077 241.206 192.667 249.796 192.667 260.392H193.466H194.265C194.265 248.914 184.96 239.608 173.481 239.608V240.407ZM133.511 240.407V239.608C122.032 239.608 112.727 248.914 112.727 260.392H113.526H114.325C114.325 249.796 122.915 241.206 133.511 241.206V240.407Z" fill="#898989" fill-opacity="0.7" mask="url(#path-3-inside-1_264_5591)"/>
<path d="M138.707 261.181C138.707 259.196 140.317 257.586 142.303 257.586C144.288 257.586 145.898 259.196 145.898 261.181C145.898 263.167 144.288 264.777 142.303 264.777C140.317 264.777 138.707 263.167 138.707 261.181Z" fill="#898989"/>
<path d="M150.692 261.181C150.692 259.196 152.302 257.586 154.287 257.586C156.273 257.586 157.883 259.196 157.883 261.181C157.883 263.167 156.273 264.777 154.287 264.777C152.302 264.777 150.692 263.167 150.692 261.181Z" fill="#898989"/>
<path d="M162.677 261.181C162.677 259.196 164.287 257.586 166.273 257.586C168.259 257.586 169.868 259.196 169.868 261.181C169.868 263.167 168.259 264.777 166.273 264.777C164.287 264.777 162.677 263.167 162.677 261.181Z" fill="#898989"/>
<g clip-path="url(#clip2_264_5591)">
<path d="M81.8664 271.206C80.6613 270.209 78.8398 271.066 78.8398 272.63V311.874C78.8398 313.642 81.0841 314.401 82.1572 312.996L92.6559 299.247C92.7789 299.086 92.9699 298.992 93.1724 298.992H110.32C112.052 298.992 112.833 296.823 111.498 295.719L81.8664 271.206Z" fill="#212121" stroke="#898989" stroke-width="1.19851" stroke-linejoin="round"/>
</g>
<g clip-path="url(#clip3_264_5591)">
<path d="M197.513 375.435C196.71 374.77 195.496 375.341 195.496 376.384V402.547C195.496 403.725 196.992 404.231 197.707 403.294L204.706 394.129C204.788 394.021 204.916 393.959 205.051 393.959H216.482C217.637 393.959 218.157 392.513 217.268 391.777L197.513 375.435Z" fill="#212121" stroke="#898989" stroke-width="0.799005" stroke-linejoin="round"/>
</g>
<rect width="317.413" height="486.594" transform="translate(0.32959 -0.00585938)" fill="url(#paint0_linear_264_5591)"/>
</g>
<defs>
<linearGradient id="paint0_linear_264_5591" x1="158.706" y1="486.594" x2="158.706" y2="0" gradientUnits="userSpaceOnUse">
<stop stop-opacity="0"/>
<stop offset="0.5" stop-opacity="0"/>
<stop offset="0.85" stop-opacity="0.01"/>
</linearGradient>
<clipPath id="clip0_264_5591">
<rect width="317.413" height="486.594" fill="white" transform="translate(0.32959 -0.00585938)"/>
</clipPath>
<clipPath id="clip1_264_5591">
<rect width="317.413" height="414.072" fill="white" transform="translate(0.32959 36.2573)"/>
</clipPath>
<clipPath id="clip2_264_5591">
<rect width="35.9552" height="45.5433" fill="white" transform="translate(77.5703 269.171)"/>
</clipPath>
<clipPath id="clip3_264_5591">
<rect width="23.9702" height="33.5582" fill="white" transform="translate(194.65 372.48)"/>
</clipPath>
</defs>
</svg>
