<svg width="23" height="22" viewBox="0 0 23 22" fill="none" xmlns="http://www.w3.org/2000/svg">
<path d="M5.2712 13.7768H11.9089M5.2712 13.7768V16.4319H11.9089V13.7768M5.2712 13.7768V11.1217H11.9089V13.7768M13.9081 7.17262V4.51746C13.9081 3.05106 12.7193 1.8623 11.253 1.8623C9.78658 1.8623 8.59785 3.05106 8.59785 4.51746V7.17262M5.24268 9.82771V16.4657C5.24268 17.9321 6.43142 19.1208 7.8978 19.1208H14.5355C16.0019 19.1208 17.1907 17.9321 17.1907 16.4657V9.82771C17.1907 8.36136 16.0019 7.17262 14.5355 7.17262H7.8978C6.43142 7.17262 5.24268 8.36136 5.24268 9.82771Z" stroke="#FAFAFA" stroke-width="1.29439" stroke-miterlimit="10" stroke-linecap="round" stroke-linejoin="round"/>
</svg>
