<svg width="1273" height="900" viewBox="0 0 1273 900" fill="none" xmlns="http://www.w3.org/2000/svg">
<path d="M75.7647 1H1V75.7647M75.7647 1V75.7647M75.7647 1H150.529M75.7647 75.7647H1M75.7647 75.7647H150.529M75.7647 75.7647V150.529M1 75.7647V150.529M150.529 1V75.7647M150.529 1H225.294M150.529 75.7647H225.294M150.529 75.7647V150.529M225.294 1V75.7647M225.294 1H300.059M225.294 75.7647H300.059M225.294 75.7647V150.529M300.059 1V75.7647M300.059 1H374.824M300.059 75.7647H374.824M300.059 75.7647V150.529M374.824 1V75.7647M374.824 1H449.588M374.824 75.7647H449.588M374.824 75.7647V150.529M449.588 1V75.7647M449.588 1H524.353M449.588 75.7647H524.353M449.588 75.7647V150.529M524.353 1V75.7647M524.353 1H599.118M524.353 75.7647H599.118M524.353 75.7647V150.529M599.118 1V75.7647M599.118 1H673.882M599.118 75.7647H673.882M599.118 75.7647V150.529M673.882 1V75.7647M673.882 1H748.647M673.882 75.7647H748.647M673.882 75.7647V150.529M748.647 1V75.7647M748.647 1H823.412M748.647 75.7647H823.412M748.647 75.7647V150.529M823.412 1V75.7647M823.412 1H898.176M823.412 75.7647H898.176M823.412 75.7647V150.529M898.176 1V75.7647M898.176 1H972.941M898.176 75.7647H972.941M898.176 75.7647V150.529M972.941 1V75.7647M972.941 1H1047.71M972.941 75.7647H1047.71M972.941 75.7647V150.529M1047.71 1V75.7647M1047.71 1H1122.47M1047.71 75.7647H1122.47M1047.71 75.7647V150.529M1122.47 1V75.7647M1122.47 1H1197.24M1122.47 75.7647H1197.24M1122.47 75.7647V150.529M1197.24 1V75.7647M1197.24 1H1272V75.7647M1197.24 75.7647H1272M1197.24 75.7647V150.529M1272 75.7647V150.529M75.7647 150.529H1M75.7647 150.529H150.529M75.7647 150.529V225.294M1 150.529V225.294M150.529 150.529H225.294M150.529 150.529V225.294M225.294 150.529H300.059M225.294 150.529V225.294M300.059 150.529H374.824M300.059 150.529V225.294M374.824 150.529H449.588M374.824 150.529V225.294M449.588 150.529H524.353M449.588 150.529V225.294M524.353 150.529H599.118M524.353 150.529V225.294M599.118 150.529H673.882M599.118 150.529V225.294M673.882 150.529H748.647M673.882 150.529V225.294M748.647 150.529H823.412M748.647 150.529V225.294M823.412 150.529H898.176M823.412 150.529V225.294M898.176 150.529H972.941M898.176 150.529V225.294M972.941 150.529H1047.71M972.941 150.529V225.294M1047.71 150.529H1122.47M1047.71 150.529V225.294M1122.47 150.529H1197.24M1122.47 150.529V225.294M1197.24 150.529H1272M1197.24 150.529V225.294M1272 150.529V225.294M75.7647 225.294H1M75.7647 225.294H150.529M75.7647 225.294V300.059M1 225.294V300.059M150.529 225.294H225.294M150.529 225.294V300.059M225.294 225.294H300.059M225.294 225.294V300.059M300.059 225.294H374.824M300.059 225.294V300.059M374.824 225.294H449.588M374.824 225.294V300.059M449.588 225.294H524.353M449.588 225.294V300.059M524.353 225.294H599.118M524.353 225.294V300.059M599.118 225.294H673.882M599.118 225.294V300.059M673.882 225.294H748.647M673.882 225.294V300.059M748.647 225.294H823.412M748.647 225.294V300.059M823.412 225.294H898.176M823.412 225.294V300.059M898.176 225.294H972.941M898.176 225.294V300.059M972.941 225.294H1047.71M972.941 225.294V300.059M1047.71 225.294H1122.47M1047.71 225.294V300.059M1122.47 225.294H1197.24M1122.47 225.294V300.059M1197.24 225.294H1272M1197.24 225.294V300.059M1272 225.294V300.059M75.7647 300.059H1M75.7647 300.059H150.529M75.7647 300.059V374.824M1 300.059V374.824M150.529 300.059H225.294M150.529 300.059V374.824M225.294 300.059H300.059M225.294 300.059V374.824M300.059 300.059H374.824M300.059 300.059V374.824M374.824 300.059H449.588M374.824 300.059V374.824M449.588 300.059H524.353M449.588 300.059V374.824M524.353 300.059H599.118M524.353 300.059V374.824M599.118 300.059H673.882M599.118 300.059V374.824M673.882 300.059H748.647M673.882 300.059V374.824M748.647 300.059H823.412M748.647 300.059V374.824M823.412 300.059H898.176M823.412 300.059V374.824M898.176 300.059H972.941M898.176 300.059V374.824M972.941 300.059H1047.71M972.941 300.059V374.824M1047.71 300.059H1122.47M1047.71 300.059V374.824M1122.47 300.059H1197.24M1122.47 300.059V374.824M1197.24 300.059H1272M1197.24 300.059V374.824M1272 300.059V374.824M75.7647 374.824H1M75.7647 374.824H150.529M75.7647 374.824V449.588M1 374.824V449.588M150.529 374.824H225.294M150.529 374.824V449.588M225.294 374.824H300.059M225.294 374.824V449.588M300.059 374.824H374.824M300.059 374.824V449.588M374.824 374.824H449.588M374.824 374.824V449.588M449.588 374.824H524.353M449.588 374.824V449.588M524.353 374.824H599.118M524.353 374.824V449.588M599.118 374.824H673.882M599.118 374.824V449.588M673.882 374.824H748.647M673.882 374.824V449.588M748.647 374.824H823.412M748.647 374.824V449.588M823.412 374.824H898.176M823.412 374.824V449.588M898.176 374.824H972.941M898.176 374.824V449.588M972.941 374.824H1047.71M972.941 374.824V449.588M1047.71 374.824H1122.47M1047.71 374.824V449.588M1122.47 374.824H1197.24M1122.47 374.824V449.588M1197.24 374.824H1272M1197.24 374.824V449.588M1272 374.824V449.588M75.7647 449.588H1M75.7647 449.588H150.529M75.7647 449.588V524.353M1 449.588V524.353M150.529 449.588H225.294M150.529 449.588V524.353M225.294 449.588H300.059M225.294 449.588V524.353M300.059 449.588H374.824M300.059 449.588V524.353M374.824 449.588H449.588M374.824 449.588V524.353M449.588 449.588H524.353M449.588 449.588V524.353M524.353 449.588H599.118M524.353 449.588V524.353M599.118 449.588H673.882M599.118 449.588V524.353M673.882 449.588H748.647M673.882 449.588V524.353M748.647 449.588H823.412M748.647 449.588V524.353M823.412 449.588H898.176M823.412 449.588V524.353M898.176 449.588H972.941M898.176 449.588V524.353M972.941 449.588H1047.71M972.941 449.588V524.353M1047.71 449.588H1122.47M1047.71 449.588V524.353M1122.47 449.588H1197.24M1122.47 449.588V524.353M1197.24 449.588H1272M1197.24 449.588V524.353M1272 449.588V524.353M75.7647 524.353H1M75.7647 524.353H150.529M75.7647 524.353V599.118M1 524.353V599.118M150.529 524.353H225.294M150.529 524.353V599.118M225.294 524.353H300.059M225.294 524.353V599.118M300.059 524.353H374.824M300.059 524.353V599.118M374.824 524.353H449.588M374.824 524.353V599.118M449.588 524.353H524.353M449.588 524.353V599.118M524.353 524.353H599.118M524.353 524.353V599.118M599.118 524.353H673.882M599.118 524.353V599.118M673.882 524.353H748.647M673.882 524.353V599.118M748.647 524.353H823.412M748.647 524.353V599.118M823.412 524.353H898.176M823.412 524.353V599.118M898.176 524.353H972.941M898.176 524.353V599.118M972.941 524.353H1047.71M972.941 524.353V599.118M1047.71 524.353H1122.47M1047.71 524.353V599.118M1122.47 524.353H1197.24M1122.47 524.353V599.118M1197.24 524.353H1272M1197.24 524.353V599.118M1272 524.353V599.118M75.7647 599.118H1M75.7647 599.118H150.529M75.7647 599.118V673.882M1 599.118V673.882M150.529 599.118H225.294M150.529 599.118V673.882M225.294 599.118H300.059M225.294 599.118V673.882M300.059 599.118H374.824M300.059 599.118V673.882M374.824 599.118H449.588M374.824 599.118V673.882M449.588 599.118H524.353M449.588 599.118V673.882M524.353 599.118H599.118M524.353 599.118V673.882M599.118 599.118H673.882M599.118 599.118V673.882M673.882 599.118H748.647M673.882 599.118V673.882M748.647 599.118H823.412M748.647 599.118V673.882M823.412 599.118H898.176M823.412 599.118V673.882M898.176 599.118H972.941M898.176 599.118V673.882M972.941 599.118H1047.71M972.941 599.118V673.882M1047.71 599.118H1122.47M1047.71 599.118V673.882M1122.47 599.118H1197.24M1122.47 599.118V673.882M1197.24 599.118H1272M1197.24 599.118V673.882M1272 599.118V673.882M75.7647 673.882H1M75.7647 673.882H150.529M75.7647 673.882V748.647M1 673.882V748.647M150.529 673.882H225.294M150.529 673.882V748.647M225.294 673.882H300.059M225.294 673.882V748.647M300.059 673.882H374.824M300.059 673.882V748.647M374.824 673.882H449.588M374.824 673.882V748.647M449.588 673.882H524.353M449.588 673.882V748.647M524.353 673.882H599.118M524.353 673.882V748.647M599.118 673.882H673.882M599.118 673.882V748.647M673.882 673.882H748.647M673.882 673.882V748.647M748.647 673.882H823.412M748.647 673.882V748.647M823.412 673.882H898.176M823.412 673.882V748.647M898.176 673.882H972.941M898.176 673.882V748.647M972.941 673.882H1047.71M972.941 673.882V748.647M1047.71 673.882H1122.47M1047.71 673.882V748.647M1122.47 673.882H1197.24M1122.47 673.882V748.647M1197.24 673.882H1272M1197.24 673.882V748.647M1272 673.882V748.647M75.7647 748.647H1M75.7647 748.647H150.529M75.7647 748.647V823.412M1 748.647V823.412M150.529 748.647H225.294M150.529 748.647V823.412M225.294 748.647H300.059M225.294 748.647V823.412M300.059 748.647H374.824M300.059 748.647V823.412M374.824 748.647H449.588M374.824 748.647V823.412M449.588 748.647H524.353M449.588 748.647V823.412M524.353 748.647H599.118M524.353 748.647V823.412M599.118 748.647H673.882M599.118 748.647V823.412M673.882 748.647H748.647M673.882 748.647V823.412M748.647 748.647H823.412M748.647 748.647V823.412M823.412 748.647H898.176M823.412 748.647V823.412M898.176 748.647H972.941M898.176 748.647V823.412M972.941 748.647H1047.71M972.941 748.647V823.412M1047.71 748.647H1122.47M1047.71 748.647V823.412M1122.47 748.647H1197.24M1122.47 748.647V823.412M1197.24 748.647H1272M1197.24 748.647V823.412M1272 748.647V823.412M75.7647 823.412H1M75.7647 823.412H150.529M75.7647 823.412V898.176M1 823.412V898.176H75.7647M150.529 823.412H225.294M150.529 823.412V898.176M225.294 823.412H300.059M225.294 823.412V898.176M300.059 823.412H374.824M300.059 823.412V898.176M374.824 823.412H449.588M374.824 823.412V898.176M449.588 823.412H524.353M449.588 823.412V898.176M524.353 823.412H599.118M524.353 823.412V898.176M599.118 823.412H673.882M599.118 823.412V898.176M673.882 823.412H748.647M673.882 823.412V898.176M748.647 823.412H823.412M748.647 823.412V898.176M823.412 823.412H898.176M823.412 823.412V898.176M898.176 823.412H972.941M898.176 823.412V898.176M972.941 823.412H1047.71M972.941 823.412V898.176M1047.71 823.412H1122.47M1047.71 823.412V898.176M1122.47 823.412H1197.24M1122.47 823.412V898.176M1197.24 823.412H1272M1197.24 823.412V898.176M1272 823.412V898.176H1197.24M75.7647 898.176H150.529M150.529 898.176H225.294M225.294 898.176H300.059M300.059 898.176H374.824M374.824 898.176H449.588M449.588 898.176H524.353M524.353 898.176H599.118M599.118 898.176H673.882M673.882 898.176H748.647M748.647 898.176H823.412M823.412 898.176H898.176M898.176 898.176H972.941M972.941 898.176H1047.71M1047.71 898.176H1122.47M1122.47 898.176H1197.24" stroke="url(#paint0_radial_185_2749)" stroke-opacity="0.08" stroke-width="1.91704"/>
<defs>
<radialGradient id="paint0_radial_185_2749" cx="0" cy="0" r="1" gradientUnits="userSpaceOnUse" gradientTransform="translate(636.5 473.551) rotate(90) scale(423.667 636.459)">
<stop stop-color="white"/>
<stop offset="1" stop-color="white" stop-opacity="0"/>
</radialGradient>
</defs>
</svg>
